<svg width="40" height="40" viewBox="0 0 40 40" fill="none" xmlns="http://www.w3.org/2000/svg">
<path d="M10.8516 9.64834C10.8516 8.86449 11.7124 8.38538 12.3786 8.79848L13.9264 9.75829C14.2492 9.95848 14.6576 9.95848 14.9804 9.75829L17.5282 8.17837C17.851 7.97818 18.2594 7.97818 18.5822 8.17837L21.13 9.75829C21.4528 9.95848 21.8612 9.95848 22.184 9.75829L24.7318 8.17837C25.0546 7.97818 25.463 7.97818 25.7858 8.17837L28.3336 9.75829C28.6564 9.95848 29.0648 9.95848 29.3876 9.75829L30.9299 8.80191C31.5972 8.38809 32.4593 8.86961 32.4569 9.65484L32.385 33.0739C32.3785 35.1958 30.6565 36.9126 28.5345 36.9126H14.7021C12.5755 36.9126 10.8516 35.1886 10.8516 33.062V9.64834Z" fill="url(#paint0_linear_1_12663)" fill-opacity="0.4"/>
<path d="M7 5.79678C7 5.01292 7.86084 4.53382 8.52701 4.94692L10.0748 5.90673C10.3976 6.10691 10.806 6.10691 11.1288 5.90673L13.6766 4.32681C13.9994 4.12662 14.4078 4.12662 14.7306 4.32681L17.2784 5.90673C17.6012 6.10691 18.0096 6.10691 18.3324 5.90673L20.8802 4.32681C21.2031 4.12662 21.6114 4.12662 21.9342 4.32681L24.482 5.90673C24.8049 6.10691 25.2132 6.10691 25.5361 5.90673L27.0783 4.95035C27.7457 4.53652 28.6077 5.01805 28.6053 5.80328L28.5334 29.2223C28.5269 31.3443 26.8049 33.061 24.6829 33.061H10.8506C8.72395 33.061 7 31.3371 7 29.2105V5.79678Z" fill="#232546"/>
<path d="M7 5.79678C7 5.01292 7.86084 4.53382 8.52701 4.94692L10.0748 5.90673C10.3976 6.10691 10.806 6.10691 11.1288 5.90673L13.6766 4.32681C13.9994 4.12662 14.4078 4.12662 14.7306 4.32681L17.2784 5.90673C17.6012 6.10691 18.0096 6.10691 18.3324 5.90673L20.8802 4.32681C21.2031 4.12662 21.6114 4.12662 21.9342 4.32681L24.482 5.90673C24.8049 6.10691 25.2132 6.10691 25.5361 5.90673L27.0783 4.95035C27.7457 4.53652 28.6077 5.01805 28.6053 5.80328L28.5334 29.2223C28.5269 31.3443 26.8049 33.061 24.6829 33.061H10.8506C8.72395 33.061 7 31.3371 7 29.2105V5.79678Z" fill="url(#paint1_linear_1_12663)"/>
<path d="M7 5.79678C7 5.01292 7.86084 4.53382 8.52701 4.94692L10.0748 5.90673C10.3976 6.10691 10.806 6.10691 11.1288 5.90673L13.6766 4.32681C13.9994 4.12662 14.4078 4.12662 14.7306 4.32681L17.2784 5.90673C17.6012 6.10691 18.0096 6.10691 18.3324 5.90673L20.8802 4.32681C21.2031 4.12662 21.6114 4.12662 21.9342 4.32681L24.482 5.90673C24.8049 6.10691 25.2132 6.10691 25.5361 5.90673L27.0783 4.95035C27.7457 4.53652 28.6077 5.01805 28.6053 5.80328L28.5334 29.2223C28.5269 31.3443 26.8049 33.061 24.6829 33.061H10.8506C8.72395 33.061 7 31.3371 7 29.2105V5.79678Z" stroke="url(#paint2_linear_1_12663)" stroke-width="0.5" stroke-linejoin="round"/>
<path d="M14.9905 13.1797H16.524C18.6553 13.1797 20.383 14.9074 20.383 17.0386C20.383 19.1699 18.6553 20.8976 16.524 20.8976H14.6837L18.8831 26.8389" stroke="white" stroke-linecap="round" stroke-linejoin="round"/>
<path d="M14.2207 13.1797H22.3781" stroke="white" stroke-linecap="round"/>
<path d="M14.2207 17.0625H22.3781" stroke="white" stroke-linecap="round"/>
<defs>
<linearGradient id="paint0_linear_1_12663" x1="21.657" y1="7.85156" x2="21.657" y2="36.9126" gradientUnits="userSpaceOnUse">
<stop stop-color="#2CC48B"/>
<stop offset="1" stop-color="#155E43"/>
</linearGradient>
<linearGradient id="paint1_linear_1_12663" x1="17.8054" y1="4" x2="17.8054" y2="33.061" gradientUnits="userSpaceOnUse">
<stop stop-color="#2CC48B"/>
<stop offset="1" stop-color="#155E43"/>
</linearGradient>
<linearGradient id="paint2_linear_1_12663" x1="17.8054" y1="4" x2="17.8054" y2="33.061" gradientUnits="userSpaceOnUse">
<stop stop-color="white"/>
<stop offset="1" stop-color="white" stop-opacity="0"/>
</linearGradient>
</defs>
</svg>
