<svg width="40" height="40" viewBox="0 0 40 40" fill="none" xmlns="http://www.w3.org/2000/svg">
<rect width="40" height="40" rx="20" fill="#9DBCFF" fill-opacity="0.1"/>
<rect x="6.88379" y="11.5015" width="23.1684" height="15.7517" rx="2.62988" fill="white"/>
<path d="M14.3486 19.7656C14.6651 19.7656 15.0686 19.8707 15.5215 20.0596C15.9666 20.2453 16.4221 20.4952 16.8311 20.7471C17.5749 21.2053 18.0234 22.0364 18.1064 22.9697C18.1471 23.4269 17.7861 23.8203 17.3271 23.8203H11.3691C10.9103 23.8201 10.5502 23.4268 10.5908 22.9697C10.6739 22.0363 11.1223 21.2053 11.8662 20.7471C12.2752 20.4952 12.7306 20.2453 13.1758 20.0596C13.6287 19.8707 14.0322 19.7656 14.3486 19.7656Z" fill="white" stroke="#406AC5" stroke-width="1.05195"/>
<circle cx="14.3494" cy="18.0491" r="2.00263" fill="white" stroke="#406AC5" stroke-width="1.05195"/>
<path d="M20.1567 16.186H26.7583" stroke="#406AC5" stroke-width="1.05195" stroke-linecap="round"/>
<path d="M20.1567 18.1382H22.7134" stroke="#406AC5" stroke-width="1.05195" stroke-linecap="round"/>
<path d="M21.2871 21.0146C21.2871 21.0146 24.7476 20.671 27.0877 19.3774C29.8476 20.7134 32.8883 21.0146 32.8883 21.0146V24.4714C32.8883 28.0791 30.5511 31.2711 27.1118 32.3605C27.0961 32.3654 27.0793 32.3654 27.0637 32.3605C23.6244 31.2711 21.2871 28.0791 21.2871 24.4714V21.0146Z" fill="#9DBCFF"/>
<path d="M24.2173 25.8845L26.3962 28.0037L29.9576 23.9595" stroke="white" stroke-width="1.05195" stroke-linecap="round" stroke-linejoin="round"/>
</svg>
