<svg width="115" height="118" viewBox="0 0 115 118" fill="none" xmlns="http://www.w3.org/2000/svg">
<path d="M133.799 99.4989C130.604 88.973 128.093 82.0464 128.093 82.0464L112.443 87.5434L117.355 103.528C118.596 107.021 117.353 115.132 123.154 114.068C129.228 112.953 136.995 110.025 133.799 99.4989Z" fill="#E59E7C" stroke="black" stroke-width="0.584641"/>
<path d="M78.002 54.5981L78.1438 54.554C81.9042 53.3837 85.2446 52.3662 88.4629 52.0383C92.6963 51.6069 92.7853 51.7416 95.3486 51.7415C98.2453 51.7413 102.847 51.347 113.453 53.997C119.861 55.5981 125.424 65.0854 126.815 73.0371L130.152 84.9356C128.365 84.9356 126.709 84.5189 122.427 85.3527C116.672 86.4736 115.975 88.5033 114.396 90.5317C114.396 90.5317 116.017 99.1192 118.558 106.474C119.23 108.418 121.339 112.97 121.339 112.97L121.901 118.941L65.3496 119.412C65.3496 119.412 69.558 107.807 68.3281 91.7785C67.1399 95.9188 68.2041 95.9968 66.5001 99.8227C61.2765 81.0651 52.6101 82.6666 50.8675 83.2198C52.5457 78.1459 55.695 71.0281 56.8245 67.8279C58.741 62.3979 64.3732 59.6694 67.836 58.1522C70.9123 56.8044 74.3532 55.7336 78.002 54.5981Z" fill="#BCE5FF"/>
<path d="M68.3281 91.7785C69.558 107.807 65.3496 119.412 65.3496 119.412L121.901 118.941L121.339 112.97C121.339 112.97 119.23 108.418 118.558 106.474C116.017 99.1192 114.396 90.5317 114.396 90.5317M68.3281 91.7785C68.3281 89.16 67.232 84.9356 68.3281 77.5385M68.3281 91.7785C67.1399 95.9188 68.2041 95.9968 66.5001 99.8227C61.2765 81.0651 52.6101 82.6666 50.8675 83.2198C52.5457 78.1459 55.695 71.0281 56.8245 67.8279C58.741 62.3979 64.3732 59.6694 67.836 58.1522C70.9521 56.787 74.4423 55.7059 78.1438 54.554C81.9042 53.3837 85.2446 52.3662 88.4629 52.0383C92.6963 51.6069 92.7853 51.7416 95.3486 51.7415C98.2453 51.7413 102.847 51.347 113.453 53.997C119.861 55.5981 125.424 65.0854 126.815 73.0371L130.152 84.9356C128.365 84.9356 126.709 84.5189 122.427 85.3527C116.672 86.4736 115.975 88.5033 114.396 90.5317M114.396 90.5317C113.751 87.1169 111.987 81.6342 111.987 78.8439" stroke="black" stroke-width="0.584641" stroke-linejoin="round"/>
<path d="M116.795 88.1089C115.999 88.7738 115.297 89.7474 114.762 90.6139C118.095 108.79 120.813 110.499 122.989 114.786C122.517 112.719 122.989 108.5 124.008 105.478C120.34 101.81 118.508 93.7869 116.795 88.1089Z" fill="#B47D62" fill-opacity="0.5"/>
<path opacity="0.3" d="M54.6348 108.182C59.7173 106.182 65.7091 87.1437 68.0697 77.8745C67.2365 82.2071 68.0697 88.706 68.5905 91.4138C68.4169 91.8999 68.0697 93.2469 68.0697 94.7466C68.0697 96.2463 67.1671 98.6348 66.7158 99.6416L65.8826 97.9752C64.133 102.974 58.9741 111.237 56.6134 114.743L54.6348 108.182Z" fill="black"/>
<path opacity="0.5" d="M113.432 85.5455C112.848 82.5883 111.559 79.5006 111.559 79.5006C111.559 79.5006 116.104 107.923 112.682 112.882C109.26 117.842 101.574 118.291 101.89 119.185L121.996 119.186C121.714 116.541 121.214 114.047 121.214 112.882C118.224 106.47 117.042 103.838 113.432 85.5455Z" fill="black"/>
<path d="M66.6601 49.084C65.3696 45.8853 64.5201 41.4069 63.9608 36.9417C63.588 34.0615 63.3338 31.1495 63.1929 28.5427C63.0849 26.5435 63.0435 24.7238 63.0662 23.2355C63.0662 23.2355 61.612 13.7195 72.5717 13.5606C87.1846 13.3486 86.1833 21.0406 86.1833 21.0406C86.2587 23.6796 85.9962 27.3783 88.1749 28.9106C90.3536 30.443 87.1278 35.9046 86.3741 37.8727L92.9865 52.2945C88.2785 59.0973 78.4944 61.5023 76.9229 57.6912L75.491 51.0872C74.0875 51.9229 71.3145 53.3691 69.191 52.4508C68.5961 52.224 68.0811 51.8207 67.6929 51.1897C67.6874 51.1818 67.6819 51.174 67.6765 51.166C67.3156 50.5857 66.9769 49.8837 66.6601 49.084Z" fill="#E59E7C"/>
<path d="M83.2031 43.9348C81.0622 46.3954 78.741 49.2353 75.491 51.0872C72.8617 52.5854 69.2323 53.7362 67.678 51.1654C64.2026 45.4168 63.2463 31.2636 62.9835 24.3745M75.491 51.0872L76.9229 57.6912C78.4944 61.5023 88.2785 59.0973 92.9865 52.2945L86.3741 37.8727C87.1278 35.9046 90.3536 30.443 88.1749 28.9106C85.9962 27.3783 86.2587 23.6796 86.1833 21.0406C86.1833 21.0406 87.1846 13.3486 72.5717 13.5606C61.612 13.7195 63.0662 23.2355 63.0662 23.2355C62.9542 30.5554 64.3952 45.8899 67.6765 51.166C69.7475 54.1791 73.7153 52.1445 75.491 51.0872Z" stroke="black" stroke-width="0.584641"/>
<path opacity="0.3" d="M84.3563 44.3882C81.9228 44.1025 77.5853 50.6514 75.5052 51.1331L76.9657 56.4749C77.9054 56.2987 77.5102 54.4305 78.6603 53.2447C79.7892 52.0809 82.3801 52.3131 83.597 50.2305C84.7653 48.7134 83.492 46.6292 84.3563 44.3882Z" fill="black"/>
<path d="M79.0095 27.7007C80.7518 28.068 78.6774 32.459 79.7066 36.2211C80.7358 39.9832 76.6125 37.8489 76.0391 43.5538C75.837 45.5648 75.3539 37.8582 67.2171 43.592C64.8097 45.2884 64.8571 46.1071 65.231 47.5653C65.6447 49.1787 66.7873 50.0214 67.2171 50.8321C67.7605 51.8573 67.7552 53.2903 69.1442 54.7996C71.2345 56.3988 75.2554 54.1392 77.3104 51.1823C77.9708 50.2322 80.3829 50.2929 81.2098 49.4836C82.2559 48.4597 81.2794 47.1706 82.0207 45.9084C82.9801 44.2749 84.6592 45.2563 85.0744 43.592C85.6492 41.2877 81.5322 37.6539 82.0867 32.408C82.333 30.0777 83.146 26.6872 86.2019 28.0414C89.4091 30.1133 87.5815 36.0773 86.1425 37.2139L88.4976 45.9187C88.5873 45.1501 91.2288 36.3802 92.6856 32.3084C94.5276 27.1597 93.3214 22.0013 89.3111 20.0281C89.9717 18.0084 90.3441 17.5279 90.3655 16.2315C89.6817 16.0676 89.351 17.5007 88.7793 17.1907C89.0958 10.8526 89.3609 17.3058 86.3207 15.7228C86.867 13.3123 80.0431 8.79254 70.1704 10.7652C66.9975 11.3992 66.5872 13.9819 63.9555 15.5486C61.5709 16.9683 58.0795 15.3773 57.4937 18.5059C57.0737 20.749 59.503 27.5891 66.0766 22.5385C70.1532 19.4064 70.4334 22.8181 75.1342 20.8407C77.5434 22.4714 73.192 26.4744 79.0095 27.7007Z" fill="#533A51" stroke="black" stroke-width="0.584641"/>
<path d="M84.3223 30.9998C84.5539 31.4223 84.7397 31.9707 84.8822 32.484M84.8822 32.484C85.0787 33.1922 85.1926 33.8334 85.2303 33.9838C85.2822 34.1915 85.0198 33.0705 84.8822 32.484ZM84.8822 32.484C85.0199 32.1839 85.4315 31.5641 85.9764 31.4863" stroke="black" stroke-width="0.584641"/>
<path d="M72.0023 43.5974C70.389 45.6882 66.6555 46.1821 67.5651 46.5508C68.3968 46.8559 71.343 47.5035 72.7454 45.4951C73.6032 44.2668 72.7264 42.341 72.0023 43.5974Z" fill="white" stroke="black" stroke-width="0.584641"/>
<path d="M73.5768 32.4847C73.1612 31.3945 70.9783 30.8339 69.2134 32.7555L69.3653 33.6581C69.3653 33.6581 73.1279 33.9527 73.5768 32.4847Z" fill="white"/>
<ellipse cx="70.6906" cy="32.6811" rx="0.722314" ry="0.963085" transform="rotate(-9.55832 70.6906 32.6811)" fill="black"/>
<path d="M67.8613 29.9919C69.2297 28.975 71.7421 28.6123 74.3565 29.8985" stroke="black" stroke-width="0.584641"/>
<path d="M68.9883 32.7888C69.9843 31.0382 71.8108 30.8556 73.7453 32.1025" stroke="black" stroke-width="0.584641"/>
<path d="M62.4279 32.4821C63.1661 30.7938 64.6655 30.6977 65.0866 30.9147" stroke="black" stroke-width="0.584641"/>
<path d="M65.8866 33.9409C65.471 32.8506 63.692 32.1349 63.4721 33.7462L63.6241 34.6488C63.6241 34.6488 65.1936 35.1065 65.8866 33.9409Z" fill="white"/>
<path d="M63.1309 33.6873C63.785 32.7541 65.1114 32.481 66.0391 33.3981" stroke="black" stroke-width="0.584641"/>
<path d="M65.9773 33.1273C66.1858 34.9748 65.4413 37.6926 64.453 41.49C64.9711 43.2082 67.9551 42.0736 69.0381 41.3508" stroke="black" stroke-width="0.584641"/>
<ellipse cx="64.5286" cy="33.7469" rx="0.466954" ry="0.963085" transform="rotate(-9.55832 64.5286 33.7469)" fill="black"/>
<path d="M84.0689 106.939C87.0742 107.759 91.0129 107.053 92.6066 106.598L120.366 96.7964L127.277 113.075C127.277 113.075 122.126 114.608 93.2896 117.868C87.8546 118.482 79.2878 118.209 79.2878 118.209C78.2633 117.185 74.8482 115.477 72.7991 117.185C70.7501 118.892 70.4086 118.892 69.0426 118.892C68.3596 118.892 68.1319 117.981 68.3596 117.526C67.335 118.892 66.652 118.892 65.286 118.892C64.1932 118.892 64.3753 117.298 64.603 116.502C63.9199 117.868 62.8954 118.551 61.8709 117.868C61.0513 117.321 62.2124 114.908 62.8954 113.77C62.4401 113.883 61.666 113.565 62.2124 111.379C62.8954 108.647 67.6765 104.549 71.0916 104.207C74.5067 103.866 80.3123 105.915 84.0689 106.939Z" fill="#E59E7C"/>
<path d="M62.8941 113.77C62.4387 113.883 61.6646 113.565 62.211 111.379C62.8941 108.647 67.6752 104.549 71.0903 104.207C74.5053 103.866 80.311 105.915 84.0676 106.939C87.0728 107.759 91.0116 107.053 92.6053 106.598L120.364 96.7964M62.211 111.379C62.6664 111.037 63.6454 110.628 63.9186 111.72M71.4318 106.256C66.7873 108.169 63.8047 112.062 62.8941 113.77C62.211 114.908 61.0499 117.321 61.8695 117.868C62.8941 118.551 63.9186 117.868 64.6016 116.502C65.6261 114.566 68.9046 110.354 73.8223 108.988M64.6016 116.502C64.3739 117.298 64.1918 118.892 65.2846 118.892C66.6506 118.892 67.3337 118.892 68.3582 117.526M68.3582 117.526C68.1305 117.981 68.3582 118.892 69.0412 118.892C70.4072 118.892 70.7488 118.892 72.7978 117.185C74.8468 115.477 78.2619 117.185 79.2865 118.209C79.2865 118.209 87.8532 118.482 93.2883 117.868C122.125 114.608 127.75 112.789 127.75 112.789M68.3582 117.526C68.9274 116.388 70.9537 113.77 74.5053 112.404M68.3582 117.526C69.0412 117.185 69.7242 117.185 69.7242 118.209M62.211 115.819C62.8941 115.477 63.9186 116.16 63.5771 117.185M64.9431 117.185C65.6261 116.502 66.9922 116.502 66.9922 117.868" stroke="black" stroke-width="0.584641" stroke-linecap="round" stroke-linejoin="round"/>
<path d="M74.2433 78.3129C72.4252 79.5335 71.697 81.3155 71.781 83.4539C71.7961 83.768 71.876 84.064 71.9505 84.3605C72.5852 86.8874 75.3036 88.103 77.6291 86.901C79.8213 85.768 81.033 83.0889 80.4332 80.7064C79.708 77.8263 76.7194 76.6503 74.2433 78.3129ZM76.1803 78.9444C76.1497 79.0704 76.0475 79.1095 75.931 79.1256C75.4078 79.2018 74.9327 79.3886 74.5425 79.7492C74.4 79.8814 74.2789 80.04 74.1717 80.2028C74.0814 80.3424 73.9845 80.4541 73.8197 80.3568C73.6506 80.2571 73.7099 80.1041 73.7941 79.9719C74.2509 79.2573 74.9159 78.8635 75.7643 78.7102C75.8543 78.7156 75.9698 78.7037 76.0715 78.7336C76.1526 78.7601 76.204 78.8475 76.1803 78.9444Z" fill="#333333"/>
<path d="M86.5872 80.1465C85.651 79.5305 84.463 79.5875 83.6195 80.2399C82.6834 80.9631 82.2948 82.1576 82.6421 83.2592C83.3118 85.382 85.8711 85.7605 87.4384 84.4368C87.4913 84.3927 87.5819 84.3302 87.5078 84.2612C87.3196 84.0861 87.1295 83.9044 86.9115 83.774C86.7638 83.6859 86.6665 83.883 86.5538 83.9556C85.5263 84.6275 84.1862 84.2962 83.7188 83.2597C83.6152 83.0309 83.6248 82.9434 83.9053 82.9259C84.5066 82.8886 85.1066 82.8217 85.7077 82.7668C86.3209 82.7109 86.9341 82.6549 87.5473 82.5989C87.679 82.5869 87.8228 82.6022 87.8046 82.3872C87.7216 81.4633 87.3819 80.6683 86.5872 80.1465ZM83.7379 82.1464C83.5309 82.1666 83.5626 82.0689 83.588 81.9312C83.7304 81.1735 84.3526 80.6361 85.1337 80.6081C85.823 80.5831 86.473 81.1087 86.6678 81.8763C85.6888 81.9656 84.7123 82.052 83.7379 82.1464Z" fill="#333333"/>
<path d="M97.4236 79.1745C96.4894 78.5516 95.3004 78.5978 94.4562 79.2422C93.5029 79.9696 93.1137 81.1723 93.4679 82.2895C94.1226 84.3528 96.6307 84.7942 98.2437 83.4663C98.2966 83.4222 98.3991 83.356 98.3393 83.2951C98.1573 83.114 97.9638 82.9394 97.7527 82.7962C97.5864 82.6827 97.5009 82.8896 97.3935 82.9603C96.3677 83.6361 95.028 83.3237 94.5477 82.2952C94.4365 82.0576 94.4397 81.9585 94.7431 81.9402C95.3447 81.9057 95.9444 81.836 96.5455 81.7812C97.1587 81.7252 97.7718 81.6679 98.3852 81.6146C98.5318 81.6013 98.6461 81.5908 98.6261 81.3868C98.5364 80.4784 98.2045 79.6936 97.4236 79.1745ZM97.2312 80.9143C96.29 81.0016 95.3485 81.0861 94.383 81.1742C94.5262 80.2026 95.1063 79.65 95.962 79.622C96.6529 79.5996 97.3123 80.1392 97.4827 80.8778C97.3984 80.8896 97.3159 80.9066 97.2312 80.9143Z" fill="#333333"/>
<path d="M104.051 79.9696C103.923 78.8304 103.034 78.114 101.884 78.1729C101.272 78.2045 100.741 78.4221 100.223 78.9568C100.306 78.4144 100.064 78.3987 99.755 78.4647C99.6712 78.4832 99.5826 78.4926 99.4981 78.4882C99.2242 78.4725 99.1484 78.5783 99.1767 78.8587C99.3205 80.2713 99.4415 81.686 99.5705 83.1C99.6361 83.8184 99.6349 83.805 100.345 83.7524C100.621 83.7326 100.692 83.649 100.663 83.3741C100.55 82.3147 100.461 81.2532 100.367 80.1921C100.355 80.0605 100.324 79.932 100.397 79.7993C100.647 79.3501 101.348 79.0302 101.931 79.1111C102.502 79.1916 102.866 79.5226 102.981 80.1322C103.142 80.9868 103.16 81.8598 103.249 82.7237C103.328 83.5032 103.321 83.4971 104.099 83.4071C104.303 83.3831 104.371 83.3241 104.349 83.1122C104.244 82.0656 104.169 81.0149 104.051 79.9696Z" fill="#333333"/>
<path d="M92.3243 79.1407C92.065 79.1373 91.9756 79.2578 91.9045 79.4891C91.5561 80.6339 91.187 81.7738 90.8205 82.9134C90.791 83.0068 90.8069 83.1367 90.6584 83.1882C90.1526 82.2364 89.651 81.287 89.1455 80.3393C88.6533 79.4175 88.6507 79.4191 87.5421 79.6029C88.3704 81.1169 89.1714 82.5981 89.9892 84.0711C90.3948 84.8018 90.1448 84.6473 90.9884 84.6055C91.2355 84.5938 91.3467 84.5051 91.4226 84.2666C91.8113 83.0437 92.2211 81.8283 92.6237 80.6095C92.7872 80.1126 92.9507 79.6157 93.1301 79.0712C92.8304 79.0999 92.5781 79.1433 92.3243 79.1407Z" fill="#333333"/>
<path d="M74.2228 87.3846C74.0416 87.3158 73.9603 87.4505 73.8949 87.5959C73.5941 88.2517 73.1515 88.6617 72.3621 88.4656C72.215 88.429 72.1156 88.4976 72.0861 88.6357C72.0547 88.7821 72.153 88.8638 72.2823 88.8981C72.4727 88.9498 72.6655 88.9823 72.928 88.961C73.595 88.8555 74.045 88.4082 74.3219 87.7574C74.3819 87.6124 74.4026 87.4535 74.2228 87.3846Z" fill="#333333"/>
<path d="M113.314 116.343L68.6236 116.343V119.323H113.314V116.343Z" fill="#497BDC" stroke="black" stroke-width="0.584641" stroke-linecap="round" stroke-linejoin="round"/>
<path d="M103.525 116.343L58.8345 116.343V119.323H103.525V116.343Z" fill="#9CBBE0" stroke="black" stroke-width="0.584641" stroke-linecap="round" stroke-linejoin="round"/>
<path d="M68.0088 68.5728H16.2617C14.5289 68.5728 13.1243 69.9777 13.124 71.7104V116.269C13.124 118.002 14.5288 119.407 16.2617 119.407H72.665C74.527 119.407 75.9797 117.795 75.7861 115.943L71.1299 71.3843C70.9627 69.7865 69.6153 68.5728 68.0088 68.5728Z" fill="#497BDC" stroke="black" stroke-width="0.584641" stroke-linecap="round" stroke-linejoin="round"/>
<path d="M66.2471 68.5728H9.50488C7.64048 68.5729 6.18719 70.1895 6.38477 72.0435L11.1367 116.602C11.3068 118.197 12.6528 119.407 14.2568 119.407H70.999C72.8635 119.407 74.3166 117.791 74.1191 115.937L69.3672 71.3784C69.1971 69.7833 67.8512 68.5728 66.2471 68.5728Z" fill="#9CBBE0" stroke="black" stroke-width="0.584641" stroke-linecap="round" stroke-linejoin="round"/>
<path d="M68.9245 71.4815L73.5397 115.584C73.6694 116.823 72.9484 117.993 71.7839 118.435L70.3671 118.973C72.3145 113.621 71.4799 102.204 63.134 99.7063C46.4995 94.7285 31.6978 104.344 26.6903 93.641C23.5414 86.9104 21.3739 78.2993 17.2009 69.0229H66.1953C67.6003 69.0229 68.7783 70.0841 68.9245 71.4815Z" fill="#BCD4FC"/>
<path d="M37.5349 91.7719C36.0716 92.7544 35.4854 94.1887 35.553 95.9099C35.5652 96.1628 35.6295 96.401 35.6895 96.6397C36.2003 98.6735 38.3883 99.6519 40.2601 98.6845C42.0246 97.7725 43 95.6161 42.5172 93.6985C41.9335 91.3803 39.5279 90.4337 37.5349 91.7719ZM39.094 92.2803C39.0694 92.3817 38.9871 92.4132 38.8934 92.4261C38.4722 92.4874 38.0898 92.6378 37.7758 92.928C37.6611 93.0344 37.5636 93.1621 37.4773 93.2931C37.4046 93.4055 37.3266 93.4954 37.194 93.4171C37.0579 93.3369 37.1055 93.2137 37.1733 93.1073C37.541 92.5321 38.0763 92.2151 38.7592 92.0918C38.8316 92.0961 38.9246 92.0865 39.0065 92.1106C39.0717 92.1319 39.1131 92.2022 39.094 92.2803Z" fill="white"/>
<path d="M37.517 99.0755C37.3711 99.0201 37.3057 99.1285 37.2531 99.2456C37.0109 99.7734 36.6547 100.103 36.0193 99.9456C35.9009 99.9161 35.8209 99.9713 35.7972 100.082C35.7719 100.2 35.851 100.266 35.955 100.294C36.1084 100.335 36.2635 100.361 36.4748 100.344C37.0116 100.259 37.3739 99.8993 37.5967 99.3755C37.645 99.2589 37.6617 99.1309 37.517 99.0755Z" fill="white"/>
<path d="M5.79989 102.617C5.34748 102.068 4.32203 100.672 3.83946 99.4746C3.35689 98.2775 7.15711 101.071 9.11754 102.617C7.00627 100.672 2.60276 95.7337 1.87891 91.5439C4.23063 93.1259 8.54197 96.3201 10.5272 98.7089C8.98797 95.7089 7.28511 90.2274 8.3634 83.6131C9.06715 87.753 11.1683 96.5717 13.9431 98.7265C12.8372 95.2349 11.0778 86.6357 12.8875 80.1714C14.6284 82.158 17.6055 87.727 17.4331 95.6351C18.1734 92.7072 20.0634 88.5358 24.1976 83.6131C23.7955 87.2542 22.1467 95.7038 18.7688 100.372C21.2319 97.9783 26.339 92.711 27.0629 90.7957C26.8043 93.1054 25.6585 97.7477 23.0552 100.232C24.8475 98.9876 27.2794 97.5294 28.5709 97.5294L24.1976 102.617L15.6019 104.562L5.79989 102.617Z" fill="#48C696" stroke="black" stroke-width="0.584641"/>
<path d="M26.074 119.293C24.9972 116.511 28.517 106.782 30.4115 102.265H0.498047C4.56628 109.556 4.58623 116.655 4.08767 119.293H26.074Z" fill="#F3AFCD" stroke="black" stroke-width="0.584641"/>
<path d="M26.4979 113.771C26.728 111.93 27.8785 109.169 28.3387 107.789H3.02734C3.48755 109.86 4.58438 112.844 4.08583 113.771H26.4979Z" fill="#EB4C86" stroke="black" stroke-width="0.584641" stroke-linejoin="round"/>
</svg>
