<svg width="100" height="100" viewBox="0 0 100 100" fill="none" xmlns="http://www.w3.org/2000/svg">
<circle cx="50.1204" cy="52.8782" r="46.8586" stroke="#BBBBBB" stroke-width="0.52356" stroke-dasharray="3.14 3.14"/>
<circle cx="50.3829" cy="52.6193" r="42.1466" fill="url(#paint0_linear_91131_27120)"/>
<rect x="87.9492" y="60.3418" width="5.49738" height="5.49738" fill="#BCE5FF" stroke="black" stroke-width="0.26178"/>
<path d="M76.0371 7.51172H79.4404C79.9175 7.51172 80.3046 7.89801 80.3047 8.375V72.5898H75.1738V8.375C75.174 7.89809 75.5602 7.51185 76.0371 7.51172Z" fill="#6691D1" stroke="black" stroke-width="0.366492"/>
<path d="M58.499 0.183594C58.976 0.183594 59.3631 0.569883 59.3633 1.04688V72.0684H54.4941V0.183594H58.499Z" fill="#1563AB" stroke="black" stroke-width="0.366492"/>
<path d="M75.4785 7.68652C75.5259 7.66265 75.5928 7.69768 75.5928 7.76172V72.5898H49.7812V20.8643L75.4785 7.68652Z" fill="#8DBBFF" stroke="black" stroke-width="0.366492"/>
<path d="M68.9688 72.5125V63.915C68.9688 61.6018 67.0935 59.7266 64.7803 59.7266C62.467 59.7266 60.5918 61.6018 60.5918 63.915V72.5125H68.9688Z" fill="#6183B6" stroke="#363434" stroke-width="0.301318"/>
<path d="M68.5284 72.0721V63.9156C68.5284 61.8458 66.8505 60.168 64.7808 60.168C62.7111 60.168 61.0332 61.8458 61.0332 63.9156V72.0721H68.5284Z" fill="#8FA1CE"/>
<path d="M61.0332 63.6951V71.1903L66.8453 61.5034C67.198 60.9157 66.7746 60.168 66.0892 60.168H64.5603C62.6124 60.168 61.0332 61.7471 61.0332 63.6951Z" fill="#6482BD"/>
<path d="M66.7637 68.9844H68.5272" stroke="#363434" stroke-width="0.592592"/>
<rect x="28.8375" y="0.183246" width="25.8115" height="72.4084" fill="#449CED" stroke="black" stroke-width="0.366492"/>
<rect x="22.0329" y="36.3082" width="25.8115" height="36.2827" fill="#85BEE1" stroke="#333333" stroke-width="0.366492"/>
<rect x="18.3668" y="36.3082" width="25.8115" height="36.2827" fill="#B2E2FF" stroke="#333333" stroke-width="0.366492"/>
<path d="M61.1154 50.2633C61.4045 50.2633 61.6389 49.9402 61.6389 49.5417V27.4247C61.6389 27.0262 61.4045 26.7031 61.1154 26.7031C60.8262 26.7031 60.5918 27.0262 60.5918 27.4247V49.5417C60.5918 49.9402 60.8262 50.2633 61.1154 50.2633Z" fill="black"/>
<path d="M67.922 50.2633C68.2111 50.2633 68.4456 49.9402 68.4456 49.5417V27.4247C68.4456 27.0262 68.2111 26.7031 67.922 26.7031C67.6329 26.7031 67.3984 27.0262 67.3984 27.4247V49.5417C67.3984 49.9402 67.6329 50.2633 67.922 50.2633Z" fill="black"/>
<path d="M25.5177 43.2852C25.2286 43.2852 24.9941 43.6808 24.9941 44.1687V52.4511C24.9941 52.939 25.2286 53.3346 25.5177 53.3346C25.8068 53.3346 26.0413 52.939 26.0413 52.4511V44.1687C26.0413 43.6808 25.8068 43.2852 25.5177 43.2852Z" fill="black"/>
<path d="M31.2892 43.2852C31.0001 43.2852 30.7656 43.6808 30.7656 44.1687V52.4511C30.7656 52.939 31.0001 53.3346 31.2892 53.3346C31.5783 53.3346 31.8127 52.939 31.8127 52.4511V44.1687C31.8127 43.6808 31.5783 43.2852 31.2892 43.2852Z" fill="black"/>
<path d="M37.5823 52.4511V44.1687C37.5823 43.6808 37.3479 43.2852 37.0587 43.2852C36.7696 43.2852 36.5352 43.6808 36.5352 44.1687V52.4511C36.5352 52.939 36.7696 53.3346 37.0587 53.3346C37.3479 53.3346 37.5823 52.939 37.5823 52.4511Z" fill="black"/>
<path d="M33.8654 13.4409C34.1545 13.4409 34.3889 13.0453 34.3889 12.5574V9.03976C34.3889 8.55184 34.1545 8.15625 33.8654 8.15625C33.5762 8.15625 33.3418 8.55184 33.3418 9.03976V12.5574C33.3418 13.0453 33.5762 13.4409 33.8654 13.4409Z" fill="black"/>
<path d="M41.2892 13.4409C41.5783 13.4409 41.8127 13.0453 41.8127 12.5574V9.03976C41.8127 8.55184 41.5783 8.15625 41.2892 8.15625C41.0001 8.15625 40.7656 8.55184 40.7656 9.03976V12.5574C40.7656 13.0453 41.0001 13.4409 41.2892 13.4409Z" fill="black"/>
<path d="M48.715 13.4409C49.0041 13.4409 49.2385 13.0453 49.2385 12.5574V9.03976C49.2385 8.55184 49.0041 8.15625 48.715 8.15625C48.4258 8.15625 48.1914 8.55184 48.1914 9.03976V12.5574C48.1914 13.0453 48.4258 13.4409 48.715 13.4409Z" fill="black"/>
<path d="M33.8654 22.7378C34.1545 22.7378 34.3889 22.3422 34.3889 21.8543V18.3366C34.3889 17.8487 34.1545 17.4531 33.8654 17.4531C33.5762 17.4531 33.3418 17.8487 33.3418 18.3366V21.8543C33.3418 22.3422 33.5762 22.7378 33.8654 22.7378Z" fill="black"/>
<path d="M41.2892 22.7378C41.5783 22.7378 41.8127 22.3422 41.8127 21.8543V18.3366C41.8127 17.8487 41.5783 17.4531 41.2892 17.4531C41.0001 17.4531 40.7656 17.8487 40.7656 18.3366V21.8543C40.7656 22.3422 41.0001 22.7378 41.2892 22.7378Z" fill="black"/>
<path d="M48.715 22.7378C49.0041 22.7378 49.2385 22.3422 49.2385 21.8543V18.3366C49.2385 17.8487 49.0041 17.4531 48.715 17.4531C48.4258 17.4531 48.1914 17.8487 48.1914 18.3366V21.8543C48.1914 22.3422 48.4258 22.7378 48.715 22.7378Z" fill="black"/>
<path d="M33.8654 32.0342C34.1545 32.0342 34.3889 31.6386 34.3889 31.1507V27.6335C34.3889 27.1456 34.1545 26.75 33.8654 26.75C33.5762 26.75 33.3418 27.1456 33.3418 27.6335V31.1507C33.3418 31.6386 33.5762 32.0342 33.8654 32.0342Z" fill="black"/>
<path d="M41.2892 32.0342C41.5783 32.0342 41.8127 31.6386 41.8127 31.1507V27.6335C41.8127 27.1456 41.5783 26.75 41.2892 26.75C41.0001 26.75 40.7656 27.1456 40.7656 27.6335V31.1507C40.7656 31.6386 41.0001 32.0342 41.2892 32.0342Z" fill="black"/>
<path d="M48.715 32.0342C49.0041 32.0342 49.2385 31.6386 49.2385 31.1507V27.6335C49.2385 27.1456 49.0041 26.75 48.715 26.75C48.4258 26.75 48.1914 27.1456 48.1914 27.6335V31.1507C48.1914 31.6386 48.4258 32.0342 48.715 32.0342Z" fill="black"/>
<path d="M33.3672 72.5125V63.915C33.3672 61.6018 31.492 59.7266 29.1787 59.7266C26.8655 59.7266 24.9902 61.6018 24.9902 63.915V72.5125H33.3672Z" fill="#6196B6" stroke="#363434" stroke-width="0.301318"/>
<path d="M32.9268 72.0721V63.9156C32.9268 61.8458 31.249 60.168 29.1792 60.168C27.1095 60.168 25.4316 61.8458 25.4316 63.9156V72.0721H32.9268Z" fill="#90C0DE"/>
<path d="M25.4316 63.6951V71.1903L31.2438 61.5034C31.5964 60.9157 31.173 60.168 30.4876 60.168H28.9588C27.0108 60.168 25.4316 61.7471 25.4316 63.6951Z" fill="#649BBD"/>
<path d="M31.1621 68.9844H32.9257" stroke="#363434" stroke-width="0.592592"/>
<line x1="7.71289" y1="72.5771" x2="92.0061" y2="72.5771" stroke="black" stroke-width="0.39267"/>
<rect x="5.22659" y="48.8223" width="5.49738" height="5.49738" fill="#BCE5FF" stroke="black" stroke-width="0.26178"/>
<defs>
<linearGradient id="paint0_linear_91131_27120" x1="50.3829" y1="10.4727" x2="50.3829" y2="94.7658" gradientUnits="userSpaceOnUse">
<stop offset="0.102064" stop-color="#C6E9FF"/>
<stop offset="1" stop-color="white"/>
</linearGradient>
</defs>
</svg>
