<svg width="121" height="121" viewBox="0 0 121 121" fill="none" xmlns="http://www.w3.org/2000/svg">
<path d="M112.864 14.207H107.03V8.54102H106.864V14.207H101.03V8.54102H100.864V14.207H95.0303V8.54102H94.8643V14.207H89.0303V8.54102H88.8643V14.207H83.0303V8.54102H82.8643V14.207H77.0303V8.54102H76.8643V14.207H71.0303V8.54102H70.8643V14.207H65.0303V8.54102H64.8643V14.207H60.0293V8.54102H59.8633V38.542H60.0293V32.373H64.8643V38.207H60.1973V38.373H64.8643V38.542H65.0303V38.373H70.8643V38.542H71.0303V38.373H76.8643V38.542H77.0303V38.373H82.8643V38.542H83.0303V38.373H88.8643V38.542H89.0303V38.373H94.8643V38.542H95.0303V38.373H100.864V38.542H101.03V38.373H106.864V38.542H107.03V38.373H112.864V38.542H113.03V38.373H113.199V38.207H113.03V8.54102H112.864V14.207ZM112.864 38.207H107.03V32.373H112.864V38.207ZM106.864 38.207H101.03V32.373H106.864V38.207ZM100.864 38.207H95.0303V32.373H100.864V38.207ZM94.8643 38.207H89.0303V32.373H94.8643V38.207ZM88.8643 38.207H83.0303V32.373H88.8643V38.207ZM82.8643 38.207H77.0303V32.373H82.8643V38.207ZM76.8643 38.207H71.0303V32.373H76.8643V38.207ZM70.8643 38.207H65.0303V32.373H70.8643V38.207ZM112.864 32.207H107.03V26.373H112.864V32.207ZM106.864 32.207H101.03V26.373H106.864V32.207ZM100.864 32.207H95.0303V26.373H100.864V32.207ZM94.8643 32.207H89.0303V26.373H94.8643V32.207ZM88.8643 32.207H83.0303V26.373H88.8643V32.207ZM82.8643 32.207H77.0303V26.373H82.8643V32.207ZM76.8643 32.207H71.0303V26.373H76.8643V32.207ZM70.8643 32.207H65.0303V26.373H70.8643V32.207ZM64.8643 32.207H60.0293V26.373H64.8643V32.207ZM112.864 26.207H107.03V20.373H112.864V26.207ZM106.864 26.207H101.03V20.373H106.864V26.207ZM100.864 26.207H95.0303V20.373H100.864V26.207ZM94.8643 26.207H89.0303V20.373H94.8643V26.207ZM88.8643 26.207H83.0303V20.373H88.8643V26.207ZM82.8643 26.207H77.0303V20.373H82.8643V26.207ZM76.8643 26.207H71.0303V20.373H76.8643V26.207ZM70.8643 26.207H65.0303V20.373H70.8643V26.207ZM64.8643 26.207H60.0293V20.373H64.8643V26.207ZM112.864 20.207H107.03V14.373H112.864V20.207ZM106.864 20.207H101.03V14.373H106.864V20.207ZM100.864 20.207H95.0303V14.373H100.864V20.207ZM94.8643 20.207H89.0303V14.373H94.8643V20.207ZM88.8643 20.207H83.0303V14.373H88.8643V20.207ZM82.8643 20.207H77.0303V14.373H82.8643V20.207ZM76.8643 20.207H71.0303V14.373H76.8643V20.207ZM70.8643 20.207H65.0303V14.373H70.8643V20.207ZM64.8643 20.207H60.0293V14.373H64.8643V20.207ZM60.0078 8.37305H113.01V8.20703H60.0078V8.37305Z" fill="#DDDDDD"/>
<path d="M112.864 44.3398H107.03V38.6738H106.864V44.3398H101.03V38.6738H100.864V44.3398H95.0303V38.6738H94.8643V44.3398H89.0303V38.6738H88.8643V44.3398H83.0303V38.6738H82.8643V44.3398H77.0303V38.6738H76.8643V44.3398H71.0303V38.6738H70.8643V44.3398H65.0303V38.6738H64.8643V44.3398H60.0293V38.6738H59.8633V68.6748H60.0293V62.5059H64.8643V68.3398H60.1973V68.5059H64.8643V68.6748H65.0303V68.5059H70.8643V68.6748H71.0303V68.5059H76.8643V68.6748H77.0303V68.5059H82.8643V68.6748H83.0303V68.5059H88.8643V68.6748H89.0303V68.5059H94.8643V68.6748H95.0303V68.5059H100.864V68.6748H101.03V68.5059H106.864V68.6748H107.03V68.5059H112.864V68.6748H113.03V68.5059H113.199V68.3398H113.03V38.6738H112.864V44.3398ZM112.864 68.3398H107.03V62.5059H112.864V68.3398ZM106.864 68.3398H101.03V62.5059H106.864V68.3398ZM100.864 68.3398H95.0303V62.5059H100.864V68.3398ZM94.8643 68.3398H89.0303V62.5059H94.8643V68.3398ZM88.8643 68.3398H83.0303V62.5059H88.8643V68.3398ZM82.8643 68.3398H77.0303V62.5059H82.8643V68.3398ZM76.8643 68.3398H71.0303V62.5059H76.8643V68.3398ZM70.8643 68.3398H65.0303V62.5059H70.8643V68.3398ZM112.864 62.3398H107.03V56.5059H112.864V62.3398ZM106.864 62.3398H101.03V56.5059H106.864V62.3398ZM100.864 62.3398H95.0303V56.5059H100.864V62.3398ZM94.8643 62.3398H89.0303V56.5059H94.8643V62.3398ZM88.8643 62.3398H83.0303V56.5059H88.8643V62.3398ZM82.8643 62.3398H77.0303V56.5059H82.8643V62.3398ZM76.8643 62.3398H71.0303V56.5059H76.8643V62.3398ZM70.8643 62.3398H65.0303V56.5059H70.8643V62.3398ZM64.8643 62.3398H60.0293V56.5059H64.8643V62.3398ZM112.864 56.3398H107.03V50.5059H112.864V56.3398ZM106.864 56.3398H101.03V50.5059H106.864V56.3398ZM100.864 56.3398H95.0303V50.5059H100.864V56.3398ZM94.8643 56.3398H89.0303V50.5059H94.8643V56.3398ZM88.8643 56.3398H83.0303V50.5059H88.8643V56.3398ZM82.8643 56.3398H77.0303V50.5059H82.8643V56.3398ZM76.8643 56.3398H71.0303V50.5059H76.8643V56.3398ZM70.8643 56.3398H65.0303V50.5059H70.8643V56.3398ZM64.8643 56.3398H60.0293V50.5059H64.8643V56.3398ZM112.864 50.3398H107.03V44.5059H112.864V50.3398ZM106.864 50.3398H101.03V44.5059H106.864V50.3398ZM100.864 50.3398H95.0303V44.5059H100.864V50.3398ZM94.8643 50.3398H89.0303V44.5059H94.8643V50.3398ZM88.8643 50.3398H83.0303V44.5059H88.8643V50.3398ZM82.8643 50.3398H77.0303V44.5059H82.8643V50.3398ZM76.8643 50.3398H71.0303V44.5059H76.8643V50.3398ZM70.8643 50.3398H65.0303V44.5059H70.8643V50.3398ZM64.8643 50.3398H60.0293V44.5059H64.8643V50.3398ZM60.0078 38.5059H113.01V38.3398H60.0078V38.5059Z" fill="#DDDDDD"/>
<path d="M80.6787 35.291L80.7178 35.3037L80.7559 35.291L96.6543 30.0127C97.6152 29.6937 98.6072 30.4094 98.6074 31.4219V92.0117C98.6073 92.6514 98.1969 93.2194 97.5898 93.4209L80.7168 99.0205L62.7441 93.0547L62.7051 93.042L62.667 93.0547L44.6934 99.0205L27.8213 93.4209C27.2142 93.2194 26.8038 92.6514 26.8037 92.0117V31.4219C26.8039 30.4094 27.7959 29.6937 28.7568 30.0127L44.6553 35.291L44.6934 35.3037L44.7324 35.291L62.7051 29.3242L80.6787 35.291Z" fill="#E5EBF2" stroke="#363434" stroke-width="0.244914"/>
<ellipse opacity="0.7" cx="60" cy="60" rx="60" ry="60" transform="matrix(-1 0 0 1 120.135 0.132812)" stroke="#666666" stroke-width="0.267857" stroke-dasharray="1.35 1.35"/>
<rect x="-0.0884246" y="0.164819" width="2.92391" height="2.92391" transform="matrix(-0.957386 0.28881 0.28881 0.957386 43.8633 0.708343)" fill="white" stroke="#999999" stroke-width="0.264516"/>
<rect x="-0.00791406" y="0.186873" width="2.92391" height="2.92391" transform="matrix(-0.736393 0.676554 0.676555 0.736392 103.508 99.207)" fill="white" stroke="#999999" stroke-width="0.264516"/>
<path d="M94.9374 33.7367L84.4393 37.3988C84.2242 37.4739 84.0801 37.6768 84.0801 37.9047V91.4052C84.0801 91.7693 84.4354 92.0273 84.7816 91.9146L95.2797 88.4966C95.5003 88.4248 95.6496 88.2192 95.6496 87.9872V34.2425C95.6496 33.8737 95.2856 33.6152 94.9374 33.7367Z" fill="white"/>
<path d="M30.9825 33.7367L41.4806 37.3988C41.6957 37.4739 41.8398 37.6768 41.8398 37.9047V59.1182C41.8398 59.4823 41.4845 59.7403 41.1383 59.6276L30.6402 56.2096C30.4196 56.1378 30.2703 55.9322 30.2703 55.7002V34.2425C30.2703 33.8737 30.6343 33.6152 30.9825 33.7367Z" fill="white"/>
<path d="M66.4962 35.893L76.9943 39.5551C77.2094 39.6301 77.3535 39.8331 77.3535 40.0609V66.1175C77.3535 66.4816 76.9981 66.7396 76.652 66.6269L66.1539 63.2089C65.9333 63.1371 65.784 62.9315 65.784 62.6995V36.3988C65.784 36.03 66.148 35.7715 66.4962 35.893Z" fill="white"/>
<path d="M66.4962 88.0922L76.9943 91.7543C77.2094 91.8293 77.3535 92.0323 77.3535 92.2601V94.6396C77.3535 95.0037 76.9981 95.2617 76.652 95.149L66.1539 91.731C65.9333 91.6592 65.784 91.4536 65.784 91.2216V88.598C65.784 88.2292 66.148 87.9707 66.4962 88.0922Z" fill="white"/>
<path d="M30.9825 68.182L41.4806 71.8441C41.6957 71.9192 41.8398 72.1221 41.8398 72.35V93.5635C41.8398 93.9276 41.4845 94.1856 41.1383 94.0729L30.6402 90.6549C30.4196 90.5831 30.2703 90.3775 30.2703 90.1455V68.6878C30.2703 68.3191 30.6343 68.0606 30.9825 68.182Z" fill="white"/>
<path d="M108.657 85.6925L94.8656 85.6925H82.9192C82.4051 85.6925 81.9883 85.2757 81.9883 84.7616C81.9883 84.2475 82.4051 83.8307 82.9192 83.8307H83.7621C84.5197 83.8307 85.1339 83.2166 85.1339 82.4589C85.1339 81.7013 85.7481 81.0871 86.5057 81.0871H86.8583C87.5889 81.0871 88.1812 80.4948 88.1812 79.7642C88.1812 79.0337 88.7734 78.4414 89.504 78.4414H89.7594C90.5872 78.4414 91.2743 77.8018 91.3335 76.976L91.3995 76.0556C91.4165 75.8184 91.4637 75.5833 91.5844 75.3784C91.9038 74.8357 92.7535 73.788 94.5707 73.7382C97.0282 73.6709 97.9538 74.4903 98.5027 75.5022C98.5822 75.6488 98.6428 75.8146 98.6883 75.991C99.0089 77.2338 99.8816 78.4414 101.165 78.4414H101.898C102.629 78.4414 103.221 79.0448 103.221 79.7754C103.221 80.4938 103.807 81.0871 104.525 81.0871C105.222 81.0871 105.797 81.6386 105.822 82.3348C105.85 83.1234 106.585 83.6591 107.366 83.7706C107.464 83.7846 107.558 83.8042 107.645 83.8307C108.205 84.0029 108.43 84.2975 108.922 84.6147C109.389 84.9153 109.212 85.6925 108.657 85.6925Z" fill="#DDEEFF" stroke="#363434" stroke-width="0.244914"/>
<path d="M32.702 41.7447L25.8801 41.7447H19.9733C19.7162 41.7447 19.5078 41.5363 19.5078 41.2793C19.5078 41.0222 19.7162 40.8138 19.9733 40.8138H20.3785C20.7573 40.8138 21.0644 40.5067 21.0644 40.1279C21.0644 39.7491 21.3715 39.442 21.7503 39.442H21.9109C22.2762 39.442 22.5723 39.1459 22.5723 38.7806C22.5723 38.4153 22.8685 38.1191 23.2338 38.1191H23.353C23.7627 38.1191 24.1027 37.8024 24.1317 37.3937L24.165 36.9247C24.1733 36.8071 24.1965 36.6905 24.2558 36.5887C24.4134 36.3177 24.8338 35.7925 25.7342 35.7676C26.9502 35.7339 27.4083 36.1436 27.6799 36.6495C27.7212 36.7265 27.7522 36.814 27.7751 36.9072C27.9264 37.5239 28.3613 38.1191 28.9964 38.1191H29.3533C29.7186 38.1191 30.0148 38.4153 30.0148 38.7806V38.7984C30.0148 39.1538 30.3029 39.442 30.6583 39.442C31.0049 39.442 31.2893 39.7175 31.3015 40.0638C31.3155 40.4582 31.6837 40.7259 32.0739 40.7849C32.1196 40.7918 32.1634 40.8013 32.2037 40.8138C32.4808 40.8999 32.5926 41.0472 32.8361 41.2058C33.0684 41.3571 32.9793 41.7447 32.702 41.7447Z" fill="#DDEEFF" stroke="#363434" stroke-width="0.244914"/>
<path d="M54.0049 60.1328C62.5081 60.133 69.4014 67.027 69.4014 75.5303C69.4012 84.0334 62.508 90.9266 54.0049 90.9268C45.5016 90.9268 38.6076 84.0335 38.6074 75.5303C38.6074 67.0269 45.5015 60.1328 54.0049 60.1328Z" fill="white" stroke="#333333" stroke-width="0.297619"/>
<rect x="95.2631" y="35.8881" width="7.22893" height="6.33207" fill="white" stroke="#363434" stroke-width="0.244914"/>
<rect x="23.2162" y="81.9311" width="7.22893" height="6.33207" fill="white" stroke="#363434" stroke-width="0.244914"/>
<circle cx="54.0056" cy="75.5329" r="8.66966" fill="#DADBF1"/>
<path d="M53.7676 71.2891V81.1545" stroke="#333333" stroke-width="2.14286" stroke-linecap="square"/>
<path d="M48.6836 76.2188H58.5491" stroke="#333333" stroke-width="2.14286" stroke-linecap="square"/>
<path d="M54.3027 70.7461V80.6116" stroke="white" stroke-width="2.14286" stroke-linecap="square"/>
<path d="M49.2227 75.6758H59.0881" stroke="white" stroke-width="2.14286" stroke-linecap="square"/>
<path d="M37.9512 39.7422C37.9512 31.6697 44.3405 24.2242 54.7461 24.7578H54.7529C58.7899 24.7578 61.9085 26.4804 64.0215 29.209C66.1374 31.9413 67.25 35.6901 67.25 39.7422C67.25 41.6715 66.5025 44.3572 65.3682 47.3145C64.2357 50.2667 62.7251 53.4728 61.2129 56.4365C59.7009 59.3999 58.189 62.1192 57.0547 64.0977C56.4876 65.0868 56.0143 65.8908 55.6836 66.4473C55.5184 66.7252 55.3883 66.9412 55.2998 67.0879C55.2607 67.1528 55.2295 67.2042 55.207 67.2412H52.1367C52.1099 67.2054 52.0722 67.1529 52.0225 67.0859C51.9183 66.9455 51.7649 66.7386 51.5703 66.4717C51.1809 65.9377 50.6247 65.1645 49.957 64.21C48.6213 62.3004 46.84 59.6638 45.0596 56.7559C43.2788 53.8473 41.5002 50.6689 40.167 47.6768C38.8318 44.6802 37.9512 41.8874 37.9512 39.7422ZM52.6006 30.5771C47.6142 30.5773 43.5732 34.6119 43.5732 39.5908C43.5735 44.5695 47.6143 48.6033 52.6006 48.6035C57.587 48.6035 61.6287 44.5696 61.6289 39.5908C61.6289 34.6118 57.5872 30.5771 52.6006 30.5771Z" fill="#363434" stroke="#363434" stroke-width="0.297619"/>
<path d="M55.2314 24.8516C63.3183 24.8516 69.8809 31.4049 69.8809 39.4775C69.8808 43.3533 67.9751 47.925 65.2637 52.6885C62.5544 57.4482 59.056 62.3739 55.8955 66.957C55.574 67.4202 54.8898 67.4203 54.5684 66.957H54.5674C51.386 62.383 47.8885 57.4569 45.1846 52.6953C42.4783 47.9297 40.5821 43.3534 40.582 39.4775C40.582 31.405 47.1448 24.8518 55.2314 24.8516ZM55.2314 30.3115C50.2451 30.3117 46.2042 34.3464 46.2041 39.3252C46.2041 44.3041 50.245 48.3387 55.2314 48.3389C60.218 48.3389 64.2598 44.3042 64.2598 39.3252C64.2596 34.3463 60.2179 30.3115 55.2314 30.3115Z" fill="#F3AFCD" stroke="#363434" stroke-width="0.297619"/>
<path d="M55.2314 24.8516C63.3183 24.8516 69.8809 31.4049 69.8809 39.4775C69.8808 43.3533 67.9751 47.925 65.2637 52.6885C62.5544 57.4482 59.056 62.3739 55.8955 66.957C55.574 67.4202 54.8898 67.4203 54.5684 66.957H54.5674C51.386 62.383 47.8885 57.4569 45.1846 52.6953C42.4783 47.9297 40.5821 43.3534 40.582 39.4775C40.582 31.405 47.1448 24.8518 55.2314 24.8516ZM55.2314 30.3115C50.2451 30.3117 46.2042 34.3464 46.2041 39.3252C46.2041 44.3041 50.245 48.3387 55.2314 48.3389C60.218 48.3389 64.2598 44.3042 64.2598 39.3252C64.2596 34.3463 60.2179 30.3115 55.2314 30.3115Z" fill="#F3AFCD" stroke="#363434" stroke-width="0.297619"/>
<path d="M55.083 30.3145C50.1652 30.3938 46.2042 34.3959 46.2041 39.3252C46.2041 44.2546 50.1651 48.2556 55.083 48.335V67.2891C54.8841 67.2522 54.6973 67.1428 54.5684 66.957H54.5674C51.386 62.383 47.8885 57.4569 45.1846 52.6953C42.4783 47.9297 40.5821 43.3534 40.582 39.4775C40.582 31.4545 47.0646 24.9323 55.083 24.8525V30.3145Z" fill="#FFD8E9" stroke="#363434" stroke-width="0.297619"/>
<path d="M57.7129 28.1172C62.2869 28.1172 67.1299 33.2293 67.1299 38.6105" stroke="white" stroke-opacity="0.6" stroke-width="2.14286" stroke-linecap="round"/>
</svg>
