<svg width="100" height="100" viewBox="0 0 100 100" fill="none" xmlns="http://www.w3.org/2000/svg">
<path d="M93.8274 55.1005L77.3323 55.1005H62.6479C62.0118 55.1005 61.4961 54.5848 61.4961 53.9487C61.4961 53.3126 62.0118 52.7969 62.6479 52.7969H63.6671C64.6045 52.7969 65.3645 52.037 65.3645 51.0995C65.3645 50.1621 66.1244 49.4022 67.0618 49.4022H67.4752C68.3792 49.4022 69.112 48.6694 69.112 47.7654C69.112 46.8615 69.8448 46.1287 70.7487 46.1287H71.0524C72.0705 46.1287 72.9155 45.3417 72.9878 44.3262L73.0699 43.1744C73.0907 42.8825 73.1485 42.593 73.2962 42.3403C73.6884 41.6694 74.7332 40.3711 76.9696 40.3095C79.9918 40.2262 81.1301 41.2399 81.8051 42.492C81.9057 42.6787 81.9818 42.8906 82.0383 43.1161C82.4218 44.647 83.4995 46.1287 85.0778 46.1287H85.9709C86.8749 46.1287 87.6076 46.8615 87.6076 47.7654V47.8027C87.6076 48.6861 88.3238 49.4022 89.2071 49.4022C90.0684 49.4022 90.775 50.0841 90.8056 50.9448L90.8111 51.0995C90.8449 52.0466 91.6225 52.7969 92.5702 52.7969H93.0476H93.8275C94.4636 52.7969 94.9792 53.3126 94.9792 53.9487C94.9792 54.5848 94.4636 55.1005 93.8274 55.1005Z" fill="#F8E8EE" stroke="#363434"/>
<path d="M88.3935 53.4224H77.4427H68.4088C68.0277 53.4224 67.7188 53.1134 67.7188 52.7324C67.7188 52.3513 68.0277 52.0424 68.4088 52.0424H69.0772C69.6388 52.0424 70.0941 51.5871 70.0941 51.0255C70.0941 50.4639 70.5493 50.0087 71.1109 50.0087H71.4146C71.9562 50.0087 72.3952 49.5697 72.3952 49.0281C72.3952 48.4866 72.8342 48.0476 73.3757 48.0476H73.5876C74.2125 48.0476 74.7315 47.5652 74.777 46.9419L74.825 46.2834C74.8381 46.1048 74.8743 45.9278 74.9666 45.7744C75.2091 45.3714 75.851 44.5983 77.22 44.5615C79.0757 44.5116 79.7747 45.1189 80.1892 45.8689C80.2438 45.9678 80.2866 46.0784 80.3197 46.1959C80.5828 47.1291 81.233 48.0476 82.2025 48.0476H82.7716C83.3131 48.0476 83.7521 48.4866 83.7521 49.0281C83.7521 49.5697 84.1911 50.0087 84.7327 50.0087H84.898C85.3585 50.0087 85.7596 50.3228 85.8699 50.7699L85.8994 50.8892C85.9924 51.2662 86.3307 51.5312 86.719 51.5312C87.0818 51.5312 87.404 51.7629 87.5194 52.1068L87.5514 52.202C87.6376 52.4588 87.8654 52.642 88.1348 52.6709L88.4321 52.7029C88.6154 52.7226 88.7543 52.8773 88.7543 53.0616C88.7543 53.2608 88.5928 53.4224 88.3935 53.4224Z" fill="#F4D0DE"/>
<path d="M56.5024 75.0179C61.3945 75.6012 64.6163 76.5955 64.6163 77.724C64.6163 79.5203 56.4536 80.9766 46.3843 80.9766C36.3151 80.9766 28.1523 79.5203 28.1523 77.724C28.1523 76.5784 31.4722 75.5711 36.4893 74.9917" stroke="#333333" stroke-linecap="round" stroke-linejoin="round"/>
<path d="M43.2827 26.9557C32.8381 27.718 24.9891 36.803 25.7514 47.2475C26.8106 61.7607 46.9835 77.6614 46.9835 77.6614C46.9835 77.6614 53.4273 70.9496 58.3143 62.2L56.8374 58.9467L53.4842 58.9467L52.8255 56.3519L50.4503 55.1544C49.5322 55.8929 47.4379 56.4404 45.4459 56.5858C39.5272 57.0177 34.3789 52.5699 33.9469 46.6511C33.5149 40.7324 37.9628 35.5841 43.8815 35.1521C45.3806 35.0427 46.8303 35.2464 48.1664 35.7076L50.8176 34.3103L49.9163 32.178L52.5007 31.5576L51.1162 28.0322C48.6836 27.1505 46.0302 26.7551 43.2827 26.9557Z" fill="#FBE277" stroke="#333333" stroke-linejoin="round"/>
<path d="M29.0332 44.8037C29.0332 36.369 35.8709 29.5312 44.3057 29.5312" stroke="white" stroke-width="2" stroke-linecap="round"/>
<path opacity="0.5" d="M34.7546 50.1334H26.2512L25.7266 47.3789H33.9677L34.7546 50.1334Z" fill="#333333"/>
<path d="M52.1469 53.9154C54.564 52.4983 56.0562 49.2684 55.9519 45.3326C55.8781 42.5499 54.7528 40.0424 52.9663 38.1804L55.8675 37.7706L56.0478 35.4472L59.5106 36.8073L60.9349 35.0156C62.8871 37.9058 64.0657 41.3682 64.1649 45.1131C64.3146 50.7579 61.621 56.8961 58.2683 62.2948L56.9062 58.6358L54.2825 58.3664L54.2825 55.612L52.1469 53.9154Z" fill="#FBE277" stroke="#333333" stroke-linejoin="round"/>
<path d="M60.0376 29.8278C59.3103 28.9331 56.4711 27.1508 55.4258 26.7461L55.0045 31.7031L57.7087 32.0539L60.0376 29.8278Z" fill="#FBE277" stroke="#333333" stroke-linejoin="round"/>
<path d="M36.7723 47.2163L20.0521 47.2163H5.16749C4.5227 47.2163 4 46.6936 4 46.0488C4 45.404 4.5227 44.8813 5.16749 44.8813H6.20062C7.15084 44.8813 7.92113 44.111 7.92113 43.1608C7.92113 42.2106 8.69143 41.4403 9.64165 41.4403H10.0607C10.9769 41.4403 11.7197 40.6975 11.7197 39.7812C11.7197 38.865 12.4625 38.1222 13.3788 38.1222H13.6866C14.7186 38.1222 15.5752 37.3245 15.6485 36.2951L15.7316 35.1276C15.7527 34.8317 15.8114 34.5383 15.9611 34.2822C16.3586 33.602 17.4177 32.2861 19.6845 32.2236C22.7479 32.1392 23.9018 33.1668 24.586 34.4359C24.688 34.6251 24.7651 34.84 24.8223 35.0685C25.2111 36.6203 26.3035 38.1222 27.9033 38.1222H28.8086C29.7249 38.1222 30.4677 38.865 30.4677 39.7812V39.819C30.4677 40.7144 31.1935 41.4403 32.089 41.4403C32.9619 41.4403 33.6782 42.1315 33.7093 43.0039L33.7149 43.1608C33.749 44.1208 34.5373 44.8813 35.4978 44.8813H35.9818H36.7723C37.4171 44.8813 37.9398 45.404 37.9398 46.0488C37.9398 46.6936 37.4171 47.2163 36.7723 47.2163Z" fill="#F8E8EE" stroke="#363434"/>
<path d="M32.4066 45.7651H20.0864H9.92277C9.49404 45.7651 9.14648 45.4176 9.14648 44.9889C9.14648 44.5601 9.49404 44.2126 9.92277 44.2126H10.6748C11.3066 44.2126 11.8188 43.7004 11.8188 43.0686C11.8188 42.4367 12.331 41.9246 12.9628 41.9246H13.3045C13.9138 41.9246 14.4077 41.4307 14.4077 40.8214C14.4077 40.2122 14.9016 39.7183 15.5108 39.7183H15.7493C16.4523 39.7183 17.0361 39.1755 17.0873 38.4744L17.1414 37.7335C17.1561 37.5325 17.1968 37.3334 17.3007 37.1608C17.5735 36.7074 18.2956 35.8376 19.8359 35.7962C21.9236 35.7401 22.71 36.4233 23.1763 37.2672C23.2377 37.3784 23.2859 37.5028 23.3232 37.6351C23.6192 38.6849 24.3506 39.7183 25.4414 39.7183H26.0817C26.6909 39.7183 27.1848 40.2122 27.1848 40.8214C27.1848 41.4307 27.6787 41.9246 28.2879 41.9246H28.4739C28.992 41.9246 29.4433 42.278 29.5674 42.781L29.6005 42.9152C29.7052 43.3394 30.0858 43.6375 30.5227 43.6375C30.9308 43.6375 31.2933 43.8982 31.4232 44.2851L31.4591 44.3921C31.5561 44.6811 31.8125 44.8872 32.1155 44.9197L32.45 44.9557C32.6562 44.9778 32.8125 45.1519 32.8125 45.3592C32.8125 45.5834 32.6308 45.7651 32.4066 45.7651Z" fill="#F4D0DE"/>
<path d="M52.9396 20.1523L51.6522 22.2583L53.1808 23.4567L52.5054 25.1692L53.3639 26.5897" stroke="#333333" stroke-linecap="round"/>
<path d="M66.5673 31.728L64.3278 30.6901L63.3123 32.3459L61.5337 31.8709L60.2207 32.8863" stroke="#333333" stroke-linecap="round"/>
</svg>
