<svg width="121" height="121" viewBox="0 0 121 121" fill="none" xmlns="http://www.w3.org/2000/svg">
<g clip-path="url(#clip0_91055_28723)">
<path d="M41.2544 5.7044C41.3946 5.34835 40.9794 3.4115 41.3193 2.81323C41.6931 2.54057 41.5172 2.60509 41.9883 2.57812L42.0411 2.69774L41.5607 2.81573C41.3363 3.4673 41.2192 5.55347 42.2421 5.66428C43.2379 5.77216 44.2143 5.68305 45.2396 5.75538C45.2451 6.98181 45.2719 8.20805 45.3197 9.43355C46.2241 9.41218 47.1288 9.4102 48.0332 9.42763C48.0498 8.18059 48.0741 6.93365 48.1061 5.6869C49.4272 5.67108 50.5163 5.67336 51.8412 5.74494C51.8416 7.3292 51.78 18.0821 52.0295 18.6604C52.6306 18.9973 53.864 18.8577 54.6197 18.9595C54.6774 20.2053 54.6838 21.3726 54.6856 22.6174C55.9317 22.6009 57.178 22.6093 58.4237 22.6424L58.4549 22.7184C58.4683 23.6097 58.4952 24.5006 58.5361 25.3911C59.4148 25.4156 60.4357 25.4693 61.3032 25.4579C61.2681 24.5222 61.2295 23.6997 61.328 22.766L61.406 22.6242C61.7723 22.7011 64.4394 22.6507 65.0336 22.6506L65.0856 18.9266L65.2705 18.8668C66.188 18.8709 66.9054 18.86 67.8123 18.9918C67.9399 21.0663 67.6841 30.9423 68.0729 31.8481C68.6857 32.2098 70.874 32.0533 71.6851 32.033C71.6347 31.0747 71.603 30.2489 71.6838 29.2892C73.8027 29.1788 76.1973 29.2251 78.3398 29.2127C78.1224 26.9835 78.2558 22.3226 78.2681 19.9269C79.0509 19.3861 80.2405 20.1332 81.0836 19.6283C81.0771 20.6326 81.0636 21.6191 81.1139 22.6235C82.0126 22.6358 82.9812 22.6667 83.8736 22.6429L83.9145 22.7256C83.8942 23.4557 83.7383 24.7656 84.1599 25.2752C85.2268 25.6464 88.9097 25.3613 90.4808 25.5382C90.4855 26.7737 90.3328 30.9457 90.7578 31.8503C91.3069 32.3109 93.1569 32.0166 94.1979 32.1225L94.2739 32.2023L94.2751 35.8227C93.6253 35.8262 90.9428 35.773 90.4954 35.8913L90.4714 35.8374C90.4948 34.5918 90.5105 33.3462 90.5185 32.1006L87.6475 32.0419C87.677 31.1952 87.6856 30.0946 87.7697 29.2708L83.8814 29.2116C83.8816 27.9732 83.8971 26.7348 83.928 25.4966C82.9467 25.4824 82.0516 25.4686 81.0741 25.3917C81.073 26.5449 81.0304 28.1209 81.0844 29.2433C80.1371 29.2425 79.2389 29.2423 78.2931 29.1922C78.2231 30.3952 78.1811 34.6462 78.3238 35.8265C77.0326 35.8469 75.741 35.8415 74.4499 35.8101L74.5074 32.116L71.7057 32.0168C71.6414 33.077 71.4806 37.6885 71.8712 38.449C72.5716 38.7984 79.7332 38.6745 81.0597 38.6736L81.0994 35.9038C82.1375 35.8648 82.8512 35.858 83.8854 35.9202L83.9086 45.2648C84.8568 45.2483 86.7512 45.1106 87.5378 45.4978C87.6596 45.7147 87.6761 45.726 87.6735 45.9671C87.2345 45.8303 87.2484 45.7601 86.8621 45.8522C86.6131 46.4769 86.7804 46.8965 86.9719 47.5343C87.1689 47.6835 87.0775 47.6459 87.3637 47.6329L87.5432 47.4247L87.6037 47.4212C88.155 48.5505 89.0654 47.9877 90.2528 48.2892C89.6776 48.7082 88.3395 48.5963 87.7515 48.1595C86.4546 48.0378 85.1378 48.148 83.8953 48.0199C83.9 49.2179 83.8702 50.6964 83.9226 51.8729C82.9932 51.8565 82.0638 51.8482 81.1343 51.8483C80.9815 49.6682 81.0079 43.775 81.1253 41.5182C79.2819 41.4936 76.1599 41.5874 74.4684 41.4118C74.4716 42.5035 74.3388 47.1373 74.7002 47.9051C75.2168 48.2558 77.3827 48.115 78.2087 48.161C78.231 51.9592 77.505 51.7186 81.1067 51.9018C81.0691 52.9264 81.0709 53.645 81.1273 54.6679C83.0963 54.5906 85.7077 54.5968 87.6701 54.7387L87.7435 61.2488C88.6638 61.2569 89.579 61.2412 90.4876 61.3899C90.483 65.9399 90.1506 64.8984 94.2705 65.0763C94.2735 64.1997 94.3115 63.0506 94.2689 62.1962L94.4794 62.0795C94.9215 62.1928 96.1611 62.457 96.5456 62.2418C96.6872 61.9716 96.7727 61.8295 96.9979 61.6228C97.1402 62.8151 97.0737 63.8923 97.114 65.0691C98.4506 64.9969 99.5074 65.013 100.841 65.0453C100.857 63.9254 100.835 62.366 100.915 61.2852C103.018 61.2651 105.38 61.2088 107.464 61.33C107.469 62.4573 107.367 66.9548 107.732 67.7119C108.41 68.1299 109.216 67.7197 110.055 68.1077C109.98 68.3472 110.022 68.3461 109.862 68.4863L109.628 68.4661C109.821 68.5263 109.731 68.4762 109.878 68.6585C109.063 69.0401 108.455 68.4271 107.819 68.679C107.56 69.4632 107.898 70.6236 107.542 71.0539C107.428 70.1318 107.488 68.8746 107.514 67.9206C105.48 67.9002 102.798 68.0084 100.86 67.8267C100.878 69.1029 100.878 70.3794 100.859 71.6557C103.037 71.6165 105.216 71.6184 107.394 71.6614L107.475 71.7222C107.495 72.6057 107.501 73.5356 107.59 74.4104C108.434 74.4365 109.394 74.4893 110.228 74.4855L110.312 74.5523C110.313 75.6469 110.27 77.1825 110.365 78.2403C109.191 78.2867 108.633 78.2933 107.485 78.1981C107.484 79.0065 107.445 80.3246 107.513 81.0913C104.174 81.1307 100.333 81.1555 97.0118 81.0398L97.132 78.3354L97.2398 78.2511C97.9755 78.3554 102.536 78.2643 103.697 78.2777C103.65 77.2138 103.709 75.6347 103.72 74.5356C101.773 74.4179 99.2065 74.491 97.1938 74.4794L97.1133 74.4407C97.0359 72.4737 97.0628 69.9303 97.1192 67.9425C94.8956 67.8838 92.6711 67.8607 90.4467 67.8731C90.4738 66.9739 90.4853 66.0045 90.5428 65.1126C89.6499 65.0976 88.5825 65.097 87.6981 65.0025C87.6968 67.5609 87.5556 72.0844 87.7423 74.4861C86.3992 74.5976 85.2568 74.5647 83.9119 74.4315C83.9063 75.2297 83.832 77.58 84.0349 78.2342L83.9346 78.4022C82.9098 78.1738 79.5443 78.2827 78.2709 78.2244C78.2469 80.8606 78.2459 83.4969 78.2677 86.1331C78.2719 87.2612 78.2205 89.4843 78.331 90.5316C72.8316 90.5668 66.7053 90.6029 61.2238 90.5096C61.3116 88.3174 61.2059 86.1404 61.299 83.9687C60.4033 83.9404 59.338 83.9331 58.4584 83.8601C58.4591 85.0865 58.4271 86.4752 58.5365 87.6835C57.2527 87.703 55.9925 87.651 54.7453 87.6668L54.682 87.6473C54.5953 85.639 54.6709 83.1737 54.6924 81.1343C53.745 81.1089 52.7977 81.0733 51.851 81.0278C51.8491 81.9904 51.8701 82.9527 51.9141 83.9141C50.7751 83.9733 49.3328 83.9077 48.163 83.8994L48.1009 83.8735C47.9703 81.4453 48.012 76.9454 48.1362 74.4962C49.3759 74.4641 50.5898 74.5121 51.8279 74.5514L51.8939 78.2546C52.7562 78.2186 53.7744 78.2483 54.649 78.2528C54.6803 76.0495 54.6547 73.8625 54.7186 71.6563C56.6842 71.6306 59.3349 71.5742 61.2539 71.7712C61.2781 72.6749 61.2949 73.5788 61.3041 74.4827C60.2606 74.5134 59.4766 74.5229 58.4437 74.3753L58.4884 81.06L61.2351 81.0593L61.3149 78.2709C62.6422 78.2467 63.7153 78.2685 65.0376 78.3288L65.0786 81.0884C65.983 81.0668 66.9411 81.0812 67.8502 81.0795C67.8366 80.1821 67.8763 79.1725 67.8913 78.2663C71.3565 78.2375 74.8218 78.2312 78.2871 78.2476C78.1984 77.2138 78.2294 75.5105 78.3204 74.4855C79.1859 74.4645 80.1624 74.4934 81.0371 74.4991C81.0302 72.3236 81.0438 70.148 81.0777 67.9728L81.2707 67.873C82.1361 67.8836 83.0015 67.882 83.8667 67.8679C83.8613 65.7033 83.8724 63.5386 83.8997 61.3741C82.9684 61.3798 81.9809 61.3346 81.0456 61.3071C81.0091 60.3955 81.0581 59.4551 81.0918 58.5411C78.2966 58.3589 74.6167 58.4702 71.7468 58.4574L71.6546 58.4182C71.6236 56.5423 71.5974 53.7688 71.7001 51.9096C72.6298 51.9129 73.5594 51.9007 74.4887 51.8729C74.4641 50.628 74.4698 49.3828 74.5057 48.1383C73.5509 48.0993 72.5956 48.0763 71.6401 48.0692C71.6597 47.1834 71.6591 46.1864 71.7119 45.3111C69.4691 45.2575 67.2258 45.2317 64.9824 45.2336C65.0317 44.1221 65.0174 42.5769 65.1007 41.5238C67.2624 41.4869 69.4245 41.4757 71.5864 41.4903C71.6198 40.5695 71.6642 39.6287 71.6618 38.7092C69.4287 38.6602 67.1787 38.6789 64.959 38.6195C65.0082 37.7047 65.0443 36.7891 65.0674 35.8733L61.3283 35.8034C61.1995 37.6137 61.3015 39.7548 61.3016 41.5946C61.3016 42.5269 61.2687 44.4381 61.3627 45.2982C60.2855 45.3109 59.5281 45.3049 58.4593 45.211C58.454 45.8032 58.2975 47.4372 58.6905 47.8565C59.1081 48.3019 66.5206 48.0703 67.8662 48.1576C67.8716 49.9129 67.7811 53.0571 67.9176 54.7005C66.9729 54.6995 66.0283 54.6857 65.0839 54.6593C65.0486 56.7552 65.0505 58.8515 65.0897 60.9473L64.9276 61.3234C63.7921 61.318 62.3966 61.3466 61.2856 61.2491C61.2966 62.9442 61.1992 66.344 61.3471 67.8839C58.5691 68.0389 54.61 67.8904 51.745 67.8622C51.7846 67.2147 51.9641 65.5402 51.7194 65.0572L51.9095 64.82C52.2894 65.2509 54.0503 65.0764 54.6587 65.0592C54.6095 63.9092 54.675 62.4697 54.6973 61.2995C55.8919 61.2494 57.19 61.2727 58.393 61.2718C58.4769 59.2017 58.442 56.8113 58.4651 54.7149C57.5086 54.7015 52.4857 54.5717 51.8559 54.763L51.8299 54.6918C51.8884 54.0172 51.8553 52.6536 51.8615 51.9249C49.7819 51.7858 47.5009 51.9681 45.2392 51.8064C45.2409 52.5042 45.1512 54.1236 45.4523 54.6685L45.2651 54.8111C43.8291 54.5383 40.4066 54.7824 38.6523 54.6306C38.6535 55.6974 38.5058 60.3741 38.8961 61.113C39.4526 61.4062 40.7147 61.3256 41.4326 61.3963C41.4592 62.5992 41.4922 63.802 41.5317 65.0045C42.1545 65.0018 44.8209 65.0822 45.2711 65.0364L45.3312 65.0505C45.1917 65.6888 45.2952 67.1689 45.3377 67.8642C46.3533 67.8584 47.0652 67.8781 48.0753 67.9664C48.0833 69.0606 48.0522 70.5907 48.116 71.6495C46.2217 71.6769 43.2511 71.7958 41.4541 71.605C41.4642 72.5589 41.4627 73.5372 41.5082 74.488C40.5409 74.4801 39.5735 74.4793 38.6062 74.4855C38.6949 72.2964 38.5862 70.1338 38.6581 67.9564L35.8808 67.8474C35.7908 69.6465 35.8797 71.3795 35.8884 73.1742C35.8965 74.8707 35.8261 76.5535 35.8678 78.2535C36.8762 78.2562 37.6078 78.2531 38.6021 78.3812C38.6163 79.2758 38.645 80.1701 38.688 81.0639C36.8224 81.0862 33.8102 81.1987 32.0383 81.028C32.0437 81.9634 32.0347 82.9816 32.0888 83.9137C29.0097 83.9243 25.7828 83.9402 22.7092 83.8751L22.652 83.8289C22.6137 82.8777 22.6175 82.0497 22.6367 81.097L18.8224 81.0433L18.8815 78.3028C18.0371 78.2949 16.8421 78.3167 16.0333 78.2172C16.0551 79.8482 15.9734 82.3974 16.1243 83.907C14.8231 83.9192 13.5219 83.9224 12.2206 83.9164L12.2839 81.1323C11.3818 81.1023 10.316 81.0859 9.42196 81.0062C9.42917 81.9656 9.4189 82.9803 9.44594 83.9341C7.27796 83.9249 5.03187 83.9441 2.87144 83.8655C2.8425 84.6384 2.67571 86.8796 2.98325 87.4727C3.77189 87.8069 7.97012 87.5922 9.41636 87.7613C9.45131 89.5807 9.33876 92.6839 9.4623 94.2917C7.02923 94.3238 2.15505 94.13 0 94.3539V90.4441C0.906813 90.4934 1.86174 90.4902 2.77357 90.5007L2.85834 87.7481C1.85319 87.6949 1.0007 87.6854 0 87.7502V83.8189C1.07024 83.9182 1.80764 83.915 2.88822 83.8965C2.81003 82.9353 2.82535 82.1379 2.84049 81.1713C3.6875 81.0835 4.76916 81.1065 5.63954 81.1025C5.63261 80.2017 5.66812 79.2296 5.68394 78.323C4.2187 78.2164 1.44486 78.2368 0 78.3558V74.3831C1.00889 74.4633 1.78738 74.4727 2.80222 74.4663C2.91987 72.3433 2.78285 70.1019 2.8916 67.9233C3.97116 67.8903 4.5604 67.9134 5.6367 68.0156C5.65259 69.5914 5.5282 77.1255 5.87713 78.0397C6.46078 78.3961 11.2893 78.2375 12.2241 78.2388C12.3059 74.863 12.2286 71.3317 12.2708 67.9206L9.3806 67.8642C9.56609 65.8409 9.35709 63.4801 9.49621 61.3572C10.2049 61.2769 11.4451 61.2952 12.196 61.2858C12.2153 60.9747 12.2324 60.6635 12.247 60.3522C12.2763 59.7209 12.4087 58.9034 12.0146 58.4719C12.0728 58.2915 12.1183 58.1379 12.1664 57.9545C12.4456 58.4023 12.6934 58.4633 13.2043 58.468C14.1374 58.4768 15.0797 58.4576 16.013 58.4535L16.0926 54.7934C16.9046 54.7158 17.9994 54.7149 18.8383 54.6887L18.858 54.7448L18.8543 58.4576C20.1725 58.4581 21.2878 58.4724 22.6084 58.5554C22.5983 59.3339 22.4495 60.5094 22.9211 61.0787C23.5372 61.4566 24.6124 61.2982 25.3788 61.2686C25.3576 58.1327 25.3877 54.9965 25.469 51.8614C26.5792 51.7971 28.0063 51.8138 29.147 51.7991C29.1501 50.6245 29.2054 49.3381 29.2351 48.1559C27.979 48.0868 26.6638 48.091 25.4018 48.076C25.4258 47.1581 25.4601 46.2404 25.5044 45.3231C24.8193 45.2702 23.2442 45.1604 22.6408 45.3237L22.5837 45.2445C22.734 44.5423 22.6237 42.502 22.7172 41.5253C20.5019 41.4833 18.2864 41.4612 16.0706 41.4592C16.015 42.814 16.0247 43.8778 16.065 45.2288C15.2816 45.2488 12.7758 45.1671 12.2779 45.332L12.2635 45.2707C12.3214 44.2602 12.2794 42.6026 12.2977 41.5165C13.4897 41.4707 14.8465 41.5277 16.0838 41.4987C16.0152 40.5332 16.0287 39.7076 16.0434 38.7377C19.0166 38.5712 22.3802 38.7017 25.4152 38.6476L25.4731 38.7206C25.4641 39.8334 25.2957 44.5017 25.6887 45.1178C26.4967 45.4297 28.2589 45.2356 29.1976 45.2495C29.2113 44.0951 29.1899 42.5899 29.2565 41.4654C31.3495 41.4651 33.792 41.5339 35.8461 41.4764C35.8053 40.5438 35.8111 39.6888 35.8224 38.7546L36.0002 38.6953C37.5523 38.7558 39.7913 38.6676 41.4004 38.6545L41.4871 35.9296C39.7435 35.8315 37.6702 35.8257 35.9124 35.826L35.8463 35.8019C35.8247 34.9094 35.58 33.0442 35.975 32.4175C36.6425 31.8715 37.6457 32.0447 38.5436 32.0649C38.5923 31.1546 38.6347 30.2441 38.671 29.3333C37.7131 29.3172 36.6585 29.2432 35.694 29.1954C35.8893 27.2564 35.6474 24.8343 35.9008 23.0775C36.1135 22.7412 36.054 22.842 36.5462 22.7137C37.1191 22.5917 38.013 22.6272 38.622 22.628L38.6972 18.8929L35.9138 18.836L35.8476 18.7751C35.7823 18.0692 35.8252 16.8277 35.8305 16.0811C34.891 16.0016 33.0345 16.0392 32.0254 16.0322C32.1152 14.4103 32.0462 11.4567 32.0157 9.72082C31.943 9.61253 31.8814 9.52062 31.8307 9.4451C31.8932 9.23973 31.6748 7.45859 31.7783 6.70915L32.0099 6.62106C32.0962 7.40871 31.8543 8.50696 32.2429 9.23309C32.8549 9.55521 40.1661 9.40897 41.4323 9.41761C41.4527 8.86164 41.4698 8.30557 41.4834 7.74939C41.4976 7.13445 41.636 6.1037 41.2544 5.7044ZM48.114 22.6327L45.2767 22.6245C45.2653 23.4567 45.216 24.6546 45.2757 25.4559C43.9969 25.4704 42.7734 25.4972 41.4947 25.4116C41.5025 26.5889 41.475 28.0155 41.5239 29.1731C42.7301 29.1719 43.9878 29.154 45.1895 29.173L48.0484 29.234C48.0679 28.159 48.0516 26.4909 48.1342 25.4655L51.8791 25.4708C51.809 23.7931 51.8047 20.5971 51.9039 18.9182C50.7237 18.8932 49.2127 18.9033 48.0603 18.8006C48.0701 19.9203 48.04 21.5538 48.114 22.6327ZM32.1393 61.3084C31.0878 61.3839 30.3189 61.3995 29.2648 61.2369C29.2569 61.6208 29.2756 62.4781 29.23 62.8388C28.8859 65.5546 30.1538 64.8953 32.0514 65.222L32.0762 67.8644C33.2464 67.8524 34.4168 67.8612 35.5867 67.8907C36.9436 66.9535 33.3756 64.9508 38.6262 65.0665L38.6883 61.334C37.7137 61.3061 36.739 61.285 35.7642 61.2707L35.8719 58.5267C34.7358 58.5397 33.2384 58.6044 32.1446 58.4354C32.0662 59.1205 32.0687 60.6186 32.1393 61.3084ZM25.4919 71.6353C24.5491 71.6463 23.6062 71.6396 22.6637 71.6152C22.6345 72.2448 22.4591 73.9028 22.8305 74.3156C23.7726 74.644 28.1879 74.4372 29.4881 74.4452L31.9898 74.4687C32.0276 73.5593 32.0579 72.6498 32.0805 71.74L29.1514 71.6127C29.3186 69.4325 29.1393 67.2116 29.2795 65.1011C28.0763 65.0893 26.6346 65.1111 25.4532 65.0126C25.4579 66.9455 25.3741 69.776 25.4919 71.6353ZM35.8526 51.8104C37.7248 51.8182 39.5968 51.8423 41.4685 51.8829L41.4803 49.4052C41.484 48.7801 41.5814 48.7473 41.3109 48.2795C40.6332 47.8415 39.5567 48.0924 38.6358 48.074L38.7284 45.3646C39.6486 45.3223 40.5692 45.2925 41.4902 45.2752C41.4584 44.0331 41.4584 42.7904 41.4902 41.5483C39.6096 41.4793 37.7058 41.5263 35.8569 41.4458C35.8015 44.5983 36.0432 48.8014 35.8526 51.8104ZM22.6248 65.0755L22.6297 61.3275C20.4713 61.2415 18.1232 61.3713 16.0265 61.2352C16.0225 62.1095 15.9463 64.0556 16.1302 64.7822C16.6522 65.2865 21.5272 65.0568 22.6248 65.0755ZM65.0379 87.697L71.642 87.69C71.6344 86.4432 71.6347 85.1963 71.6432 83.9494C69.7489 83.9186 66.8129 84.013 65.0715 83.859L65.0379 87.697ZM16.0734 71.6102C18.1193 71.6114 20.7077 71.7365 22.6627 71.6491C22.6444 70.3787 22.6259 69.1949 22.6815 67.9226C20.695 67.8817 18.0832 67.8059 16.0939 67.8731C16.0007 69.0825 16.0219 70.3933 16.0734 71.6102ZM41.5194 22.6297C42.7788 22.6538 44.0386 22.6592 45.2983 22.6457C45.223 20.5178 45.2488 18.2232 45.2557 16.083C43.9132 16.0984 42.8479 16.0954 41.4961 15.9931C41.4963 18.1444 41.4499 20.4941 41.5194 22.6297ZM48.1092 35.7801C50.269 35.7991 52.4823 35.8478 54.6351 35.8442C54.7295 34.7812 54.6866 33.2099 54.6886 32.1088C52.5857 32.0419 50.0813 32.1728 48.0939 32.011C48.1066 33.1115 48.1746 34.7185 48.1092 35.7801ZM58.3972 38.639C58.4447 37.7231 58.471 36.8062 58.4758 35.8891C57.4962 35.8665 55.6121 35.7722 54.7051 35.828C54.5248 39.5799 55.2085 38.5599 58.3972 38.639ZM61.2722 51.8124C61.2861 52.7234 61.2838 53.697 61.3327 54.6014C61.9107 54.6145 64.6676 54.7092 65.0817 54.6486C65.0559 53.6229 65.0552 52.9245 65.1327 51.905C63.8456 51.8873 62.5586 51.8565 61.2722 51.8124ZM38.6665 12.3206L35.8199 12.2295C35.8219 13.1929 35.5954 15.2899 36.0969 15.8192C36.9705 16.2781 37.6256 16.029 38.6143 16.0382C38.6238 14.7988 38.6412 13.5596 38.6665 12.3206ZM51.8764 29.2523C52.7973 29.2479 53.7181 29.2257 54.6383 29.1853C54.6175 27.9787 54.6637 26.752 54.6961 25.5442C53.9231 25.5109 52.6232 25.4146 51.8904 25.4407C51.8482 26.7108 51.8435 27.9819 51.8764 29.2523ZM18.9136 74.4443C18.7262 78.6544 18.4348 78.3506 22.6254 78.2564C22.6078 77.0086 22.6115 75.7606 22.6363 74.5128C21.3952 74.4998 20.1543 74.4769 18.9136 74.4443ZM48.0608 16.0319L48.094 12.3136L45.3118 12.2253C45.2866 12.9563 45.0427 15.2803 45.4418 15.698C45.9737 16.2548 47.3269 16.0285 48.0608 16.0319ZM45.1371 48.0437C45.1861 47.1485 45.2523 46.2111 45.2519 45.3187C44.3211 45.299 42.3469 45.2066 41.4973 45.2616C41.3124 48.8252 41.9599 48.1414 45.1371 48.0437ZM77.2812 48.7208C77.7011 49.9093 77.1331 50.8252 77.7198 51.3465L78.0352 51.3523C77.9565 50.5935 78.3603 48.6081 77.2812 48.7208ZM74.4954 81.131C73.5416 81.1069 72.5882 81.0726 71.6352 81.0281C71.6081 83.8776 71.3754 84.1398 74.4251 83.844L74.4954 81.131ZM54.5656 41.3766L54.6997 38.7145C53.775 38.6855 52.8142 38.6618 51.892 38.6007C51.8777 39.5876 51.896 40.4305 51.9416 41.4169C52.8038 41.4095 53.708 41.415 54.5656 41.3766ZM58.4566 48.1361C56.7236 48.1511 53.4881 48.2605 51.888 48.0474C51.872 48.7208 51.6996 51.2846 52.0564 51.683C52.7873 51.9066 57.7903 51.9737 58.4318 51.8179L58.4566 48.1361ZM67.8996 32.1039C67.0831 32.0844 65.8349 32.09 65.0559 32.0042C65.0533 32.9326 64.837 35.0357 65.2648 35.5808C66.0273 36.067 66.8919 35.8817 67.8296 35.8329C67.9028 34.5736 67.8581 33.3513 67.8996 32.1039ZM45.3033 41.4581C45.271 42.4238 44.9977 44.3469 45.4854 44.9622C46.2291 45.4555 47.0806 45.2651 48.0037 45.2104C48.0135 44.0019 48.0378 42.7935 48.0766 41.5856C47.231 41.5635 46.1194 41.5642 45.3033 41.4581ZM65.032 29.2538L65.0791 25.4961C63.8988 25.4799 62.4891 25.4253 61.3261 25.4495C61.2852 26.3788 61.0534 28.2124 61.5257 28.9112C62.1719 29.4322 64.041 29.2017 65.032 29.2538ZM12.2379 65.0122C12.191 68.4734 12.6897 68.1497 16.0732 67.8398C16.014 66.878 16.0204 66.0818 16.0373 65.1163C14.7985 65.0861 13.4681 65.0788 12.2379 65.0122ZM74.4984 51.8441C74.4738 52.8224 74.458 53.719 74.4849 54.6965C75.7257 54.6533 76.9677 54.6486 78.2088 54.682C78.2285 53.7547 78.2589 52.8277 78.3 51.901C77.2019 51.8773 75.5496 51.7931 74.4984 51.8441ZM61.2946 35.8187C61.2625 33.7588 61.204 31.3281 61.2978 29.2823C60.4716 29.2684 59.2888 29.2808 58.4955 29.1957C58.4832 30.3155 58.2618 35.1468 58.7756 35.7496C59.4083 35.9406 60.5741 35.8306 61.2946 35.8187ZM22.6782 78.2474C22.6343 79.0003 22.4625 80.2493 22.8355 80.8832C23.5334 81.2842 28.019 81.0558 29.2108 81.1153L29.2466 78.3176C27.6475 78.2437 24.2688 78.1584 22.6782 78.2474Z" fill="white"/>
<path d="M77.2812 48.7155C78.3604 48.6029 77.9566 50.5883 78.0353 51.347L77.7198 51.3412C77.1331 50.8199 77.7011 49.904 77.2812 48.7155Z" fill="white"/>
<path d="M120.663 78.1641V90.6077C119.387 90.6195 118.162 90.6463 116.894 90.4425C116.884 91.3924 116.667 93.5227 117.226 94.0935C117.967 94.5096 119.724 94.2432 120.663 94.1802V100.944C118.694 100.902 115.899 100.98 114.053 100.823C114.061 101.632 114.035 102.937 114.106 103.705C112.806 103.725 111.644 103.733 110.341 103.683C110.291 105.163 110.316 106.661 110.348 108.141C110.411 111.045 110.211 114.009 110.316 116.905L107.429 116.898C107.457 116.006 107.468 115.028 107.522 114.144C106.252 114.127 104.866 114.136 103.607 114.062C103.708 111.901 103.62 109.751 103.712 107.549C101.815 107.476 98.8137 107.596 97.1069 107.431C97.1171 110.232 96.9742 114.222 97.1439 116.902C96.0223 116.943 95.3842 116.971 94.2767 116.827C94.2982 118.067 94.3474 119.43 94.3378 120.662H81.0828C80.9869 119.407 81.0325 118.242 81.0948 116.988C80.0953 116.983 79.2566 116.992 78.2595 116.851C78.3 118.082 78.2749 119.424 78.2759 120.662H74.4926C74.4402 119.325 74.4564 118.296 74.5006 116.967C73.5509 116.95 72.602 116.908 71.6546 116.841C71.6652 118.115 71.6829 119.388 71.7079 120.662H67.8904C67.8009 117.694 67.7857 113.276 67.9005 110.318L65.1178 110.27C65.0143 111.41 65.2164 116.5 65.0149 116.949C64.9421 116.632 64.9087 115.867 64.8835 115.506C64.6946 116.112 64.2512 115.762 64.3601 116.557L64.6343 116.719L64.5909 116.894C63.7489 116.968 62.0952 116.908 61.1948 116.902C61.1951 116.051 61.2781 115.022 61.3262 114.159C60.3664 114.085 59.4994 114.131 58.4624 114.03C58.4692 114.994 58.4684 115.94 58.5331 116.903C56.9719 117.037 53.5191 116.973 51.9399 116.893L51.8684 116.867C51.8189 115.832 51.81 115.169 51.8707 114.137C50.0718 113.984 47.0908 114.076 45.2089 114.079L45.3156 110.309L54.6215 110.26C54.7133 108.194 54.6727 105.856 54.7025 103.757C53.7734 103.712 52.7191 103.716 51.7792 103.697C51.9442 101.788 51.8581 99.165 51.8905 97.1568C48.8358 96.9194 44.7482 97.2046 41.5099 97.0894C41.4566 99.203 41.5096 101.538 41.5094 103.675C42.7442 103.67 43.9791 103.676 45.2138 103.692L45.27 101.842C46.0929 101.317 46.5718 102.415 48.0142 101.209C48.1495 103.105 47.9434 105.871 48.1197 107.475C45.0377 107.485 41.6437 107.555 38.5883 107.47C38.6156 106.263 38.6216 104.98 38.6799 103.78C37.754 103.757 36.7929 103.746 35.8726 103.676C35.8575 104.781 35.7123 109.458 36.0677 110.105C36.6696 110.412 37.8618 110.336 38.6087 110.418C38.6859 113.668 38.7748 117.432 38.7078 120.662H29.2137C29.0921 117.446 29.2284 113.616 29.259 110.351C28.0206 110.285 26.6366 110.299 25.3867 110.286L25.5042 107.523C26.6659 107.451 28.032 107.482 29.2102 107.48C29.1993 105.295 29.2234 103.11 29.2826 100.926C30.2113 100.919 31.1401 100.918 32.0689 100.922C31.9909 99.8623 32.0479 98.2954 32.0549 97.1994L32.2494 97.1012C33.3572 97.1452 34.665 97.1016 35.7874 97.0916C35.8284 96.2049 35.839 95.2793 35.8622 94.3887C36.7489 94.2635 37.7294 94.3038 38.6313 94.3165C38.495 92.8197 38.641 89.3493 38.6826 87.7293C37.7591 87.6865 36.8349 87.6651 35.9105 87.6651L35.8343 87.6331C35.8305 86.4033 35.8133 85.1552 35.8617 83.9275C37.5138 83.9037 39.8543 83.8201 41.481 83.9772C41.489 85.1762 41.4823 86.4038 41.5388 87.5991C42.7922 87.6146 44.0453 87.6457 45.2979 87.6923C45.2036 89.7733 45.3165 92.117 45.2708 94.2798L48.0579 94.2691C48.0578 93.0286 48.0768 91.7883 48.1149 90.5485C48.9149 90.5155 51.1519 90.4372 51.8592 90.573L51.8718 90.6628C51.8405 91.962 51.8326 92.9778 51.8973 94.2825C54.3662 94.1996 58.842 94.1689 61.2529 94.3511C61.272 95.2147 61.2665 96.2452 61.3157 97.0934C62.5988 97.0884 63.7417 97.0777 65.0253 97.1779C65.0429 98.2187 65.028 99.5089 65.0915 100.528L64.9318 100.896C62.7762 100.915 60.6204 100.901 58.4652 100.856C58.4478 103.042 58.4564 105.227 58.491 107.413C59.4019 107.436 60.3837 107.439 61.28 107.562C61.3003 108.441 61.3398 109.387 61.3336 110.26C62.4815 110.254 64.0319 110.32 65.1287 110.278C65.0675 109.435 64.8371 108.396 65.3586 107.781C66.0595 107.348 67.0049 107.565 67.8624 107.528C67.8454 106.713 67.791 105.083 67.9471 104.335L68.0622 103.945C68.2888 103.805 68.3057 103.81 68.5764 103.781C69.3706 103.629 70.7177 103.682 71.5707 103.687C71.5652 102.834 71.6321 101.775 71.6629 100.907C73.5159 100.756 76.3176 100.84 78.2396 100.857C78.2677 98.75 78.1844 96.4168 78.3289 94.3369C79.385 94.2658 79.9733 94.3083 81.0272 94.4059C81.1329 97.3289 81.135 100.723 81.111 103.659C82.0078 103.654 82.9317 103.677 83.8309 103.688C83.8327 100.549 83.8699 97.4103 83.9428 94.2725C85.07 94.2361 86.5298 94.284 87.6803 94.2924C87.5959 93.2925 87.665 91.5491 87.6754 90.4956L90.44 90.5063L90.5203 87.7471C88.7721 87.6112 85.8374 87.7143 83.9905 87.6931L83.9166 87.6687C83.7615 85.9806 83.8122 80.0561 83.935 78.3988L84.0353 78.2308C85.1011 78.2582 86.2183 78.2323 87.2864 78.208C89.5743 78.156 91.9193 78.3237 94.1991 78.2502L94.2824 78.3203C94.2641 79.2401 94.263 80.1601 94.2793 81.0799C92.9624 81.0915 91.8467 81.0934 90.5269 81.0151C90.5113 81.9444 90.5343 82.9215 90.542 83.8548C94.8396 83.8823 99.44 83.7745 103.69 83.9423C103.717 86.0717 103.784 88.3479 103.73 90.4654C104.979 90.4375 106.228 90.4613 107.475 90.5366L107.509 103.636L110.334 103.7C110.183 102.082 110.29 98.8336 110.299 97.1042C112.479 97.0755 114.659 97.0731 116.838 97.0966C116.867 96.1779 116.886 95.2589 116.896 94.3399C116.05 94.2753 114.916 94.2857 114.047 94.269C114.084 93.033 114.106 91.7967 114.112 90.5602C113.007 90.4767 111.363 90.4854 110.224 90.4601C110.216 86.8642 110.707 87.6748 114.04 87.6833C113.97 85.1453 113.973 80.8105 114.092 78.2958C116.285 78.1712 118.479 78.2923 120.663 78.1641ZM94.2943 103.664L103.648 103.683C103.756 100.579 103.637 97.4639 103.719 94.3461C100.79 94.2404 97.0424 94.4722 94.2939 94.227C94.2998 97.1703 94.407 100.776 94.2943 103.664ZM74.4121 113.859C74.3996 111.779 74.3513 109.646 74.4787 107.574C72.5073 107.522 69.8046 107.396 67.861 107.475C67.7868 111.28 68.3967 110.198 71.6489 110.357C71.6573 111.578 71.6453 112.865 71.6972 114.079C72.2299 114.075 74.1125 114.183 74.4121 113.859ZM87.6162 110.309C87.6705 109.384 87.6972 108.457 87.6967 107.53C85.643 107.485 83.0471 107.576 81.0995 107.43L81.1421 110.233L87.6162 110.309ZM54.6781 100.871C55.9025 100.854 57.2801 100.892 58.474 100.856C58.3997 99.6288 58.4485 98.3715 58.4757 97.1403C57.2408 97.1157 55.8787 97.1175 54.6549 97.0503C54.6648 98.3057 54.694 99.6211 54.6781 100.871ZM35.7987 114.062C35.8118 112.831 35.8337 111.599 35.8642 110.368C34.6456 110.365 33.2628 110.396 32.0633 110.268C32.0614 111.446 32.0223 112.916 32.0696 114.07C33.3709 114.02 34.5001 114.034 35.7987 114.062ZM38.6385 94.278C38.6572 95.197 38.6846 96.1158 38.7205 97.0343C39.6454 97.047 40.5279 97.0618 41.4512 97.1144C41.5167 96.1917 41.4326 95.2597 41.495 94.3522C40.6162 94.3267 39.4988 94.2618 38.6385 94.278ZM87.4864 116.874C87.7153 116.322 87.6848 114.789 87.6961 114.126C86.4346 114.115 85.1735 114.083 83.9132 114.028C83.9198 114.975 83.9364 115.921 83.9633 116.868C85.2251 116.814 86.2327 116.834 87.4864 116.874ZM94.3177 90.4595C95.1851 90.4468 96.0527 90.4492 96.9201 90.467C97.0647 89.8379 97.0911 88.4399 97.1079 87.7448C96.2449 87.7143 95.144 87.7057 94.3019 87.6284C94.2931 88.5721 94.2984 89.5159 94.3177 90.4595ZM87.7247 103.659C87.6935 104.632 87.4309 106.533 87.9018 107.178C88.6443 107.691 89.5385 107.489 90.4789 107.434C90.4073 106.274 90.4698 104.963 90.4989 103.79C89.617 103.772 88.5854 103.778 87.7247 103.659ZM90.4935 110.258L90.5147 114.041C91.7625 114.029 93.0102 114.039 94.2575 114.073L94.2947 110.37C93.0789 110.348 91.6928 110.355 90.4935 110.258ZM32.0775 103.655L35.8152 103.688C35.8095 102.79 35.7936 101.878 35.8352 100.982C34.6253 100.931 33.2433 100.84 32.0462 100.873C32.0544 101.75 32.0362 102.793 32.0775 103.655ZM87.7243 97.0597C88.7121 97.0164 89.337 97.0053 90.3198 97.0722C90.503 96.5016 90.5032 95.0238 90.5151 94.365C89.6483 94.3281 88.5366 94.2481 87.6885 94.2532C87.6822 95.1888 87.6941 96.1245 87.7243 97.0597ZM111.467 89.9355C111.583 89.1993 111.344 89.0309 110.725 88.9879C110.707 89.4063 110.603 89.8693 110.816 90.147C111.054 90.0799 111.234 90.0215 111.467 89.9355Z" fill="white"/>
<path d="M97.1211 97.7731C97.6676 97.6682 100.48 97.7257 100.849 98.0986C100.864 98.8969 100.853 100.109 100.96 100.866C99.7953 100.882 98.6604 100.911 97.4979 100.802C97.8803 100.691 99.0537 100.699 99.5353 100.684C98.9179 100.606 98.0622 100.623 97.5416 100.381C97.2678 99.6653 98.3176 98.3763 97.1276 97.8967L97.1211 97.7731Z" fill="white"/>
<path d="M97.1211 97.7715C97.1847 97.2888 97.0951 97.435 97.4169 97.1835C98.4427 97.0165 99.6796 96.8423 100.664 97.3059C100.929 97.6498 100.846 97.573 100.849 98.097C100.48 97.7242 97.6676 97.6667 97.1211 97.7715Z" fill="white"/>
<path d="M97.1284 97.8984C98.3184 98.378 97.2686 99.667 97.5425 100.383C98.063 100.625 98.9188 100.608 99.5361 100.686C99.0545 100.7 97.8811 100.692 97.4987 100.804L97.2546 100.806C96.9367 100.312 97.1035 98.5961 97.1284 97.8984Z" fill="white"/>
<path d="M110.725 88.9844C111.344 89.0274 111.583 89.1958 111.467 89.932C111.234 90.018 111.054 90.0765 110.816 90.1435C110.603 89.8658 110.707 89.4028 110.725 88.9844Z" fill="white"/>
<path d="M71.6523 16.8984C71.8557 16.9013 73.5231 16.9287 73.6269 16.9671C73.7205 18.7114 73.8164 20.4117 73.6252 22.1518C73.613 22.2628 73.7093 22.5329 73.754 22.6349L71.6644 22.6351C71.675 20.7229 71.6711 18.8107 71.6523 16.8984Z" fill="white"/>
<path d="M73.6277 16.9698C73.9201 17.0142 73.9622 17.0218 74.2466 16.9453L74.4304 17.0597C74.4457 17.8675 74.6188 22.1899 74.3582 22.6069C74.1541 22.6236 73.9597 22.646 73.7549 22.6375C73.7101 22.5356 73.6138 22.2655 73.6261 22.1545C73.8172 20.4144 73.7213 18.7141 73.6277 16.9698Z" fill="white"/>
<path d="M71.6523 16.9027C71.6756 16.6647 71.6356 16.3589 71.8603 16.231C72.5445 15.8419 73.6835 15.8616 74.313 16.3658C74.445 16.6537 74.4303 16.7414 74.4296 17.0613L74.2458 16.9469C73.9614 17.0234 73.9192 17.0158 73.6269 16.9714C73.5231 16.933 71.8557 16.9055 71.6523 16.9027Z" fill="white"/>
<path d="M16.6291 87.723C17.1665 87.677 18.291 87.7239 18.8762 87.7338C18.8355 88.6184 18.8607 89.6113 18.8647 90.505C20.2517 90.4977 21.2141 90.5139 22.6051 90.6156C22.6115 91.3736 22.7967 93.6595 22.5283 94.2179L22.1816 94.2915L15.9805 94.2708C16.1259 92.6099 15.8175 89.5765 16.196 87.9173C16.2246 87.7918 16.4724 87.7648 16.6291 87.723Z" fill="white"/>
<path d="M41.5688 78.3069C42.8205 78.2699 43.9482 78.2546 45.1996 78.3913C45.2073 79.2769 45.261 80.1761 45.3055 81.0618C44.3313 81.067 43.2716 81.0929 42.306 81.0485C42.4376 80.812 42.5361 80.7363 42.7305 80.5436C43.4347 80.2769 43.9227 80.8451 44.5234 80.4141C44.5709 80.0444 44.3918 79.7787 44.3422 79.3386C44.6267 79.2568 44.6464 79.2582 44.8704 79.0738L44.824 78.9261C44.657 78.8715 42.6264 78.7828 42.4365 78.8234C41.7454 79.5639 42.1885 80.2276 41.8898 80.865L41.6137 80.9346C41.3214 80.4786 41.5183 78.8941 41.5688 78.3069Z" fill="white"/>
<path d="M41.6133 80.934L41.8894 80.8644C42.1881 80.227 41.745 79.5633 42.4361 78.8228C42.6259 78.7823 44.6566 78.8709 44.8236 78.9255L44.87 79.0732C44.646 79.2576 44.6263 79.2562 44.3417 79.338C44.3913 79.7781 44.5705 80.0438 44.523 80.4136C43.9222 80.8445 43.4343 80.2763 42.7301 80.5431C42.5357 80.7357 42.4372 80.8114 42.3056 81.0479C41.9886 81.0725 41.9174 81.0361 41.6133 80.934Z" fill="white"/>
<path d="M97.0634 0H120.663V22.7036C112.828 22.446 104.74 22.8458 96.9727 22.6211C97.1706 20.6171 97.0858 17.2566 97.0933 15.1409L97.0634 0ZM100.887 18.844C102.449 18.8457 116.41 18.9581 116.813 18.7298L116.84 18.6964C116.934 13.5154 116.653 8.07235 116.918 2.9145C113.583 2.86248 110.248 2.84987 106.913 2.8767C105.083 2.88202 102.694 2.97234 100.923 2.78433L100.873 2.77861L100.887 18.844Z" fill="white"/>
<path d="M103.79 5.66958C107.213 5.60202 110.638 5.61124 114.061 5.69729C114.039 8.75521 114.32 13.057 114.065 16.0464C110.921 16.1668 106.797 16.0903 103.615 16.0221C103.651 13.9429 103.662 11.8635 103.648 9.784C103.648 8.83191 103.607 6.51118 103.79 5.66958Z" fill="white"/>
<path d="M0 97.0547C5.07905 97.1909 10.2881 97.0335 15.3753 97.0895C17.6769 97.1148 20.3499 97.0004 22.6206 97.1647C22.6759 104.865 22.4786 113.034 22.6917 120.663H0V97.0547ZM2.8478 116.818C3.71138 116.902 4.59872 116.877 5.46676 116.886C9.91172 116.932 14.3724 116.827 18.8157 116.899C18.9535 111.632 18.6954 106.173 18.8804 100.937C15.2665 100.778 11.4516 100.944 7.82047 100.889C6.23805 100.864 4.37731 100.979 2.83413 100.815C2.86825 106.149 2.87281 111.484 2.8478 116.818Z" fill="white"/>
<path d="M5.71093 103.698C9.14855 103.644 12.5869 103.655 16.0241 103.731C16.0321 106.166 16.2823 111.764 16.0231 114.077C12.8279 114.205 8.81919 114.105 5.5712 114.066C5.64585 111.148 5.41387 106.388 5.71093 103.698Z" fill="white"/>
<path d="M0 0H22.7116C22.646 5.00036 22.6247 10.0012 22.6475 15.002C22.6517 17.0945 22.5431 20.7179 22.7059 22.6611L8.81698 22.6365C5.97233 22.6381 2.82774 22.5927 0 22.7182V0ZM2.85335 18.853L13.6992 18.8552C14.7331 18.8561 17.9438 18.9275 18.815 18.8255C18.9884 13.5812 18.7106 8.1746 18.8806 2.91637C15.3516 2.77039 11.7048 2.90233 8.16678 2.86982C6.73633 2.85667 4.15906 2.99012 2.83145 2.78179C2.86881 7.98539 2.72272 13.7217 2.85335 18.853Z" fill="white"/>
<path d="M5.71453 5.65848C9.17151 5.68 12.5456 5.56053 16.023 5.70689C16.0908 9.09125 15.9762 12.758 16.0888 16.0462C12.7791 16.1524 8.89593 16.0905 5.56867 16.0319C5.68689 13.1077 5.40288 8.38984 5.71453 5.65848Z" fill="white"/>
<path d="M9.52902 29.1922C9.4334 28.5638 9.26841 26.2177 9.63641 25.6375C9.72055 25.5048 9.85303 25.5342 10.0342 25.5156C10.3029 25.6641 11.8027 26.0198 12.1973 26.0277C12.2479 27.0824 12.2632 28.1759 12.2921 29.2342L9.52902 29.1922Z" fill="white"/>
<path d="M29.2539 30.9923C29.2544 30.8458 29.2561 30.6993 29.2592 30.5528C29.2708 30.0464 29.2433 29.6874 29.5725 29.375C30.1307 29.8609 31.0247 29.8882 31.7153 29.7311L31.7959 29.4587C32.192 29.9544 32.0696 31.3471 32.0594 32.0358L30.1747 32.0397C30.1744 31.6067 30.2559 31.4783 30.0354 31.2001C29.7026 31.1634 29.6385 31.1499 29.3264 31.0227L29.2539 30.9923Z" fill="white"/>
<path d="M29.5723 29.3793C30.2011 29.2465 31.2079 29.1813 31.7957 29.4629L31.7151 29.7354C31.0245 29.8924 30.1304 29.8652 29.5723 29.3793Z" fill="white"/>
<path d="M29.2533 30.9922L29.3258 31.0226C29.6379 31.1499 29.702 31.1633 30.0348 31.2C30.2553 31.4783 30.1739 31.6066 30.1741 32.0396C29.8092 32.0532 29.738 32.0574 29.3862 31.9661C29.1486 31.5774 29.2391 31.5336 29.2533 30.9922Z" fill="white"/>
<path d="M10.0332 25.5147C10.6954 25.476 11.4188 25.4076 12.0373 25.6651C12.151 25.8385 12.1806 25.8351 12.1962 26.0268C11.8017 26.019 10.3018 25.6632 10.0332 25.5147Z" fill="white"/>
<path d="M68.3011 94.33C69.5231 94.2745 70.3842 94.3131 71.5982 94.4187C71.6353 95.03 71.7788 96.6493 71.5012 97.0914C70.3312 97.1297 68.9907 97.0888 67.8086 97.0802C67.861 96.3435 67.6893 94.6733 68.3011 94.33Z" fill="white"/>
<path d="M61.244 0H94.3532C94.3473 1.1292 94.2265 4.72122 94.3449 5.66829C92.9903 5.73614 91.8412 5.75912 90.4863 5.60869C90.4933 6.85539 90.4775 8.19202 90.5111 9.43105C89.5769 9.42567 88.5933 9.43669 87.6641 9.41219C87.7144 7.26731 87.5994 5.0081 87.6729 2.92192C86.2344 2.92102 85.3242 2.93161 83.9033 2.78285C83.8947 3.75027 83.9067 4.71777 83.9391 5.68468C81.0842 5.74523 77.3547 5.82963 74.5518 5.65768L74.4775 5.63067C74.4227 4.61978 74.4214 3.9024 74.4581 2.88977C73.4674 2.89559 72.6572 2.91379 71.6701 2.78537C71.6963 3.64007 71.68 4.56773 71.681 5.42862C71.4684 5.56644 71.4335 5.60212 71.1924 5.66501C70.1852 5.76502 68.9302 5.76731 67.9259 5.65142C67.9207 6.57021 67.9066 7.48893 67.8837 8.40745C67.8351 8.78686 67.7932 9.16708 67.7576 9.54793C66.8491 9.46018 65.9038 9.47886 65.0539 9.3832L65.073 12.002L64.9826 12.2565C63.7464 12.2846 62.5097 12.2842 61.2735 12.2552C61.262 10.1976 61.1819 7.76933 61.2792 5.74312C60.3505 5.70971 59.4222 5.66393 58.4946 5.60579C58.3955 8.30829 58.3733 13.1249 58.4837 15.8077C58.3212 15.8632 58.1349 15.9395 57.9675 15.9535C57.2432 16.1076 55.5024 16.0446 54.6886 16.0355C54.6741 12.6885 54.5943 8.95977 54.7204 5.6458C55.9801 5.65934 57.2398 5.66421 58.4996 5.66038C58.4179 4.68125 58.4408 3.89687 58.4641 2.91143C59.1453 2.82811 60.4534 2.84826 61.1842 2.83994C61.2339 1.89415 61.2539 0.947039 61.244 0Z" fill="white"/>
<path d="M94.3321 38.7392C95.7515 38.5763 99.436 38.6079 100.836 38.7831L100.964 41.4437C101.944 41.4526 102.703 41.4807 103.678 41.5662C103.722 45.6567 103.261 45.3916 107.393 45.2613L107.481 45.3374C107.47 46.2276 107.439 47.1958 107.474 48.0789C106.23 48.077 104.986 48.067 103.742 48.0488C103.599 50.1584 103.789 52.2867 103.698 54.3669L103.619 54.6717C102.609 54.709 101.891 54.6909 100.88 54.635C100.881 55.77 100.836 57.3611 100.961 58.4543C98.3919 58.6497 93.1941 58.4616 90.4258 58.4417C90.5069 57.2666 90.5162 55.9005 90.5685 54.6999C91.5938 54.6389 93.14 54.6784 94.2059 54.6594L94.287 51.8708C96.4841 51.8087 98.6826 51.8064 100.88 51.8639L100.889 48.1067L97.0411 48.0898C97.1858 46.4029 97.103 43.3205 97.1191 41.5341L94.1849 41.4638C94.2698 40.5475 94.2981 39.6582 94.3321 38.7392ZM103.721 48.0665C103.707 47.1403 103.684 46.2201 103.726 45.2943C102.931 45.2788 101.64 45.29 100.887 45.2049C100.87 46.0151 100.738 47.0409 101.073 47.7299C101.684 48.3448 102.868 48.1017 103.721 48.0665Z" fill="white"/>
<path d="M22.6054 26.4297C22.5992 27.226 22.4533 28.431 22.9424 28.9827C23.6888 29.4131 24.4839 29.2224 25.4066 29.3799C25.4942 31.5313 25.4142 33.5877 25.4743 35.683L25.2994 35.8247C22.7384 35.8864 20.0485 35.8341 17.4757 35.8399C15.9921 35.8432 13.6773 35.9023 12.2607 35.784C12.2681 36.524 12.2448 37.9735 12.3376 38.6514C10.5401 38.7367 7.43494 38.7687 5.63311 38.6709C5.62481 36.4951 5.59433 34.2864 5.67989 32.115L2.8846 32.026C2.80598 33.4992 2.78158 37.2106 2.91745 38.6807C1.984 38.6944 0.921701 38.684 0 38.7276V31.9645C0.999911 32.0645 1.88198 32.0494 2.88163 32.0437C2.81574 31.0765 2.82275 30.2541 2.83445 29.2828C4.65482 29.127 7.57846 29.2208 9.47821 29.2386C9.42296 30.1767 9.45824 31.0667 9.485 32.0031C11.6354 31.987 13.8493 32.0367 16.0043 32.0595C16.0482 31.1662 16.0429 30.2486 16.0479 29.3525C16.851 29.2532 18.0534 29.2588 18.8825 29.2457C18.8378 30.306 18.8376 31.0037 18.8996 32.0618C20.1862 32.0248 21.3238 32.0412 22.6068 32.0729C22.6262 31.5035 22.7557 29.6391 22.545 29.2519L22.4761 28.7554C22.2905 28.0348 22.4314 27.2517 22.4624 26.4628L22.6054 26.4297Z" fill="white"/>
<path d="M120.663 54.5938V67.9723C118.527 68.0008 116.118 67.9524 113.993 67.8782C113.976 66.9846 114.029 66.0418 114.065 65.1444C112.731 65.1362 111.56 65.1165 110.227 65.0343C110.242 62.8544 110.271 60.6747 110.313 58.4951C112.326 58.3652 114.798 58.4175 116.843 58.4182C116.858 57.2091 116.867 56.0193 116.937 54.811L117.005 54.6692C117.7 54.7399 119.944 54.6378 120.663 54.5938Z" fill="white"/>
<path d="M120.663 25.375V38.7485C119.334 38.7312 118.204 38.7197 116.878 38.5905C116.883 39.5074 116.892 40.4242 116.906 41.3411L116.77 41.4646C115.556 41.5388 110.979 41.3591 110.312 41.5491L110.223 41.488C110.298 41.211 110.312 39.1713 110.323 38.738L110.447 38.6472C110.977 38.7245 113.389 38.6713 114.051 38.6681C114.026 37.6949 113.847 32.6523 114.33 32.1248C114.964 31.9828 116.135 32.0403 116.83 32.0502L116.919 29.2962C115.974 29.2493 114.953 29.2427 114.001 29.2182C114.065 27.9811 114.047 26.7504 114.117 25.4832C116.153 25.3391 118.538 25.5411 120.663 25.375Z" fill="white"/>
<path d="M71.6823 5.42969C72.3384 5.80752 73.7176 5.71422 74.4788 5.63174L74.5531 5.65875C74.397 6.40192 74.4678 8.61077 74.4832 9.45332C75.6855 9.44481 77.0499 9.40007 78.2244 9.59626C78.2021 12.8331 78.259 12.0967 81.0454 12.4L81.1009 16.0244C80.1498 16.0244 79.1987 16.0102 78.2479 15.9818L78.2843 12.2841C74.8365 12.2279 71.3768 12.2897 67.9212 12.2431C67.8448 13.5494 67.8552 14.6967 67.8686 16.0016C66.9226 16.0132 66.0404 16.0199 65.0956 15.9841C65.0484 16.8143 64.8761 18.1499 65.2713 18.8648L65.0864 18.9246C63.8011 18.8006 62.5069 18.919 61.262 18.7807C61.2596 19.5602 61.1941 22.002 61.4068 22.6222L61.3288 22.764C60.7919 22.6174 59.0026 22.5314 58.4558 22.7164L58.4245 22.6404C58.5777 21.694 58.4769 17.5189 58.3958 16.3618C58.3798 16.1328 58.1624 16.0638 57.9688 15.9546C58.1362 15.9405 58.3225 15.8643 58.485 15.8088C59.0907 16.2039 63.9417 16.0421 65.088 16.0389C65.0695 15.3772 65.1096 12.7057 64.9839 12.2576L65.0743 12.0031C65.6116 12.4613 67.1136 12.284 67.8889 12.2622C67.8346 11.514 67.8699 10.4072 67.8728 9.63206C67.9076 9.61871 68.9625 9.54393 69.238 9.49557C69.7701 9.40125 71.0419 9.44657 71.6417 9.45356C71.6207 8.44754 71.7956 7.01963 71.6107 6.00301C71.5693 5.77517 71.4043 5.758 71.1937 5.66608C71.4347 5.60319 71.4697 5.56751 71.6823 5.42969Z" fill="white"/>
<path d="M25.4023 0H45.3014C45.3016 0.522122 45.3147 1.10432 45.2889 1.6208C44.8007 1.87931 44.6188 1.86432 44.4172 2.28375C44.4859 2.61016 44.542 2.65977 44.7544 2.92169C43.7122 2.86257 42.6089 2.84584 41.5609 2.81264L42.0413 2.69465L41.9885 2.57504C41.5174 2.602 41.6933 2.53748 41.3195 2.81014C40.9796 3.40841 41.3948 5.34526 41.2546 5.70131L38.6203 5.64811L38.6982 2.9161C35.6129 2.74625 32.3335 3.03604 29.2158 2.78361C29.2472 3.62435 29.2252 4.52232 29.2184 5.36851L29.0893 5.67692L25.4481 5.66833C25.4567 3.77877 25.4415 1.88918 25.4023 0Z" fill="white"/>
<path d="M45.4522 54.6657C47.6161 54.6814 49.6489 54.6219 51.8298 54.689L51.8558 54.7602L51.9062 61.2121C51.9074 62.3114 51.848 63.77 51.9094 64.8172L51.7193 65.0544C49.9412 65.2048 47.125 65.12 45.3312 65.0477L45.2711 65.0336C45.1019 63.2787 45.1832 56.6936 45.2651 54.8083L45.4522 54.6657Z" fill="white"/>
<path d="M110.222 41.4922L110.311 41.5532C110.286 42.4071 110.107 44.353 110.515 44.9905C111.05 45.4279 112.977 45.2676 114 45.4049C114.053 48.1157 113.975 48.3906 116.911 48.047L116.983 48.0763C116.802 48.8916 116.829 53.9552 117.004 54.6681L116.936 54.8099C116.345 54.6429 108.08 54.5898 107.478 54.7689L107.436 54.6895C107.493 53.9467 107.473 52.754 107.505 51.9401C108.857 51.7712 112.548 51.8706 114.068 51.8791C114.059 50.6403 114.086 49.3496 114.096 48.1066C112.881 48.0533 111.501 48.0693 110.257 48.0334L110.353 45.2788C109.639 45.2454 108.092 45.1446 107.48 45.3376L107.393 45.2615C107.526 44.8557 107.49 42.431 107.612 41.5605C108.422 41.4903 109.305 41.5687 110.222 41.4922ZM113.756 47.4976C113.814 46.9641 114.001 46.6252 113.808 46.2938L113.303 46.2851C113.294 46.6592 113.24 47.1254 113.403 47.4481C113.573 47.495 113.607 47.5346 113.756 47.4976Z" fill="white"/>
<path d="M113.303 46.2812L113.808 46.29C114.001 46.6213 113.814 46.9602 113.756 47.4938C113.607 47.5308 113.573 47.4912 113.402 47.4443C113.24 47.1215 113.294 46.6554 113.303 46.2812Z" fill="white"/>
<path d="M100.936 25.4581C103.726 25.4433 107.567 25.3131 110.29 25.532C110.292 26.6501 110.229 31.2084 110.373 32.0504C108.682 32.1715 105.485 32.1341 103.771 32.0415L103.715 31.9913C103.623 31.1246 103.679 30.1887 103.709 29.3127C102.819 29.2733 101.703 29.2565 100.834 29.1806C100.859 28.0931 100.85 26.5029 100.936 25.4581Z" fill="white"/>
<path d="M25.4757 9.44646C26.5062 9.41931 28.1752 9.39378 29.1618 9.49166L29.2364 9.58863C29.2405 13.146 29.4366 18.9496 29.2069 22.3309L29.1709 22.6225C28.0975 22.6765 26.5489 22.6391 25.4453 22.6425C25.5642 18.3819 25.4302 13.7688 25.4757 9.44646Z" fill="white"/>
<path d="M120.662 103.625V114.139L116.816 114.066C116.857 112.832 116.888 111.597 116.91 110.362C115.979 110.313 114.95 110.313 114.01 110.294C114.083 107.366 113.748 107.431 116.848 107.473C116.862 106.211 116.885 104.95 116.917 103.689C118.099 103.692 119.503 103.731 120.662 103.625ZM115.239 109.907C115.177 109.542 115.155 109.109 114.899 108.86L114.676 108.8C114.617 109.369 114.514 109.4 114.749 109.8C114.917 109.842 115.067 109.886 115.239 109.907Z" fill="white"/>
<path d="M114.677 108.797L114.901 108.857C115.156 109.106 115.178 109.538 115.24 109.904C115.069 109.883 114.919 109.839 114.751 109.797C114.516 109.396 114.618 109.366 114.677 108.797Z" fill="white"/>
<path d="M87.6836 13.3291C88.4704 12.8554 89.5386 13.4388 90.4794 13.0781L90.5055 16.0339C91.7625 16.024 93.0086 16.0029 94.2648 16.0626C94.2707 17.9083 94.2265 20.0765 94.3294 21.8958C94.0079 21.8064 93.952 21.7763 93.6252 21.7912C93.376 22.1488 93.432 22.2442 93.5798 22.6769C92.695 22.6126 91.3978 22.6425 90.4821 22.6357L90.5344 18.9387C89.5949 18.8749 88.6943 18.851 87.7528 18.8279L87.6858 18.7658C87.6032 17.1758 87.6752 14.9655 87.6836 13.3291Z" fill="white"/>
<path d="M110.056 68.1016C110.825 69.1497 109.488 71.5717 111.049 71.6041C114.199 71.6692 117.514 71.7451 120.663 71.6218V74.5053C119.077 74.4949 111.346 74.2585 110.313 74.5462L110.229 74.4793C110.287 74.2849 110.306 72.0471 110.315 71.6831C109.713 71.648 107.989 71.5591 107.475 71.716L107.395 71.6552L107.543 71.0478C107.899 70.6174 107.561 69.457 107.82 68.6728C108.456 68.4209 109.064 69.034 109.878 68.6523C109.732 68.47 109.821 68.5201 109.629 68.4599L109.863 68.4802C110.022 68.3399 109.981 68.341 110.056 68.1016Z" fill="white"/>
<path d="M5.7742 45.25C7.62904 45.3239 10.3561 45.2872 12.2629 45.2667L12.2773 45.328C12.2534 46.1358 12.1543 47.3654 12.4896 48.0902L12.3476 48.4036L12.1327 48.1563C11.6581 48.0428 10.0801 48.0602 9.4266 48.0212C9.42031 49.3022 9.43226 50.5832 9.46243 51.8638C8.18267 51.8544 6.90285 51.8523 5.62305 51.8572C5.7471 49.7645 5.52771 47.4028 5.6941 45.375L5.7742 45.25Z" fill="white"/>
<path d="M94.1973 32.119C94.4882 31.3299 93.9386 29.8419 94.6278 29.375C95.2835 29.7894 96.2617 29.8889 96.9959 29.6721C97.0328 30.2352 97.0399 31.3837 97.2796 31.8071C97.9182 32.1508 103.01 32.1499 103.715 31.991L103.771 32.0412C103.623 32.9149 103.691 34.8959 103.753 35.8191C101.684 35.8506 99.1194 35.8766 97.0465 35.7987L97.1205 32.0965C96.5144 32.0709 94.6564 31.8989 94.2733 32.1988L94.1973 32.119Z" fill="white"/>
<path d="M0 54.6484L2.82609 54.7447C2.8466 57.6421 2.69038 62.3606 2.88094 65.0658L0 65.1233V54.6484Z" fill="white"/>
<path d="M35.8337 87.6328L35.91 87.6647C35.7499 88.1218 35.8408 89.9589 35.8591 90.4954L25.3711 90.4871C25.4152 89.5727 25.4544 88.6581 25.4889 87.7432C28.5164 87.5668 33.0977 87.9193 35.8337 87.6328Z" fill="white"/>
<path d="M116.905 41.3438C117.675 41.5929 119.795 41.463 120.663 41.3977V48.1774C119.475 48.1831 118.172 48.1343 116.984 48.0748L116.912 48.0455C116.805 46.7546 117.021 42.1886 116.77 41.4672L116.905 41.3438Z" fill="white"/>
<path d="M120.663 116.805V120.66H114.086C114.045 119.354 114.064 118.2 114.096 116.899C115.734 116.895 119.168 116.98 120.663 116.805Z" fill="white"/>
<path d="M5.7003 54.7191C7.71493 54.6249 10.2253 54.663 12.2427 54.7478C12.2414 55.5139 12.3322 57.3546 12.1658 57.9488C12.1177 58.1322 12.0722 58.2858 12.014 58.4662L5.59375 58.4521L5.7003 54.7191Z" fill="white"/>
<path d="M68.1555 65.0852C69.4482 65.0363 70.3351 65.0483 71.6163 65.1064C71.6279 66.8533 71.5609 69.797 71.6933 71.4362L71.5067 71.6616L67.8756 71.6541C67.9233 69.4805 67.8245 67.2957 67.9145 65.1113L68.1555 65.0852Z" fill="white"/>
<path d="M48.0705 0H54.7317C54.7101 0.958338 54.6784 1.87103 54.7434 2.82998C52.9907 2.98317 49.8135 2.84918 47.9609 2.82275L48.0705 0Z" fill="white"/>
<path d="M74.5277 65.0896C76.6964 65.0337 78.8664 65.045 81.0344 65.1233C81.0409 65.8618 80.9977 67.2395 81.2698 67.8706L81.0768 67.9704C79.9965 67.7979 75.642 67.869 74.4082 67.8653C74.4538 66.9403 74.4936 66.0151 74.5277 65.0896Z" fill="white"/>
<path d="M25.491 94.3463C27.1095 94.2087 30.4646 94.261 32.0428 94.3984C32.0328 95.1066 31.9535 96.5059 32.2493 97.1005L32.0548 97.1986C31.4382 97.0406 26.2526 97.0806 25.375 97.0757L25.491 94.3463Z" fill="white"/>
<path d="M35.8484 18.7734L35.9146 18.8344C35.7948 19.6878 35.6105 21.7133 36.0624 22.4349C36.2181 22.5337 36.3767 22.6464 36.547 22.7121C36.0549 22.8404 36.1144 22.7396 35.9017 23.0759C35.8345 22.9332 35.8033 22.7886 35.6669 22.7436C35.027 22.5322 32.6234 22.5577 32.0616 22.717L32.0254 22.6465C32.1075 21.9948 32.0744 19.8041 32.1296 18.9128C33.2655 18.7784 34.802 19.0442 35.8484 18.7734Z" fill="white"/>
<path d="M51.8678 116.867L51.9393 116.893C51.7824 117.641 51.8554 119.812 51.8705 120.663H48.1065C48.0575 119.414 48.0643 118.162 48.127 116.913C49.3758 116.87 50.6252 116.963 51.8678 116.867Z" fill="white"/>
<path d="M22.6519 83.8281L22.709 83.8743C22.5416 84.6493 22.647 86.7818 22.6754 87.6617C21.4458 87.6957 20.1306 87.6722 18.894 87.6706C18.818 86.5272 18.8491 85.1157 18.8552 83.9529C20.0494 83.841 21.55 84.0554 22.6519 83.8281Z" fill="white"/>
<path d="M87.6861 18.7656L87.7531 18.8277C87.5776 19.8186 87.6575 21.5799 87.6863 22.6182C86.881 22.6273 84.484 22.5317 83.9139 22.7189L83.873 22.6361C83.9473 21.4624 83.9216 20.0651 83.9285 18.8739C84.9008 18.8402 86.8226 18.9661 87.6861 18.7656Z" fill="white"/>
<path d="M12.491 48.0938C13.7078 48.1 14.7648 48.0976 15.9817 48.22C15.9816 49.4076 16.0452 50.6422 16.0897 51.8325C14.8055 51.8647 13.5205 51.863 12.2363 51.8276C12.2487 50.756 12.23 49.4534 12.349 48.4072L12.491 48.0938Z" fill="white"/>
<path d="M103.698 54.3672C104.337 54.9255 106.505 54.707 107.437 54.6897L107.478 54.7691C107.474 55.4524 107.597 57.9862 107.328 58.3941C107.178 58.409 107.034 58.4339 106.886 58.4196C106.314 57.884 105.331 58.295 104.455 58.1545C103.57 57.2227 105.062 56.2396 103.725 55.2361C103.728 55.0425 103.667 54.8634 103.619 54.672L103.698 54.3672Z" fill="white"/>
<path d="M19.0911 25.5601C19.8382 25.3672 21.7416 25.3145 22.4643 25.7229C22.6613 26.0652 22.6012 25.9903 22.606 26.4252L22.463 26.4583L21.6772 26.0687L21.6165 26.2841C22.459 27.5234 21.3196 27.804 22.0644 28.6882L22.4767 28.7509L22.5456 29.2474C21.396 29.2264 20.0123 29.1661 18.8831 29.2412C18.8316 28.2874 18.8719 27.1194 18.8812 26.1484C19.0465 26.1609 19.3396 26.3433 19.499 26.4291C19.888 26.3921 19.8356 26.4595 20.0704 26.2492C19.7429 25.9435 19.6672 25.9165 19.2167 25.8828L19.1641 25.8794L19.0911 25.5601Z" fill="white"/>
<path d="M65.0899 60.9453C65.734 61.5408 67.0376 61.353 67.8983 61.2453L67.9571 61.2662C67.8042 62.2276 67.6649 64.2562 68.1559 65.0899L67.9149 65.1161C67.2666 65.0118 65.7659 65.0435 65.0447 65.0411C65.0669 64.3282 65.244 61.715 64.9277 61.3214L65.0899 60.9453Z" fill="white"/>
<path d="M97.1139 74.4375L97.1943 74.4762C97.0402 75.11 96.9683 77.6536 97.2403 78.2479L97.1325 78.3322C96.4137 78.2523 94.9455 78.1338 94.2825 78.3205L94.1992 78.2504C94.3138 77.9122 94.3086 75.0958 94.3303 74.5338C95.2825 74.4872 96.1382 74.5796 97.1139 74.4375Z" fill="white"/>
<path d="M71.6554 58.4141L71.7476 58.4533C71.5787 59.0901 71.658 60.5784 71.6899 61.2765C70.6784 61.2807 68.8702 61.2127 67.9578 61.264L67.899 61.2431C67.8302 60.4611 67.8851 59.343 67.9026 58.5318C69.1413 58.4017 70.4593 58.5901 71.6554 58.4141Z" fill="white"/>
<path d="M35.8466 35.7969L35.9127 35.821C35.7842 36.4899 35.7299 38.0845 36.0005 38.6903L35.8226 38.7496C35.0423 38.5774 32.9426 38.6357 32.0492 38.6362C32.0343 37.791 32.0946 36.7377 32.1208 35.8777C33.3667 35.7904 34.6098 35.9945 35.8466 35.7969Z" fill="white"/>
<path d="M48.101 83.8672L48.1631 83.8931C47.9918 84.4527 48.0717 86.9491 48.0832 87.6657C47.1885 87.6849 46.2473 87.6582 45.3487 87.6463C45.1883 86.4676 45.252 85.157 45.3389 83.9737C46.2266 83.879 47.1103 83.9862 48.101 83.8672Z" fill="white"/>
<path d="M18.849 51.9722C20.2435 51.8197 21.1887 51.8384 22.5861 51.9954L22.6507 54.6763C21.9286 54.6823 19.3547 54.6129 18.8585 54.7403L18.8388 54.6842C18.9058 53.7461 18.8062 52.8693 18.849 51.9722Z" fill="white"/>
<path d="M2.93173 41.5405C3.98116 41.4783 4.5668 41.5385 5.61147 41.6562C5.63422 42.6101 5.59162 44.4265 5.77525 45.2491L5.69515 45.3742C5.12115 45.1861 3.52332 45.2561 2.83203 45.266C2.85086 44.0238 2.8841 42.7819 2.93173 41.5405Z" fill="white"/>
<path d="M29.219 5.36719C30.2978 6.19678 32.1175 4.95401 32.0107 6.61664L31.7791 6.70474C31.6756 7.45418 31.894 9.23531 31.8315 9.44069C31.2745 9.43246 29.5961 9.30579 29.2368 9.58571L29.1622 9.48874C29.317 9.00602 29.3454 6.05433 29.0898 5.6756L29.219 5.36719Z" fill="white"/>
<path d="M90.252 48.2859C90.6512 48.7642 90.5144 51.0814 90.5114 51.8458C89.5569 51.8486 88.5946 51.8631 87.6426 51.8032C87.6672 50.7094 87.6565 49.2175 87.7508 48.1562C88.3387 48.5931 89.6769 48.7049 90.252 48.2859Z" fill="white"/>
<path d="M22.5829 45.2423L22.64 45.3215C22.6359 46.236 22.621 47.1688 22.664 48.0807C22.0517 48.0767 19.8995 48.0245 19.4172 48.123C19.4289 47.3586 19.4622 47.0075 19.3257 46.2489L18.8639 46.0233C18.86 45.7249 18.8701 45.6921 19.0431 45.4489C19.6319 45.1264 21.6625 45.2908 22.5829 45.2423Z" fill="white"/>
<path d="M25.4737 35.6797C25.821 35.7939 26.1338 35.9286 26.4961 35.9L26.1812 36.1219C26.7299 36.5675 28.7115 36.5769 29.2293 36.0642C29.1521 36.8008 29.2189 37.8786 29.245 38.6478C28.652 38.6497 25.8806 38.565 25.4725 38.7151L25.4147 38.642C25.5426 38.2438 25.5259 36.1774 25.2988 35.8214L25.4737 35.6797Z" fill="white"/>
<path d="M54.6826 87.6406L54.7458 87.6602C54.6266 88.3856 54.6568 89.7348 54.6855 90.4989C54.1523 90.4886 52.3425 90.4003 51.9585 90.553L51.872 90.6595L51.8594 90.5697C51.8976 90.3935 51.8721 88.1867 51.8748 87.8165C52.8439 87.6681 53.6822 87.8015 54.6826 87.6406Z" fill="white"/>
<path d="M83.916 87.6719L83.9899 87.6963C83.8458 88.0373 83.8998 89.9826 83.9042 90.4973C82.9623 90.5011 81.9914 90.4783 81.0469 90.4686C81.0691 89.5638 81.118 88.6598 81.1932 87.7579C82.0909 87.7535 83.0265 87.7668 83.916 87.6719Z" fill="white"/>
<path d="M65.0913 100.531C65.761 101.181 65.9982 100.807 66.8492 100.967L65.4849 101.101C65.7989 101.538 66.9312 101.486 67.422 101.362L67.5001 101.103C68.2764 101.736 67.5347 102.58 68.0502 103.49C68.2662 103.638 68.333 103.696 68.5763 103.784C68.3055 103.813 68.2886 103.808 68.062 103.948L67.9469 104.338L67.8592 103.982C67.3643 103.502 65.7855 103.671 65.0188 103.678C65.0544 103.097 65.2456 101.319 64.9316 100.899L65.0913 100.531Z" fill="white"/>
<path d="M29.206 22.3281C29.8574 22.8956 31.0767 22.6728 32.024 22.6439L32.0602 22.7144C32.0517 23.6268 32.0351 24.5511 32.0381 25.4624C31.5343 25.4587 30.2164 25.4221 29.7848 25.4945C29.8241 25.1072 29.9123 24.3925 29.5662 24.1646C29.5221 24.1964 29.4781 24.2283 29.434 24.2601C29.3666 24.5378 29.3288 24.7718 29.283 25.0515C29.183 24.2923 29.375 23.2215 29.1699 22.6198L29.206 22.3281Z" fill="white"/>
<path d="M102.841 117.878C103.104 118.629 102.733 119.998 103.071 120.436L103.249 120.417C103.458 120.131 103.348 118.481 103.654 117.414C103.693 118.498 103.714 119.582 103.716 120.666H100.922C100.86 119.789 100.883 118.633 100.877 117.734C101.653 117.875 102.043 117.915 102.841 117.878Z" fill="white"/>
<path d="M107.479 38.6047C107.489 38.0068 107.396 36.3005 107.806 35.9688C108.253 36.3359 109.555 36.5912 110.073 36.2873L110.171 36.1523C110.344 36.9754 110.225 38.0694 110.445 38.6472L110.322 38.7381C109.786 38.6193 108.114 38.6187 107.479 38.6047Z" fill="white"/>
<path d="M90.4716 35.8359L90.4957 35.8899C90.4896 36.8056 90.4899 37.7214 90.4965 38.6371C89.7889 38.6382 88.9156 38.6604 88.2232 38.6217C88.4038 38.5895 88.5964 38.5398 88.7757 38.4971C88.5603 37.5921 87.9236 38.1983 87.7798 36.6318C87.7457 36.4461 87.7897 36.3195 87.829 36.135C88.2373 35.7365 89.7154 35.8907 90.4716 35.8359Z" fill="white"/>
<path d="M72.6052 71.7369C73.1893 71.6333 73.8199 71.7409 74.4003 71.8657C74.4781 72.8025 74.4869 73.5289 74.4841 74.4711C73.6326 74.4926 72.2447 74.7138 71.6856 74.1827C71.6752 73.9842 71.6607 73.7772 71.6602 73.5796C72.6871 73.1099 72.461 74.1817 73.7859 73.7803L73.8762 73.592L73.5543 72.9058C73.5781 72.5636 73.5333 72.6977 73.7991 72.3905C73.5974 72.1344 72.9501 72.3336 72.3187 71.9384L72.6052 71.7369Z" fill="white"/>
<path d="M71.6945 71.4375C72.0569 71.6824 72.1763 71.6773 72.6065 71.7327L72.32 71.9342C72.9514 72.3294 73.5987 72.1301 73.8004 72.3863C73.5346 72.6935 73.5795 72.5594 73.5557 72.9016L73.8775 73.5877L73.7872 73.776C72.4623 74.1775 72.6884 73.1057 71.6615 73.5754C71.6598 72.9018 71.8392 72.21 71.5078 71.6629L71.6945 71.4375Z" fill="white"/>
<path d="M87.685 13.3336C87.6829 12.9933 87.6689 12.8934 87.8027 12.5731C88.1676 12.288 88.9124 12.1059 89.3597 12.2241C90.1668 12.4376 90.3603 12.2746 90.4808 13.0826C89.54 13.4433 88.4718 12.8599 87.685 13.3336Z" fill="white"/>
<path d="M78.2672 19.9244C78.2582 19.5995 78.2371 19.5145 78.3544 19.2098C78.9717 18.6364 80.1689 18.7497 80.8689 19.0699C81.0701 19.1621 81.0536 19.4376 81.0827 19.6258C80.2396 20.1307 79.05 19.3836 78.2672 19.9244Z" fill="white"/>
<path d="M103.725 55.2344C105.062 56.2379 103.569 57.2209 104.454 58.1528C105.33 58.2932 106.314 57.8822 106.885 58.4179C105.993 58.4927 104.607 58.4328 103.678 58.4193L103.725 55.2344Z" fill="white"/>
<path d="M94.2695 62.1962C94.3058 60.7792 96.7228 61.2614 96.9985 61.6228C96.7733 61.8295 96.6878 61.9716 96.5462 62.2418C96.1617 62.457 94.9221 62.1928 94.48 62.0795L94.2695 62.1962Z" fill="white"/>
<path d="M45.2704 101.843C45.2643 101.626 45.2924 101.44 45.3168 101.225C45.8165 100.678 47.4994 100.761 48.0146 101.21C46.5722 102.416 46.0933 101.318 45.2704 101.843Z" fill="white"/>
<path d="M100.877 117.727C100.918 116.463 102.309 116.897 103.239 116.994L102.799 117.44C102.809 117.603 102.808 117.709 102.841 117.871C102.043 117.907 101.653 117.867 100.877 117.727Z" fill="white"/>
<path d="M103.238 117L103.587 117.114C103.622 117.231 103.655 117.297 103.653 117.413C103.347 118.48 103.458 120.13 103.248 120.416L103.07 120.435C102.732 119.997 103.103 118.627 102.84 117.877C102.808 117.715 102.808 117.609 102.799 117.446L103.238 117Z" fill="white"/>
<path d="M87.6033 47.4154L87.5428 47.4189L87.3633 47.6271C87.0771 47.6401 87.1685 47.6777 86.9715 47.5285C86.78 46.8907 86.6127 46.4711 86.8617 45.8464C87.2479 45.7543 87.234 45.8245 87.6731 45.9613C87.6702 46.3273 87.6918 47.0963 87.6033 47.4154Z" fill="white"/>
<path d="M26.4966 35.9022C27.2471 35.8201 28.5251 35.8141 29.2298 36.0664C28.712 36.5791 26.7304 36.5697 26.1816 36.1241L26.4966 35.9022Z" fill="white"/>
<path d="M22.4754 28.7525L22.0631 28.6898C21.3183 27.8055 22.4578 27.525 21.6152 26.2857L21.6759 26.0703L22.4618 26.4599C22.4308 27.2488 22.2898 28.0319 22.4754 28.7525Z" fill="white"/>
<path d="M87.7788 36.6328C87.9226 38.1993 88.5593 37.5932 88.7747 38.4981C88.5954 38.5408 88.4028 38.5905 88.2223 38.6227C88.036 38.6349 87.9988 38.6105 87.8164 38.57C87.5048 38.1471 87.7091 37.1789 87.7788 36.6328Z" fill="white"/>
<path d="M18.8651 46.0234L19.3269 46.249C19.4635 47.0076 19.4302 47.3587 19.4185 48.1231C19.1758 48.0781 19.1615 48.0525 18.9597 47.8979C18.7662 47.3943 18.8548 46.6065 18.8651 46.0234Z" fill="white"/>
<path d="M107.807 35.9736C108.562 35.8411 109.465 35.7912 110.172 36.1572L110.074 36.2921C109.556 36.596 108.254 36.3408 107.807 35.9736Z" fill="white"/>
<path d="M94.6289 29.3769C95.3998 29.2385 95.9945 29.2025 96.7549 29.4253C96.8336 29.4961 96.9559 29.5877 96.997 29.6739C96.2628 29.8908 95.2845 29.7913 94.6289 29.3769Z" fill="white"/>
<path d="M44.7533 2.91808C44.5408 2.65616 44.4847 2.60655 44.416 2.28014C44.6176 1.8607 44.7996 1.87569 45.2878 1.61719C45.3193 2.1524 45.4353 2.50309 45.1361 2.84794L44.7533 2.91808Z" fill="white"/>
<path d="M66.8487 100.961C67.0228 100.99 67.349 101.031 67.4996 101.098L67.4215 101.356C66.9307 101.48 65.7984 101.532 65.4844 101.095L66.8487 100.961Z" fill="white"/>
<path d="M93.5813 22.6784C93.4335 22.2458 93.3775 22.1503 93.6267 21.7927C93.9535 21.7778 94.0094 21.8079 94.3309 21.8973C94.3468 22.3391 94.4169 22.303 94.2089 22.6033C93.9758 22.6414 93.817 22.6714 93.5813 22.6784Z" fill="white"/>
<path d="M64.5896 116.896L64.633 116.721L64.3588 116.559C64.2499 115.764 64.6933 116.114 64.8822 115.508C64.9074 115.869 64.9408 116.634 65.0136 116.951L64.5896 116.896Z" fill="white"/>
<path d="M29.2832 25.051C29.3289 24.7713 29.3667 24.5372 29.4341 24.2596C29.4782 24.2278 29.5223 24.1959 29.5664 24.1641C29.9124 24.392 29.8243 25.1067 29.7849 25.4939C29.6183 25.4475 29.4988 25.3932 29.3399 25.3284L29.2832 25.051Z" fill="white"/>
<path d="M18.8809 26.1508C18.9135 25.7295 18.852 25.8804 19.0907 25.5625L19.1638 25.8818L19.2163 25.8852C19.6668 25.9189 19.7426 25.9459 20.07 26.2516C19.8352 26.4619 19.8876 26.3945 19.4987 26.4315C19.3392 26.3457 19.0462 26.1633 18.8809 26.1508Z" fill="white"/>
<path d="M67.8839 8.40625C67.925 8.84522 67.9302 8.91248 68.1234 9.31059C68.3882 9.52002 68.8724 9.48181 69.2369 9.49331C68.9614 9.54167 67.9065 9.61644 67.8718 9.6298L67.7578 9.54673C67.7934 9.16588 67.8353 8.78566 67.8839 8.40625Z" fill="white"/>
</g>
<defs>
<clipPath id="clip0_91055_28723">
<rect width="120.662" height="120.662" fill="white"/>
</clipPath>
</defs>
</svg>
