<svg width="160" height="150" viewBox="0 0 160 150" fill="none" xmlns="http://www.w3.org/2000/svg">
<path d="M48.9066 83.3161L29.0399 83.3161H11.354C10.5879 83.3161 9.9668 82.695 9.9668 81.9289C9.9668 81.1628 10.5879 80.5417 11.354 80.5417H12.5816C13.7106 80.5417 14.6259 79.6264 14.6259 78.4974C14.6259 77.3684 15.5411 76.4531 16.6702 76.4531H17.1681C18.2568 76.4531 19.1393 75.5705 19.1393 74.4818C19.1393 73.3931 20.0219 72.5105 21.1106 72.5105H21.4763C22.7026 72.5105 23.7203 71.5627 23.8074 70.3395L23.9063 68.9524C23.9313 68.6008 24.001 68.2522 24.1789 67.9478C24.6512 67.1397 25.9096 65.5761 28.6031 65.5019C32.243 65.4016 33.614 66.6225 34.4269 68.1304C34.5482 68.3554 34.6397 68.6106 34.7077 68.8821C35.1697 70.726 36.4677 72.5105 38.3685 72.5105H39.4442C40.5329 72.5105 41.4155 73.3931 41.4155 74.4818V74.5267C41.4155 75.5906 42.278 76.4531 43.3419 76.4531C44.3792 76.4531 45.2302 77.2744 45.2672 78.311L45.2738 78.4974C45.3144 79.638 46.251 80.5417 47.3923 80.5417H47.9673H48.9067C49.6728 80.5417 50.2938 81.1628 50.2938 81.9289C50.2938 82.695 49.6727 83.3161 48.9066 83.3161Z" fill="#F8E8EE" stroke="#363434" stroke-width="1.5"/>
<path d="M43.7215 81.5911H29.0827H17.0064C16.4969 81.5911 16.084 81.1781 16.084 80.6687C16.084 80.1593 16.4969 79.7463 17.0064 79.7463H17.9C18.6507 79.7463 19.2592 79.1377 19.2592 78.387C19.2592 77.6363 19.8678 77.0277 20.6185 77.0277H21.0245C21.7484 77.0277 22.3353 76.4409 22.3353 75.717C22.3353 74.9931 22.9221 74.4062 23.646 74.4062H23.9294C24.7647 74.4062 25.4584 73.7613 25.5192 72.9282L25.5835 72.0479C25.6009 71.8091 25.6494 71.5726 25.7728 71.3675C26.0969 70.8288 26.9549 69.7952 28.785 69.746C31.2657 69.6793 32.2001 70.4912 32.7541 71.4938C32.8271 71.6259 32.8843 71.7738 32.9286 71.9309C33.2803 73.1783 34.1494 74.4062 35.4455 74.4062H36.2063C36.9302 74.4062 37.517 74.9931 37.517 75.717C37.517 76.4409 38.1039 77.0277 38.8278 77.0277H39.0488C39.6644 77.0277 40.2005 77.4477 40.348 78.0453L40.3874 78.2048C40.5118 78.7088 40.9639 79.063 41.4831 79.063C41.968 79.063 42.3987 79.3727 42.553 79.8325L42.5957 79.9596C42.711 80.303 43.0156 80.5478 43.3757 80.5865L43.7731 80.6293C44.0181 80.6556 44.2038 80.8624 44.2038 81.1088C44.2038 81.3751 43.9879 81.5911 43.7215 81.5911Z" fill="#F4D0DE"/>
<g filter="url(#filter0_d_91055_28630)">
<g clip-path="url(#clip0_91055_28630)">
<path d="M43.9668 57.6992C43.9668 42.6143 43.9668 35.0718 48.6531 30.3855C53.3394 25.6992 60.8819 25.6992 75.9668 25.6992H83.9668C99.0517 25.6992 106.594 25.6992 111.281 30.3855C115.967 35.0718 115.967 42.6143 115.967 57.6992V83.6992C115.967 98.7842 115.967 106.327 111.281 111.013C106.594 115.699 99.0517 115.699 83.9668 115.699H75.9668C60.8819 115.699 53.3394 115.699 48.6531 111.013C43.9668 106.327 43.9668 98.7842 43.9668 83.6992V57.6992Z" fill="#87BAF9"/>
<path d="M38.5176 25.2852V115.414C38.5176 115.414 55.8785 113.087 52.7184 112.547C44.6154 111.164 41.8485 47.921 55.2876 35.6677C68.7267 23.4144 111.613 27.1695 114.689 33.0985C115.47 34.6022 114.689 25.2852 114.689 25.2852H38.5176Z" fill="white" fill-opacity="0.3"/>
<path d="M114.834 115.007H51.5918L66.4172 112.829C87.4775 109.736 105.623 96.3779 114.834 77.1875V115.007Z" fill="black" fill-opacity="0.1"/>
<path d="M75.6392 55.3644C70.2105 49.4764 64.7835 49.8003 61.2521 53.6305C57.7207 57.4608 57.7207 63.6708 61.2521 67.5011C64.7835 71.3313 70.072 71.8055 75.6392 65.7673L80.4348 60.5658L85.228 55.3644C91.1069 48.9825 96.0836 49.8003 99.6151 53.6305C103.147 57.4608 103.147 63.6708 99.6151 67.5011C96.0836 71.3313 90.4465 71.4267 85.2287 65.7673" stroke="#1D4BD2" stroke-width="4" stroke-linecap="round"/>
</g>
<path d="M75.9668 26.1992H83.9668C91.5231 26.1992 97.1402 26.2001 101.456 26.7803C105.758 27.3586 108.692 28.5045 110.927 30.7393C113.162 32.974 114.307 35.9084 114.886 40.21C115.466 44.5259 115.467 50.1429 115.467 57.6992V83.6992C115.467 91.2555 115.466 96.8726 114.886 101.188C114.307 105.49 113.162 108.424 110.927 110.659C108.692 112.894 105.758 114.04 101.456 114.618C97.1402 115.198 91.5231 115.199 83.9668 115.199H75.9668C68.4105 115.199 62.7934 115.198 58.4775 114.618C54.176 114.04 51.2416 112.894 49.0068 110.659C46.7721 108.424 45.6262 105.49 45.0479 101.188C44.4677 96.8726 44.4668 91.2555 44.4668 83.6992V57.6992C44.4668 50.1429 44.4677 44.5259 45.0479 40.21C45.6262 35.9084 46.7721 32.974 49.0068 30.7393C51.2416 28.5045 54.176 27.3586 58.4775 26.7803C62.7934 26.2001 68.4105 26.1992 75.9668 26.1992Z" stroke="url(#paint0_linear_91055_28630)"/>
</g>
<path d="M148.647 53.1599L128.78 53.1598H111.094C110.328 53.1598 109.707 52.5388 109.707 51.7726C109.707 51.0065 110.328 50.3854 111.094 50.3854H112.322C113.451 50.3854 114.366 49.4702 114.366 48.3411C114.366 47.2121 115.281 46.2968 116.41 46.2968H116.908C117.997 46.2968 118.88 45.4143 118.88 44.3256C118.88 43.2368 119.762 42.3543 120.851 42.3543H121.217C122.443 42.3543 123.461 41.4065 123.548 40.1833L123.646 38.7961C123.672 38.4445 123.741 38.0959 123.919 37.7916C124.391 36.9835 125.65 35.4198 128.343 35.3456C131.983 35.2453 133.354 36.4663 134.167 37.9742C134.288 38.1991 134.38 38.4543 134.448 38.7259C134.91 40.5697 136.208 42.3543 138.109 42.3543H139.184C140.273 42.3543 141.156 43.2368 141.156 44.3256V44.3704C141.156 45.4343 142.018 46.2968 143.082 46.2968C144.119 46.2968 144.97 47.1181 145.007 48.1547L145.014 48.3411C145.055 49.4818 145.991 50.3854 147.133 50.3854H147.708H148.647C149.413 50.3854 150.034 51.0065 150.034 51.7726C150.034 52.5388 149.413 53.1599 148.647 53.1599Z" fill="#F8E8EE" stroke="white" stroke-width="1.5"/>
<path d="M143.462 51.4348H128.823H116.747C116.237 51.4348 115.824 51.0218 115.824 50.5124C115.824 50.003 116.237 49.59 116.747 49.59H117.64C118.391 49.59 118.999 48.9815 118.999 48.2308C118.999 47.48 119.608 46.8715 120.359 46.8715H120.765C121.489 46.8715 122.076 46.2846 122.076 45.5607C122.076 44.8368 122.662 44.25 123.386 44.25H123.67C124.505 44.25 125.199 43.6051 125.259 42.7719L125.324 41.8916C125.341 41.6529 125.39 41.4163 125.513 41.2112C125.837 40.6725 126.695 39.639 128.525 39.5898C131.006 39.5231 131.94 40.3349 132.494 41.3376C132.567 41.4697 132.625 41.6175 132.669 41.7747C133.021 43.0221 133.89 44.25 135.186 44.25H135.946C136.67 44.25 137.257 44.8368 137.257 45.5607C137.257 46.2846 137.844 46.8715 138.568 46.8715H138.789C139.405 46.8715 139.941 47.2914 140.088 47.8891L140.128 48.0485C140.252 48.5525 140.704 48.9067 141.223 48.9067C141.708 48.9067 142.139 49.2165 142.293 49.6762L142.336 49.8034C142.451 50.1468 142.756 50.3916 143.116 50.4303L143.513 50.473C143.758 50.4993 143.944 50.7061 143.944 50.9525C143.944 51.2189 143.728 51.4348 143.462 51.4348Z" fill="#F4D0DE"/>
<path d="M84.3843 113.444C84.0156 112.938 84.1273 112.229 84.6336 111.86C85.14 111.491 85.8493 111.603 86.218 112.109L96.4632 126.182C96.8319 126.688 96.7202 127.398 96.2139 127.766C95.7075 128.135 94.9982 128.023 94.6295 127.517L84.3843 113.444Z" fill="#0D1954" fill-opacity="0.4"/>
<path d="M88.9362 121.824C88.4634 121.175 88.6066 120.265 89.2561 119.792L90.676 118.759C91.3255 118.286 92.2353 118.429 92.7082 119.078L102.576 132.633C103.049 133.282 102.906 134.192 102.256 134.665L100.836 135.699C100.187 136.172 99.277 136.028 98.8042 135.379L88.9362 121.824Z" fill="#0D1954" fill-opacity="0.4"/>
<circle cx="75.2023" cy="98.9918" r="18.0121" transform="rotate(-36.0553 75.2023 98.9918)" fill="#0D1954" fill-opacity="0.4"/>
<circle cx="75.2011" cy="98.9959" r="14.8153" transform="rotate(-36.0553 75.2011 98.9959)" fill="#0D1954" fill-opacity="0.4"/>
<mask id="mask0_91055_28630" style="mask-type:alpha" maskUnits="userSpaceOnUse" x="60" y="84" width="31" height="30">
<circle cx="75.2011" cy="98.9887" r="14.8153" transform="rotate(-6.53943 75.2011 98.9887)" fill="#0D1954" fill-opacity="0.4"/>
</mask>
<g mask="url(#mask0_91055_28630)">
<rect x="77.7969" y="79.5664" width="9.67056" height="36.5769" transform="rotate(29.5159 77.7969 79.5664)" fill="#0D1954" fill-opacity="0.4"/>
<rect x="87.9258" y="85.3008" width="3.75413" height="36.5769" transform="rotate(29.5159 87.9258 85.3008)" fill="#0D1954" fill-opacity="0.4"/>
</g>
<path d="M89.3901 113.444C89.0215 112.938 89.1331 112.229 89.6395 111.86C90.1459 111.491 90.8552 111.603 91.2238 112.109L101.469 126.182C101.838 126.688 101.726 127.398 101.22 127.766C100.713 128.135 100.004 128.023 99.6354 127.517L89.3901 113.444Z" fill="#FFDD66" stroke="#0B0E33" stroke-width="1.2" stroke-linejoin="round"/>
<path d="M93.9421 121.824C93.4692 121.175 93.6124 120.265 94.2619 119.792L95.6819 118.759C96.3314 118.286 97.2412 118.429 97.714 119.078L107.582 132.633C108.055 133.282 107.912 134.192 107.262 134.665L105.842 135.699C105.193 136.172 104.283 136.028 103.81 135.379L93.9421 121.824Z" fill="#FFDD66" stroke="#0B0E33" stroke-width="1.2" stroke-linejoin="round"/>
<circle cx="80.2082" cy="98.9918" r="18.0121" transform="rotate(-36.0553 80.2082 98.9918)" fill="#DDEEFF" stroke="#0B0E33" stroke-width="1.2"/>
<circle cx="80.207" cy="98.9959" r="15.4153" transform="rotate(-36.0553 80.207 98.9959)" fill="#DDEEFF" stroke="#0B0E33" stroke-width="1.2"/>
<mask id="mask1_91055_28630" style="mask-type:alpha" maskUnits="userSpaceOnUse" x="65" y="84" width="31" height="30">
<circle cx="80.207" cy="98.9926" r="14.8153" transform="rotate(-6.53943 80.207 98.9926)" fill="white"/>
</mask>
<g mask="url(#mask1_91055_28630)">
<rect x="82.8027" y="79.5664" width="9.67056" height="36.5769" transform="rotate(29.5159 82.8027 79.5664)" fill="white"/>
<rect x="92.9316" y="85.3008" width="3.75413" height="36.5769" transform="rotate(29.5159 92.9316 85.3008)" fill="white"/>
</g>
<defs>
<filter id="filter0_d_91055_28630" x="14.2668" y="-0.000782013" width="131.4" height="149.4" filterUnits="userSpaceOnUse" color-interpolation-filters="sRGB">
<feFlood flood-opacity="0" result="BackgroundImageFix"/>
<feColorMatrix in="SourceAlpha" type="matrix" values="0 0 0 0 0 0 0 0 0 0 0 0 0 0 0 0 0 0 127 0" result="hardAlpha"/>
<feOffset dy="4"/>
<feGaussianBlur stdDeviation="14.85"/>
<feComposite in2="hardAlpha" operator="out"/>
<feColorMatrix type="matrix" values="0 0 0 0 0 0 0 0 0 0.335294 0 0 0 0 1 0 0 0 0.68 0"/>
<feBlend mode="normal" in2="BackgroundImageFix" result="effect1_dropShadow_91055_28630"/>
<feBlend mode="normal" in="SourceGraphic" in2="effect1_dropShadow_91055_28630" result="shape"/>
</filter>
<linearGradient id="paint0_linear_91055_28630" x1="119.711" y1="112.655" x2="49.1156" y2="19.8433" gradientUnits="userSpaceOnUse">
<stop stop-color="#0055FF"/>
<stop offset="1" stop-color="#DBE7FF"/>
</linearGradient>
<clipPath id="clip0_91055_28630">
<path d="M43.9668 57.6992C43.9668 42.6143 43.9668 35.0718 48.6531 30.3855C53.3394 25.6992 60.8819 25.6992 75.9668 25.6992H83.9668C99.0517 25.6992 106.594 25.6992 111.281 30.3855C115.967 35.0718 115.967 42.6143 115.967 57.6992V83.6992C115.967 98.7842 115.967 106.327 111.281 111.013C106.594 115.699 99.0517 115.699 83.9668 115.699H75.9668C60.8819 115.699 53.3394 115.699 48.6531 111.013C43.9668 106.327 43.9668 98.7842 43.9668 83.6992V57.6992Z" fill="white"/>
</clipPath>
</defs>
</svg>
