<svg width="64" height="57" viewBox="0 0 64 57" fill="none" xmlns="http://www.w3.org/2000/svg">
<path d="M16.0244 18.188L21.5255 28.2899C21.9311 29.0348 21.6978 29.9663 20.989 30.432L20.7653 30.5789L13.7012 30.9864L8.33697 20.297C8.1305 19.8856 8.17458 19.3927 8.45077 19.0245C8.6308 18.7844 8.89335 18.6196 9.18776 18.5618L14.5695 17.5046C15.1517 17.3903 15.7407 17.6669 16.0244 18.188Z" fill="white" fill-opacity="0.5"/>
<path d="M13.7026 30.8495L8.60389 20.6521C8.36543 20.1752 8.64154 19.6016 9.16304 19.4904L13.8365 18.4945C14.4202 18.3701 15.0167 18.6412 15.3068 19.1627L21.1579 29.6801C21.3535 30.0316 21.1128 30.4662 20.7112 30.487L13.7026 30.8495Z" fill="white" stroke="black" stroke-width="0.23871"/>
<path d="M51.9459 29.3397C56.3284 33.1379 57.0183 48.4524 56.8154 55.6349L26.1377 56.1218L26.6247 45.2872C24.7986 49.0611 20.4161 55.3589 17.251 53.5653C13.5989 51.4958 10.7988 36.2787 9.70319 32.6266C8.60755 28.9745 7.97158 27.2308 8.72933 24.105C9.70322 20.0877 15.7901 21.1834 15.7901 21.1834L15.6683 22.6239L13.3553 22.6442L15.6683 23.0094L15.5466 24.7137C15.5466 24.7137 14.455 24.7418 13.8993 24.723C15.0205 24.8355 15.7901 25.9311 15.7901 25.9311L15.5466 27.0267C15.5466 27.0267 14.0452 26.702 13.7205 27.0267C16.3501 29.5588 15.5466 31.3281 14.938 32.1396C15.2301 36.5222 18.0625 41.2699 19.3204 42.8525C20.6596 40.6612 21.6562 37.75 23.3378 34.5744C25.0321 31.3746 25.529 28.1289 28.329 26.5397C35.3897 22.5322 37.581 23.0905 39.7722 23.2529C42.0041 23.6992 47.5634 25.5415 51.9459 29.3397Z" fill="#E59E7C" stroke="black" stroke-width="0.23871"/>
<path d="M15.6683 23.0221C14.2075 22.7786 12.7466 22.5352 11.1641 22.5352" stroke="black" stroke-width="0.23871"/>
<path d="M14.9373 25.0885C13.7199 24.6016 12.5025 24.4798 11.2852 24.7233" stroke="black" stroke-width="0.23871"/>
<path d="M51.9446 29.3338C56.3271 33.132 57.017 48.4465 56.8141 55.629L26.1364 56.1159L26.6234 45.2813C24.7973 49.0552 20.4148 55.353 17.2496 53.5594C13.5975 51.4899 12.1366 47.4725 11.041 43.8204C12.5425 44.1451 15.6427 44.0396 17.0061 39.0727C18.1018 40.8988 18.467 41.6292 19.3191 42.8466C20.4148 41.0205 20.9973 38.6919 22.4843 35.4206C23.3364 33.5458 24.6755 28.4882 27.4755 26.899C34.5362 22.8915 37.5797 23.0846 39.7709 23.2469C42.0028 23.6933 47.5621 25.5356 51.9446 29.3338Z" fill="#FBE277" stroke="black" stroke-width="0.23871"/>
<path d="M44.5205 29.32C43.5465 26.6418 41.8423 23.2332 39.2858 23.9636C38.9206 24.4505 31.1294 30.0719 30.6425 36.7674C34.538 37.6195 34.2992 34.3308 36.4858 34.8196C38.4279 35.2538 42.0207 37.9877 43.1814 37.3546C45.8596 35.8938 41.1372 33.5567 41.8423 31.8765C42.4017 30.5432 44.9949 30.6244 44.5205 29.32Z" fill="black"/>
<path d="M39.6484 25.1991C39.6484 25.1991 41.5962 24.347 41.5962 23.7383C41.5962 23.7383 48.7787 26.173 52.4308 29.8251C53.8916 31.7729 54.825 34.1265 55.109 35.6685L54.5003 37.2511C54.9217 36.1554 53.283 31.8947 51.3352 30.0686C48.657 27.3904 41.8397 25.3209 39.6484 25.1991Z" fill="#FFFBFB"/>
<path d="M29.3005 28.7337C29.7875 27.638 31.857 22.8903 34.7787 23.499C34.3891 23.6938 35.1439 24.2294 35.5091 32.0206C34.7787 34.2118 32.4657 37.304 30.2745 36.6466C26.9091 35.6369 32.5874 32.3858 31.0048 31.2901C29.4223 30.1945 28.7368 30.002 29.3005 28.7337Z" fill="#DBDCF2" stroke="black" stroke-width="0.23871"/>
<path d="M45.0049 28.7302C44.0309 26.0519 42.3266 22.6434 39.7702 23.3737C39.405 23.8607 38.0658 24.4694 37.7006 32.2605C39.0303 34.1084 41.1981 38.1108 43.6657 36.7648C46.3439 35.3039 41.6216 32.9669 42.3266 31.2866C42.8861 29.9533 45.4792 30.0346 45.0049 28.7302Z" fill="#DBDCF2" stroke="black" stroke-width="0.23871"/>
<path d="M28.8157 6.21015C29.0194 5.25867 29.5461 4.62757 30.0517 4.14062H35.9981V20.9586C35.6678 21.1533 34.908 21.5659 34.5115 21.6594C34.016 21.7762 33.6443 20.9586 33.0249 20.725C32.4055 20.4915 32.4055 21.309 31.5383 21.5426C30.6711 21.7762 30.1755 20.9586 29.8039 20.9586C29.4323 20.9586 28.6889 21.893 27.6978 20.725C26.7067 19.5571 29.4323 17.922 28.3173 16.7541C27.2023 15.5862 28.3173 13.6008 28.3173 13.6008C28.3173 13.6008 29.8349 11.1863 29.1844 10.097C28.3173 8.64489 28.5197 7.59273 28.8157 6.21015Z" fill="black" stroke="black" stroke-width="0.23871"/>
<path d="M30.6688 6.26116C30.9528 4.94905 32.0493 4.46482 32.562 4.38672L40.0165 4.62102L39.4248 12.1188C39.7009 10.4006 41.2317 8.75881 42.936 9.74314C44.6403 10.7275 43.6221 14.5321 42.0838 15.5865C41.2067 16.1877 40.1349 15.7115 39.6616 15.2819L39.7799 22.6625C39.4959 29.2231 38.9516 32.3862 36.8218 32.3862C35.7312 32.3862 35.0942 31.5661 34.9286 30.7461C34.5736 28.9888 34.4158 24.2636 34.3369 21.1395C33.0353 21.0224 32.233 20.6709 31.7337 20.3195C29.6038 18.8204 29.7223 14.6962 30.1955 12.1188C30.6688 10.2444 30.3138 7.9013 30.6688 6.26116Z" fill="#E59E7C" stroke="black" stroke-width="0.23871"/>
<path d="M35.3872 11.3228C35.2655 10.7141 34.1699 10.2272 33.0742 11.0794V11.5663C33.0742 11.5663 35.022 12.0532 35.3872 11.3228Z" fill="white"/>
<ellipse cx="33.9175" cy="11.4342" rx="0.384261" ry="0.512348" fill="black"/>
<path d="M32.9551 11.0779C34.0507 10.104 34.9029 10.7127 35.3898 11.3214" stroke="black" stroke-width="0.23871"/>
<path d="M32.832 9.56491C34.0372 8.6857 35.7975 9.86929 36.1189 10.6606" stroke="black" stroke-width="0.23871"/>
<path d="M30.1543 9.75168C30.3978 9.02131 31.5324 9.15823 31.7369 9.75168" stroke="black" stroke-width="0.23871"/>
<path d="M31.7375 11.4387C31.8593 10.7083 30.8448 10.4648 30.5202 10.4648L30.3984 11.4387H31.7375Z" fill="white"/>
<path d="M30.3984 10.4672C30.7393 10.4059 31.5087 10.4672 31.8593 11.2034" stroke="black" stroke-width="0.23871"/>
<ellipse cx="31.0991" cy="11.4342" rx="0.384261" ry="0.512348" fill="black"/>
<path d="M32.2252 6.45139C30.7643 6.45139 27.5992 5.11234 28.6948 1.82544C28.9473 1.068 30.2662 0.703393 30.886 0.608041C32.4686 0.364593 32.9555 1.09498 34.1729 1.09498C35.0251 1.09497 34.5381 0.121094 36.2424 0.121094C37.9467 0.121094 37.5817 1.33131 38.6773 1.46022C40.7469 1.70374 41.5989 0.703654 43.4249 1.09498C45.1293 1.46022 45.9687 2.35718 46.225 3.89496C46.4684 5.35581 45.6163 7.54707 45.251 9.00791C44.8858 10.4688 46.712 10.5905 47.5641 11.9296C48.1307 12.8202 47.943 13.3791 47.5641 14.3643C46.9553 15.947 45.5218 16.0708 47.5641 17.5295C50.1205 19.3555 49.7594 21.1796 48.2945 21.912C47.3206 22.399 46.7118 21.3033 45.6163 21.4251C44.5207 21.5468 45.1142 22.6397 43.7902 22.399C42.4511 22.1555 42.4512 20.086 40.9903 21.0599C39.5294 22.0338 38.9405 21.5039 38.6773 20.4512C38.0686 18.0164 38.9207 14.7295 39.6512 15.2165C40.5126 15.7908 41.3555 15.2165 41.3555 15.2165C41.3555 15.2165 42.5927 14.4861 42.938 13.3904C43.3054 12.2247 42.9786 11.1992 42.3294 10.7122C41.8424 10.347 40.8685 9.98181 39.5294 12.173C38.1902 14.3642 38.6713 9.34572 37.3381 8.15571C35.7679 6.75416 34.3299 6.45139 32.2252 6.45139Z" fill="black" stroke="black" stroke-width="0.23871"/>
<path d="M35.9976 6.68993C33.6846 6.44646 31.7368 6.32472 28.6934 4.01172C29.1803 6.9334 33.3139 7.33828 35.9976 7.78556C37.4584 8.02904 38.554 8.27251 38.9193 9.12467C38.9193 8.15077 37.2697 6.82384 35.9976 6.68993Z" fill="black"/>
<path d="M32.1015 10.4648C32.1015 11.7788 31.8671 13.3271 30.7082 15.1099C30.6663 15.1743 30.6546 15.2569 30.6999 15.319C30.9198 15.6209 31.5838 15.9441 32.3449 15.7514" stroke="black" stroke-width="0.23871"/>
<path d="M35.5807 16.043C34.7042 17.309 32.9531 17.2455 32.2227 17.1644C32.7628 17.8362 33.5314 18.2204 34.8122 17.8362C35.8369 17.4519 35.7326 16.4144 35.5807 16.043Z" fill="white" stroke="black" stroke-width="0.23871"/>
<path d="M26.8668 41.3906L26.7451 45.2862C22.9712 52.1035 20.0495 54.2947 18.1018 53.9295C13.7192 52.2252 11.6903 46.463 11.041 43.8254C11.2845 44.0688 11.528 43.9471 11.528 43.9471C17.0061 53.5643 18.7104 52.5904 20.4147 51.373C22.0809 50.183 25.5277 45.1239 26.8668 41.3906Z" fill="black"/>
<path d="M48.5391 41.0273C48.5391 41.0273 49.5134 44.3272 49.6347 46.5055C49.7676 48.8907 49.026 52.5923 49.026 52.5923" stroke="black" stroke-width="0.23871"/>
<path d="M49.6175 46.5782C49.4956 44.4175 48.5169 41.1445 48.5169 41.1445C48.5169 45.2499 48.9028 48.6922 45.3724 51.7356C41.2334 54.9008 28.2076 52.4948 26.2598 55.9964L48.5169 55.6312C48.5169 55.6312 49.7878 49.5968 49.6175 46.5782Z" fill="black"/>
<path d="M37.701 19.7188C36.7962 21.0277 35.3356 21.0189 34.4141 21.0579V22.397C35.5097 22.397 36.8488 22.0318 37.701 19.7188Z" fill="black"/>
<path d="M20.6621 46.0077C20.7389 45.4965 19.5616 43.2166 19.1992 42.8543C20.2948 41.3934 22.9731 34.2109 22.9731 34.2109C22.9731 34.2109 20.7799 45.3984 20.6621 46.0077C20.6615 46.0117 20.6608 46.0156 20.6601 46.0194C20.6556 46.0419 20.6564 46.0371 20.6621 46.0077Z" fill="black"/>
<line x1="2.54983e-08" y1="55.8294" x2="64" y2="55.8294" stroke="white" stroke-width="0.583333"/>
</svg>
