<svg width="64" height="57" viewBox="0 0 64 57" fill="none" xmlns="http://www.w3.org/2000/svg">
<path d="M52.5127 5.9248H55.1309C55.4147 5.9248 55.6455 6.15461 55.6455 6.43848V55.6943H51.999V6.43848C51.999 6.15461 52.2288 5.9248 52.5127 5.9248Z" fill="#6691D1" stroke="black" stroke-width="0.583333"/>
<path d="M39.0176 0.291992C39.3014 0.292022 39.5312 0.521817 39.5312 0.805664V55.2979H36.0869V0.291992H39.0176Z" fill="#1563AB" stroke="black" stroke-width="0.583333"/>
<path d="M52.0195 55.6943H32.4619V16.1396L52.0195 6.11035V55.6943Z" fill="#8DBBFF" stroke="black" stroke-width="0.583333"/>
<path d="M47.0741 55.7944V49.1796C47.0741 47.3998 45.6313 45.957 43.8515 45.957C42.0717 45.957 40.6289 47.3998 40.6289 49.1796V55.7944H47.0741Z" fill="#6183B6" stroke="#363434" stroke-width="0.583333"/>
<path d="M46.7355 55.4598V49.1842C46.7355 47.5917 45.4446 46.3008 43.8521 46.3008C42.2597 46.3008 40.9688 47.5917 40.9688 49.1842V55.4598H46.7355Z" fill="#8FA1CE"/>
<path d="M40.9688 49.0146V54.7813L45.4406 47.3283C45.7119 46.8761 45.3862 46.3008 44.8588 46.3008H43.6825C42.1837 46.3008 40.9688 47.5158 40.9688 49.0146Z" fill="#6482BD"/>
<path d="M45.3789 53.0742H46.7358" stroke="#363434" stroke-width="0.583333"/>
<rect x="16.3483" y="0.291667" width="19.5579" height="55.4094" fill="#449CED" stroke="black" stroke-width="0.583333"/>
<rect x="11.112" y="28.0885" width="19.5579" height="27.6144" fill="#85BEE1" stroke="#333333" stroke-width="0.583333"/>
<rect x="8.29167" y="28.0885" width="19.5579" height="27.6144" fill="#B2E2FF" stroke="#333333" stroke-width="0.583333"/>
<path d="M41.0317 38.6701C41.2542 38.6701 41.4346 38.4215 41.4346 38.1149V21.0982C41.4346 20.7916 41.2542 20.543 41.0317 20.543C40.8093 20.543 40.6289 20.7916 40.6289 21.0982V38.1149C40.6289 38.4215 40.8093 38.6701 41.0317 38.6701Z" fill="black"/>
<path d="M46.2661 38.6701C46.4886 38.6701 46.6689 38.4215 46.6689 38.1149V21.0982C46.6689 20.7916 46.4886 20.543 46.2661 20.543C46.0436 20.543 45.8633 20.7916 45.8633 21.0982V38.1149C45.8633 38.4215 46.0436 38.6701 46.2661 38.6701Z" fill="black"/>
<path d="M13.6431 33.3047C13.4206 33.3047 13.2402 33.6091 13.2402 33.9845V40.3569C13.2402 40.7323 13.4206 41.0367 13.6431 41.0367C13.8655 41.0367 14.0459 40.7323 14.0459 40.3569V33.9845C14.0459 33.6091 13.8655 33.3047 13.6431 33.3047Z" fill="black"/>
<path d="M18.0845 33.3047C17.862 33.3047 17.6816 33.6091 17.6816 33.9845V40.3569C17.6816 40.7323 17.862 41.0367 18.0845 41.0367C18.3069 41.0367 18.4873 40.7323 18.4873 40.3569V33.9845C18.4873 33.6091 18.3069 33.3047 18.0845 33.3047Z" fill="black"/>
<path d="M22.9267 40.3569V33.9845C22.9267 33.6091 22.7464 33.3047 22.5239 33.3047C22.3015 33.3047 22.1211 33.6091 22.1211 33.9845V40.3569C22.1211 40.7323 22.3015 41.0367 22.5239 41.0367C22.7464 41.0367 22.9267 40.7323 22.9267 40.3569Z" fill="black"/>
<path d="M20.0669 10.3551C20.2893 10.3551 20.4697 10.0507 20.4697 9.67529V6.96883C20.4697 6.59343 20.2893 6.28906 20.0669 6.28906C19.8444 6.28906 19.6641 6.59343 19.6641 6.96883V9.67529C19.6641 10.0507 19.8444 10.3551 20.0669 10.3551Z" fill="black"/>
<path d="M25.7739 10.3551C25.9964 10.3551 26.1767 10.0507 26.1767 9.67529V6.96883C26.1767 6.59343 25.9964 6.28906 25.7739 6.28906C25.5515 6.28906 25.3711 6.59343 25.3711 6.96883V9.67529C25.3711 10.0507 25.5515 10.3551 25.7739 10.3551Z" fill="black"/>
<path d="M31.4888 10.3551C31.7112 10.3551 31.8916 10.0507 31.8916 9.67529V6.96883C31.8916 6.59343 31.7112 6.28906 31.4888 6.28906C31.2663 6.28906 31.0859 6.59343 31.0859 6.96883V9.67529C31.0859 10.0507 31.2663 10.3551 31.4888 10.3551Z" fill="black"/>
<path d="M20.0669 17.5113C20.2893 17.5113 20.4697 17.2069 20.4697 16.8315V14.1251C20.4697 13.7497 20.2893 13.4453 20.0669 13.4453C19.8444 13.4453 19.6641 13.7497 19.6641 14.1251V16.8315C19.6641 17.2069 19.8444 17.5113 20.0669 17.5113Z" fill="black"/>
<path d="M25.7739 17.5113C25.9964 17.5113 26.1767 17.2069 26.1767 16.8315V14.1251C26.1767 13.7497 25.9964 13.4453 25.7739 13.4453C25.5515 13.4453 25.3711 13.7497 25.3711 14.1251V16.8315C25.3711 17.2069 25.5515 17.5113 25.7739 17.5113Z" fill="black"/>
<path d="M31.4888 17.5113C31.7112 17.5113 31.8916 17.2069 31.8916 16.8315V14.1251C31.8916 13.7497 31.7112 13.4453 31.4888 13.4453C31.2663 13.4453 31.0859 13.7497 31.0859 14.1251V16.8315C31.0859 17.2069 31.2663 17.5113 31.4888 17.5113Z" fill="black"/>
<path d="M20.0669 24.636C20.2893 24.636 20.4697 24.3316 20.4697 23.9562V21.2501C20.4697 20.8747 20.2893 20.5703 20.0669 20.5703C19.8444 20.5703 19.6641 20.8747 19.6641 21.2501V23.9562C19.6641 24.3316 19.8444 24.636 20.0669 24.636Z" fill="black"/>
<path d="M25.7739 24.636C25.9964 24.636 26.1767 24.3316 26.1767 23.9562V21.2501C26.1767 20.8747 25.9964 20.5703 25.7739 20.5703C25.5515 20.5703 25.3711 20.8747 25.3711 21.2501V23.9562C25.3711 24.3316 25.5515 24.636 25.7739 24.636Z" fill="black"/>
<path d="M31.4888 24.636C31.7112 24.636 31.8916 24.3316 31.8916 23.9562V21.2501C31.8916 20.8747 31.7112 20.5703 31.4888 20.5703C31.2663 20.5703 31.0859 20.8747 31.0859 21.2501V23.9562C31.0859 24.3316 31.2663 24.636 31.4888 24.636Z" fill="black"/>
<path d="M19.6815 55.7944V49.1796C19.6815 47.3998 18.2387 45.957 16.4589 45.957C14.6791 45.957 13.2363 47.3998 13.2363 49.1796V55.7944H19.6815Z" fill="#6196B6" stroke="#363434" stroke-width="0.583333"/>
<path d="M19.341 55.4598V49.1842C19.341 47.5917 18.05 46.3008 16.4576 46.3008C14.8652 46.3008 13.5742 47.5917 13.5742 49.1842V55.4598H19.341Z" fill="#90C0DE"/>
<path d="M13.5742 49.0146V54.7813L18.046 47.3283C18.3174 46.8761 17.9916 46.3008 17.4643 46.3008H16.288C14.7892 46.3008 13.5742 47.5158 13.5742 49.0146Z" fill="#649BBD"/>
<path d="M17.9844 53.0742H19.3413" stroke="#363434" stroke-width="0.583333"/>
<line x1="2.54983e-08" y1="55.7083" x2="64" y2="55.7083" stroke="white" stroke-width="0.583333"/>
</svg>
