<svg width="135" height="120" viewBox="0 0 135 120" fill="none" xmlns="http://www.w3.org/2000/svg">
<path d="M133.801 99.5111C130.606 88.9852 128.095 82.0586 128.095 82.0586L112.445 87.5556L117.357 103.54C118.598 107.034 117.355 115.145 123.156 114.08C129.23 112.965 136.997 110.037 133.801 99.5111Z" fill="#E59E7C" stroke="black" stroke-width="0.584641"/>
<path d="M78.0001 54.6103L78.1418 54.5662C81.9023 53.3959 85.2426 52.3784 88.461 52.0505C92.6944 51.6191 92.7834 51.7538 95.3467 51.7537C98.2434 51.7535 102.845 51.3592 113.451 54.0093C119.859 55.6103 125.423 65.0976 126.813 73.0493L130.15 84.9478C128.363 84.9478 126.707 84.5311 122.426 85.3649C116.67 86.4858 115.973 88.5155 114.394 90.5439C114.394 90.5439 116.015 99.1314 118.556 106.486C119.228 108.431 121.337 112.982 121.337 112.982L121.899 118.953L65.3476 119.424C65.3476 119.424 69.5561 107.819 68.3261 91.7907C67.138 95.931 68.2022 96.009 66.4982 99.8349C61.2745 81.0773 52.6081 82.6788 50.8656 83.232C52.5437 78.1581 55.6931 71.0403 56.8226 67.8401C58.739 62.4101 64.3712 59.6816 67.8341 58.1644C70.9103 56.8166 74.3512 55.7458 78.0001 54.6103Z" fill="#BCE5FF"/>
<path d="M68.3261 91.7907C69.5561 107.819 65.3476 119.424 65.3476 119.424L121.899 118.953L121.337 112.982C121.337 112.982 119.228 108.431 118.556 106.486C116.015 99.1314 114.394 90.5439 114.394 90.5439M68.3261 91.7907C68.3261 89.1722 67.2301 84.9478 68.3261 77.5507M68.3261 91.7907C67.138 95.931 68.2022 96.009 66.4982 99.8349C61.2745 81.0773 52.6081 82.6788 50.8656 83.232C52.5437 78.1581 55.6931 71.0403 56.8226 67.8401C58.739 62.4101 64.3712 59.6816 67.8341 58.1644C70.9501 56.7992 74.4404 55.7182 78.1418 54.5662C81.9023 53.3959 85.2426 52.3784 88.461 52.0505C92.6944 51.6191 92.7834 51.7538 95.3467 51.7537C98.2434 51.7535 102.845 51.3592 113.451 54.0093C119.859 55.6103 125.423 65.0976 126.813 73.0493L130.15 84.9478C128.363 84.9478 126.707 84.5311 122.426 85.3649C116.67 86.4858 115.973 88.5155 114.394 90.5439M114.394 90.5439C113.749 87.1291 111.985 81.6464 111.985 78.8561" stroke="black" stroke-width="0.584641" stroke-linejoin="round"/>
<path d="M116.797 88.1211C116.001 88.786 115.299 89.7596 114.764 90.6261C118.097 108.802 120.815 110.511 122.991 114.798C122.519 112.732 122.991 108.512 124.01 105.491C120.342 101.822 118.51 93.7992 116.797 88.1211Z" fill="#B47D62" fill-opacity="0.5"/>
<path opacity="0.3" d="M54.6348 108.194C59.7173 106.194 65.7091 87.1559 68.0697 77.8867C67.2365 82.2193 68.0697 88.7182 68.5905 91.4261C68.4169 91.9121 68.0697 93.2591 68.0697 94.7588C68.0697 96.2585 67.1671 98.647 66.7158 99.6538L65.8826 97.9874C64.133 102.987 58.9741 111.249 56.6134 114.755L54.6348 108.194Z" fill="black"/>
<path opacity="0.5" d="M113.43 85.5577C112.846 82.6005 111.557 79.5128 111.557 79.5128C111.557 79.5128 116.102 107.935 112.68 112.895C109.258 117.854 101.572 118.303 101.888 119.197L121.994 119.198C121.712 116.553 121.212 114.059 121.212 112.895C118.222 106.482 117.04 103.85 113.43 85.5577Z" fill="black"/>
<path d="M66.6582 49.0803C65.3677 45.8816 64.5181 41.4032 63.9589 36.938C63.5861 34.0578 63.3319 31.1459 63.191 28.539C63.0829 26.5399 63.0415 24.7202 63.0643 23.2318C63.0643 23.2318 61.61 13.7158 72.5697 13.5569C87.1826 13.345 86.1814 21.0369 86.1814 21.0369C86.2568 23.6759 85.9943 27.3747 88.173 28.907C90.3517 30.4393 87.1258 35.9009 86.3721 37.869L92.9845 52.2908C88.2766 59.0937 78.4925 61.4986 76.9209 57.6875L75.489 51.0835C74.0855 51.9192 71.3125 53.3655 69.1891 52.4472C68.5941 52.2203 68.0791 51.817 67.6909 51.186C67.6854 51.1782 67.68 51.1703 67.6745 51.1624C67.3136 50.582 66.975 49.88 66.6582 49.0803Z" fill="#E59E7C"/>
<path d="M83.2012 43.9311C81.0602 46.3917 78.7391 49.2316 75.489 51.0835C72.8597 52.5817 69.2303 53.7326 67.6761 51.1617C64.2007 45.4132 63.2443 31.26 62.9815 24.3708M75.489 51.0835L76.9209 57.6875C78.4925 61.4986 88.2766 59.0937 92.9845 52.2908L86.3721 37.869C87.1258 35.9009 90.3517 30.4393 88.173 28.907C85.9943 27.3747 86.2568 23.6759 86.1814 21.0369C86.1814 21.0369 87.1826 13.345 72.5697 13.5569C61.61 13.7158 63.0643 23.2318 63.0643 23.2318C62.9523 30.5518 64.3933 45.8862 67.6745 51.1624C69.7456 54.1754 73.7134 52.1408 75.489 51.0835Z" stroke="black" stroke-width="0.584641"/>
<path opacity="0.3" d="M84.3563 44.3845C81.9228 44.0988 77.5853 50.6478 75.5052 51.1294L76.9657 56.4712C77.9054 56.295 77.5102 54.4268 78.6603 53.2411C79.7892 52.0772 82.3801 52.3094 83.597 50.2268C84.7653 48.7097 83.492 46.6255 84.3563 44.3845Z" fill="black"/>
<path d="M79.0095 27.6971C80.7518 28.0643 78.6774 32.4553 79.7066 36.2174C80.7358 39.9795 76.6125 37.8453 76.0391 43.5501C75.837 45.5611 75.3539 37.8546 67.2171 43.5884C64.8097 45.2848 64.8571 46.1034 65.231 47.5617C65.6447 49.1751 66.7873 50.0178 67.2171 50.8285C67.7605 51.8536 67.7552 53.2867 69.1442 54.796C71.2345 56.3952 75.2554 54.1356 77.3104 51.1787C77.9708 50.2285 80.3829 50.2893 81.2098 49.4799C82.2559 48.456 81.2794 47.1669 82.0207 45.9047C82.9801 44.2713 84.6592 45.2527 85.0744 43.5884C85.6492 41.284 81.5322 37.6503 82.0867 32.4043C82.333 30.0741 83.146 26.6835 86.2019 28.0377C89.4091 30.1097 87.5815 36.0737 86.1425 37.2102L88.4976 45.915C88.5873 45.1464 91.2288 36.3765 92.6856 32.3047C94.5276 27.156 93.3214 21.9976 89.3111 20.0244C89.9717 18.0047 90.3441 17.5242 90.3655 16.2278C89.6817 16.064 89.351 17.4971 88.7793 17.187C89.0958 10.8489 89.3609 17.3021 86.3207 15.7191C86.867 13.3086 80.0431 8.78887 70.1704 10.7616C66.9975 11.3956 66.5872 13.9782 63.9555 15.5449C61.5709 16.9646 58.0795 15.3736 57.4937 18.5023C57.0737 20.7453 59.503 27.5855 66.0766 22.5348C70.1532 19.4027 70.4334 22.8144 75.1342 20.8371C77.5434 22.4677 73.192 26.4707 79.0095 27.6971Z" fill="#533A51" stroke="black" stroke-width="0.584641"/>
<path d="M84.3223 30.9961C84.5539 31.4186 84.7397 31.9671 84.8822 32.4804M84.8822 32.4804C85.0787 33.1886 85.1926 33.8297 85.2303 33.9802C85.2822 34.1878 85.0198 33.0668 84.8822 32.4804ZM84.8822 32.4804C85.0199 32.1802 85.4315 31.5605 85.9764 31.4826" stroke="black" stroke-width="0.584641"/>
<path d="M72.0023 43.5937C70.389 45.6846 66.6555 46.1785 67.5651 46.5471C68.3968 46.8522 71.343 47.4998 72.7454 45.4915C73.6032 44.2631 72.7264 42.3373 72.0023 43.5937Z" fill="white" stroke="black" stroke-width="0.584641"/>
<path d="M73.5749 32.4811C73.1592 31.3908 70.9763 30.8302 69.2114 32.7518L69.3634 33.6544C69.3634 33.6544 73.1259 33.949 73.5749 32.4811Z" fill="white"/>
<ellipse cx="70.6906" cy="32.6774" rx="0.722314" ry="0.963085" transform="rotate(-9.55832 70.6906 32.6774)" fill="black"/>
<path d="M67.8613 29.9883C69.2297 28.9714 71.7421 28.6086 74.3565 29.8949" stroke="black" stroke-width="0.584641"/>
<path d="M68.9863 32.7852C69.9824 31.0345 71.8088 30.852 73.7434 32.0989" stroke="black" stroke-width="0.584641"/>
<path d="M62.4279 32.4784C63.1661 30.7902 64.6655 30.694 65.0866 30.9111" stroke="black" stroke-width="0.584641"/>
<path d="M65.8847 33.9372C65.469 32.8469 63.6901 32.1312 63.4702 33.7425L63.6221 34.6451C63.6221 34.6451 65.1917 35.1029 65.8847 33.9372Z" fill="white"/>
<path d="M63.1309 33.6836C63.785 32.7504 65.1114 32.4773 66.0391 33.3944" stroke="black" stroke-width="0.584641"/>
<path d="M65.9773 33.1236C66.1858 34.9712 65.4413 37.6889 64.453 41.4864C64.9711 43.2045 67.9551 42.07 69.0381 41.3472" stroke="black" stroke-width="0.584641"/>
<ellipse cx="64.5286" cy="33.7433" rx="0.466954" ry="0.963085" transform="rotate(-9.55832 64.5286 33.7433)" fill="black"/>
<path d="M84.0709 106.952C87.0761 107.771 91.0149 107.065 92.6086 106.61L120.368 96.8086L127.279 113.087C127.279 113.087 122.128 114.621 93.2916 117.88C87.8565 118.494 79.2898 118.221 79.2898 118.221C78.2652 117.197 74.8502 115.489 72.8011 117.197C70.7521 118.904 70.4106 118.904 69.0445 118.904C68.3615 118.904 68.1338 117.994 68.3615 117.538C67.337 118.904 66.654 118.904 65.2879 118.904C64.1951 118.904 64.3772 117.311 64.6049 116.514C63.9219 117.88 62.8974 118.563 61.8728 117.88C61.0532 117.333 62.2144 114.92 62.8974 113.782C62.442 113.896 61.668 113.577 62.2144 111.391C62.8974 108.659 67.6785 104.561 71.0936 104.219C74.5086 103.878 80.3143 105.927 84.0709 106.952Z" fill="#E59E7C"/>
<path d="M62.8921 113.782C62.4368 113.896 61.6627 113.577 62.2091 111.391C62.8921 108.659 67.6732 104.561 71.0883 104.219C74.5034 103.878 80.309 105.927 84.0656 106.952C87.0709 107.771 91.0096 107.065 92.6033 106.61L120.362 96.8086M62.2091 111.391C62.6644 111.05 63.6434 110.64 63.9166 111.733M71.4298 106.269C66.7853 108.181 63.8028 112.074 62.8921 113.782C62.2091 114.92 61.048 117.333 61.8676 117.88C62.8921 118.563 63.9166 117.88 64.5996 116.514C65.6242 114.579 68.9027 110.367 73.8204 109.001M64.5996 116.514C64.372 117.311 64.1898 118.904 65.2827 118.904C66.6487 118.904 67.3317 118.904 68.3562 117.538M68.3562 117.538C68.1286 117.994 68.3562 118.904 69.0392 118.904C70.4053 118.904 70.7468 118.904 72.7958 117.197C74.8449 115.489 78.26 117.197 79.2845 118.221C79.2845 118.221 87.8513 118.494 93.2863 117.88C122.123 114.621 127.748 112.801 127.748 112.801M68.3562 117.538C68.9254 116.4 70.9517 113.782 74.5034 112.416M68.3562 117.538C69.0392 117.197 69.7223 117.197 69.7223 118.221M62.2091 115.831C62.8921 115.489 63.9166 116.172 63.5751 117.197M64.9411 117.197C65.6242 116.514 66.9902 116.514 66.9902 117.88" stroke="black" stroke-width="0.584641" stroke-linecap="round" stroke-linejoin="round"/>
<path d="M74.2433 78.3251C72.4252 79.5457 71.697 81.3277 71.781 83.4661C71.7961 83.7802 71.876 84.0762 71.9505 84.3727C72.5852 86.8996 75.3036 88.1152 77.6291 86.9132C79.8213 85.7802 81.033 83.1011 80.4332 80.7186C79.708 77.8385 76.7194 76.6625 74.2433 78.3251ZM76.1803 78.9566C76.1497 79.0826 76.0475 79.1217 75.931 79.1378C75.4078 79.214 74.9327 79.4009 74.5425 79.7614C74.4 79.8936 74.2789 80.0522 74.1717 80.215C74.0814 80.3546 73.9845 80.4663 73.8197 80.369C73.6506 80.2693 73.7099 80.1163 73.7941 79.9841C74.2509 79.2695 74.9159 78.8757 75.7643 78.7224C75.8543 78.7278 75.9698 78.7159 76.0715 78.7458C76.1526 78.7723 76.204 78.8597 76.1803 78.9566Z" fill="#333333"/>
<path d="M86.5872 80.1587C85.651 79.5427 84.463 79.5997 83.6195 80.2521C82.6834 80.9753 82.2948 82.1698 82.6421 83.2714C83.3118 85.3942 85.8711 85.7727 87.4384 84.449C87.4913 84.4049 87.5819 84.3424 87.5078 84.2734C87.3196 84.0983 87.1295 83.9166 86.9115 83.7862C86.7638 83.6981 86.6665 83.8952 86.5538 83.9678C85.5263 84.6397 84.1862 84.3084 83.7188 83.272C83.6152 83.0431 83.6248 82.9556 83.9053 82.9381C84.5066 82.9008 85.1066 82.8339 85.7077 82.779C86.3209 82.7231 86.9341 82.6671 87.5473 82.6111C87.679 82.5991 87.8228 82.6144 87.8046 82.3995C87.7216 81.4755 87.3819 80.6805 86.5872 80.1587ZM83.7379 82.1586C83.5309 82.1788 83.5626 82.0811 83.588 81.9434C83.7304 81.1857 84.3526 80.6483 85.1337 80.6203C85.823 80.5953 86.473 81.1209 86.6678 81.8885C85.6888 81.9778 84.7123 82.0642 83.7379 82.1586Z" fill="#333333"/>
<path d="M97.4255 79.1867C96.4914 78.5638 95.3024 78.61 94.4582 79.2544C93.5049 79.9818 93.1157 81.1845 93.4698 82.3017C94.1246 84.365 96.6326 84.8064 98.2457 83.4785C98.2986 83.4344 98.401 83.3682 98.3412 83.3073C98.1593 83.1262 97.9657 82.9516 97.7547 82.8084C97.5884 82.6949 97.5029 82.9018 97.3954 82.9725C96.3697 83.6483 95.03 83.336 94.5497 82.3074C94.4385 82.0698 94.4416 81.9707 94.7451 81.9524C95.3466 81.9179 95.9464 81.8482 96.5475 81.7934C97.1607 81.7374 97.7737 81.6801 98.3872 81.6268C98.5338 81.6135 98.6481 81.603 98.6281 81.399C98.5384 80.4906 98.2064 79.7058 97.4255 79.1867ZM97.2331 80.9265C96.2919 81.0138 95.3505 81.0983 94.385 81.1865C94.5282 80.2148 95.1083 79.6622 95.964 79.6342C96.6548 79.6118 97.3142 80.1514 97.4847 80.89C97.4003 80.9018 97.3178 80.9188 97.2331 80.9265Z" fill="#333333"/>
<path d="M104.053 79.9818C103.925 78.8426 103.036 78.1262 101.886 78.1851C101.274 78.2167 100.743 78.4343 100.225 78.9691C100.308 78.4266 100.065 78.4109 99.7569 78.4769C99.6732 78.4954 99.5846 78.5048 99.5001 78.5004C99.2261 78.4848 99.1503 78.5905 99.1786 78.8709C99.3225 80.2835 99.4435 81.6983 99.5725 83.1122C99.6381 83.8306 99.6368 83.8172 100.347 83.7646C100.623 83.7448 100.694 83.6612 100.665 83.3863C100.552 82.3269 100.463 81.2654 100.369 80.2043C100.357 80.0727 100.326 79.9442 100.399 79.8116C100.649 79.3623 101.35 79.0424 101.933 79.1233C102.504 79.2038 102.868 79.5348 102.983 80.1445C103.144 80.9991 103.162 81.872 103.251 82.7359C103.33 83.5154 103.323 83.5093 104.101 83.4193C104.305 83.3953 104.373 83.3363 104.351 83.1244C104.246 82.0778 104.171 81.0271 104.053 79.9818Z" fill="#333333"/>
<path d="M92.3262 79.1529C92.0669 79.1495 91.9776 79.27 91.9065 79.5013C91.5581 80.6461 91.1889 81.786 90.8224 82.9256C90.793 83.019 90.8089 83.1489 90.6604 83.2004C90.1545 82.2487 89.653 81.2992 89.1475 80.3515C88.6552 79.4297 88.6527 79.4313 87.544 79.6151C88.3724 81.1291 89.1733 82.6104 89.9911 84.0833C90.3968 84.814 90.1467 84.6595 90.9904 84.6177C91.2375 84.606 91.3487 84.5173 91.4245 84.2788C91.8133 83.0559 92.223 81.8405 92.6257 80.6217C92.7892 80.1248 92.9526 79.6279 93.1321 79.0834C92.8323 79.1121 92.58 79.1555 92.3262 79.1529Z" fill="#333333"/>
<path d="M74.2247 87.3968C74.0435 87.328 73.9623 87.4627 73.8969 87.6082C73.5961 88.2639 73.1535 88.6739 72.3641 88.4778C72.217 88.4412 72.1175 88.5098 72.0881 88.6479C72.0567 88.7943 72.155 88.876 72.2842 88.9103C72.4747 88.962 72.6675 88.9945 72.93 88.9732C73.5969 88.8677 74.047 88.4204 74.3238 87.7696C74.3838 87.6246 74.4046 87.4657 74.2247 87.3968Z" fill="#333333"/>
<path d="M113.314 116.355L68.6236 116.355V119.335H113.314V116.355Z" fill="#497BDC" stroke="black" stroke-width="0.584641" stroke-linecap="round" stroke-linejoin="round"/>
<path d="M103.525 116.355L58.8345 116.355V119.335H103.525V116.355Z" fill="#9CBBE0" stroke="black" stroke-width="0.584641" stroke-linecap="round" stroke-linejoin="round"/>
<path d="M68.0107 68.585H16.2637C14.5309 68.585 13.1262 69.9899 13.126 71.7227V116.281C13.126 118.014 14.5307 119.419 16.2637 119.419H72.667C74.529 119.419 75.9816 117.807 75.7881 115.955L71.1318 71.3965C70.9646 69.7987 69.6173 68.585 68.0107 68.585Z" fill="#497BDC" stroke="black" stroke-width="0.584641" stroke-linecap="round" stroke-linejoin="round"/>
<path d="M66.251 68.585H9.50879C7.64439 68.5852 6.19109 70.2017 6.38867 72.0557L11.1406 116.614C11.3107 118.209 12.6567 119.419 14.2607 119.419H71.0029C72.8674 119.419 74.3205 117.803 74.123 115.949L69.3711 71.3906C69.201 69.7955 67.8551 68.585 66.251 68.585Z" fill="#9CBBE0" stroke="black" stroke-width="0.584641" stroke-linecap="round" stroke-linejoin="round"/>
<path d="M68.9284 71.4937L73.5437 115.596C73.6733 116.835 72.9523 118.005 71.7878 118.447L70.371 118.985C72.3184 113.633 71.4838 102.216 63.1379 99.7185C46.5034 94.7407 31.7017 104.357 26.6942 93.6532C23.5453 86.9226 21.3778 78.3115 17.2048 69.0352H66.1992C67.6042 69.0352 68.7822 70.0963 68.9284 71.4937Z" fill="#BCD4FC"/>
<path d="M37.5369 91.7841C36.0735 92.7666 35.4874 94.2009 35.555 95.9222C35.5671 96.175 35.6314 96.4132 35.6914 96.6519C36.2023 98.6857 38.3903 99.6642 40.2621 98.6967C42.0266 97.7847 43.0019 95.6283 42.5191 93.7107C41.9354 91.3925 39.5299 90.4459 37.5369 91.7841ZM39.0959 92.2925C39.0714 92.3939 38.9891 92.4254 38.8953 92.4383C38.4742 92.4996 38.0918 92.65 37.7777 92.9402C37.663 93.0466 37.5655 93.1743 37.4793 93.3053C37.4066 93.4177 37.3286 93.5076 37.1959 93.4293C37.0598 93.3491 37.1075 93.2259 37.1753 93.1195C37.543 92.5443 38.0783 92.2273 38.7611 92.104C38.8336 92.1083 38.9265 92.0987 39.0084 92.1228C39.0737 92.1441 39.115 92.2144 39.0959 92.2925Z" fill="white"/>
<path d="M37.517 99.0877C37.3711 99.0323 37.3057 99.1407 37.2531 99.2578C37.0109 99.7856 36.6547 100.116 36.0193 99.9578C35.9009 99.9283 35.8209 99.9835 35.7972 100.095C35.7719 100.213 35.851 100.278 35.955 100.306C36.1084 100.347 36.2635 100.374 36.4748 100.357C37.0116 100.272 37.3739 99.9116 37.5967 99.3877C37.645 99.2711 37.6617 99.1431 37.517 99.0877Z" fill="white"/>
<path d="M5.80184 102.629C5.34943 102.081 4.32398 100.684 3.84141 99.4868C3.35884 98.2897 7.15906 101.083 9.11949 102.629C7.00822 100.684 2.60471 95.7459 1.88086 91.5561C4.23258 93.1381 8.54392 96.3323 10.5292 98.7212C8.98992 95.7211 7.28706 90.2396 8.36536 83.6253C9.0691 87.7652 11.1703 96.5839 13.945 98.7387C12.8392 95.2471 11.0798 86.6479 12.8894 80.1836C14.6304 82.1702 17.6074 87.7392 17.4351 95.6473C18.1753 92.7194 20.0654 88.548 24.1996 83.6253C23.7975 87.2665 22.1487 95.716 18.7707 100.385C21.2338 97.9905 26.341 92.7232 27.0648 90.8079C26.8062 93.1176 25.6605 97.7599 23.0571 100.244C24.8494 98.9998 27.2813 97.5416 28.5729 97.5416L24.1996 102.629L15.6039 104.575L5.80184 102.629Z" fill="#48C696" stroke="black" stroke-width="0.584641"/>
<path d="M26.074 119.305C24.9972 116.523 28.517 106.794 30.4115 102.277H0.498047C4.56628 109.568 4.58623 116.667 4.08767 119.305H26.074Z" fill="#F3AFCD" stroke="black" stroke-width="0.584641"/>
<path d="M26.4998 113.783C26.73 111.943 27.8805 109.181 28.3407 107.801H3.0293C3.4895 109.872 4.58634 112.857 4.08778 113.783H26.4998Z" fill="#EB4C86" stroke="black" stroke-width="0.584641" stroke-linejoin="round"/>
</svg>
