<svg width="40" height="40" viewBox="0 0 40 40" fill="none" xmlns="http://www.w3.org/2000/svg">
<rect width="40" height="40" rx="12" fill="white" fill-opacity="0.1"/>
<path d="M8 23.7336V16.2669C8 14.7735 8 14.0262 8.29065 13.4557C8.54631 12.954 8.95396 12.5463 9.45573 12.2906C10.0262 12 10.7735 12 12.2669 12H27.7336C29.2271 12 29.9728 12 30.5432 12.2906C31.045 12.5463 31.454 12.954 31.7096 13.4557C32 14.0256 32 14.772 32 16.2625V23.7375C32 25.228 32 25.9733 31.7096 26.5432C31.454 27.045 31.045 27.454 30.5432 27.7096C29.9733 28 29.228 28 27.7375 28H20H12.2625C12.1723 28 12.0849 28 12 27.9999C10.6823 27.9989 9.99112 27.9824 9.45573 27.7096C8.95396 27.454 8.54631 27.045 8.29065 26.5432C8 25.9728 8 25.2271 8 23.7336Z" fill="#FFDD66"/>
<path d="M12 27.9999C12.0849 28 12.1723 28 12.2625 28H20M12 27.9999C10.6823 27.9989 9.99112 27.9824 9.45573 27.7096C8.95396 27.454 8.54631 27.045 8.29065 26.5432C8 25.9728 8 25.2271 8 23.7336V16.2669C8 14.7735 8 14.0262 8.29065 13.4557C8.54631 12.954 8.95396 12.5463 9.45573 12.2906C10.0262 12 10.7735 12 12.2669 12H27.7336C29.2271 12 29.9728 12 30.5432 12.2906C31.045 12.5463 31.454 12.954 31.7096 13.4557C32 14.0256 32 14.772 32 16.2625V23.7375C32 25.228 32 25.9733 31.7096 26.5432C31.454 27.045 31.045 27.454 30.5432 27.7096C29.9733 28 29.228 28 27.7375 28H20M12 27.9999C12.0001 26.5272 13.7909 25.3333 16 25.3333C18.2091 25.3333 20 26.5272 20 28M12 27.9999C12 28 12 27.9999 12 27.9999ZM28 22.6667H22.6667M28 18.6667H24M16 21.3333C14.5272 21.3333 13.3333 20.1394 13.3333 18.6667C13.3333 17.1939 14.5272 16 16 16C17.4728 16 18.6667 17.1939 18.6667 18.6667C18.6667 20.1394 17.4728 21.3333 16 21.3333Z" stroke="#212341" stroke-width="1.2" stroke-linecap="round" stroke-linejoin="round"/>
</svg>
