<svg width="40" height="40" viewBox="0 0 40 40" fill="none" xmlns="http://www.w3.org/2000/svg">
<rect width="40" height="40" rx="12" fill="white" fill-opacity="0.1"/>
<path d="M9.48754 29.1357H13.3718V19.7186L7.81641 15.5859V27.4871C7.81641 28.3905 8.56164 29.1357 9.48754 29.1357Z" fill="#4285F4"/>
<path d="M26.6504 29.1357H30.5347C31.4606 29.1357 32.2058 28.3905 32.2058 27.4646V15.5859L26.673 19.7412V29.1357H26.6504Z" fill="#34A853"/>
<path d="M26.6504 12.5355V19.7394L32.1832 15.5842V13.371C32.1832 11.316 29.8346 10.1417 28.186 11.3837L26.6504 12.5355Z" fill="#FBBC04"/>
<path fill-rule="evenodd" clip-rule="evenodd" d="M13.3496 19.7126V12.5312L19.989 17.5221L26.6284 12.5312V19.7352L20.0116 24.7034L13.3496 19.7126Z" fill="#EA4335"/>
<path d="M7.81641 13.3495V15.5627L13.3492 19.7179V12.5366L11.791 11.3622C10.165 10.1428 7.81641 11.3171 7.81641 13.3495Z" fill="#C5221F"/>
</svg>
