<svg width="40" height="40" viewBox="0 0 40 40" fill="none" xmlns="http://www.w3.org/2000/svg">
<rect width="40" height="40" rx="12" fill="white" fill-opacity="0.1"/>
<path d="M15.6475 10.418L15.6465 10.4189C15.8456 10.4275 16.1815 10.4335 16.4883 10.6367C16.7174 10.7886 16.8796 11.0121 17.0127 11.2754L17.1377 11.5498V11.5518C17.5128 12.4687 18.3937 14.6496 18.4922 14.8604H18.4912C18.6074 15.1049 18.8379 15.6517 18.5479 16.2217L18.5469 16.2207C18.3684 16.6005 18.1934 16.7933 17.9766 17.0469C17.8548 17.1892 17.7348 17.3164 17.6309 17.4287C17.5241 17.5441 17.4269 17.6517 17.3291 17.7744L17.3193 17.7861C17.2625 17.8539 17.2281 17.8946 17.1992 17.9355C17.1804 17.9623 17.1718 17.979 17.168 17.9873C17.1688 17.9904 17.17 17.9947 17.1719 18C17.1765 18.0132 17.185 18.0341 17.2012 18.0625C17.4547 18.4972 18.3097 19.9045 19.5498 21.0244C21.1652 22.4833 22.458 22.9403 22.9453 23.1465H22.9443C23.0365 23.1852 23.1289 23.1956 23.2021 23.1855C23.2719 23.1759 23.3151 23.15 23.3428 23.1201C23.6489 22.7844 24.0369 22.2155 24.4795 21.5869C24.6949 21.2789 24.977 21.0549 25.3252 20.9629C25.6601 20.8745 25.9836 20.9281 26.2598 21.0312H26.2607L26.2627 21.0322C26.2668 21.0338 26.2713 21.0346 26.2754 21.0361H26.2744C26.5332 21.1305 27.2068 21.4538 27.8252 21.7568L29.3594 22.5205L29.3613 22.5215C29.5443 22.6147 29.7814 22.7243 29.9316 22.8076C30.0684 22.8834 30.2621 23.0017 30.4033 23.1973L30.46 23.2861L30.4629 23.29C30.5587 23.4621 30.583 23.6709 30.5928 23.8057C30.6048 23.9712 30.6023 24.1664 30.584 24.3799C30.5564 24.7011 30.4917 25.083 30.377 25.4961L30.2451 25.9189C30.0021 26.615 29.4297 27.1868 28.8242 27.6025C28.2087 28.0251 27.4836 28.3388 26.8242 28.4834H26.8223C26.3748 28.5801 25.8388 28.6674 24.9502 28.5244C24.0877 28.3856 22.9054 28.0327 21.1396 27.29C18.7948 26.3045 16.8905 24.6153 15.5557 23.1602C14.8853 22.4294 14.3512 21.7503 13.9707 21.2344C13.7803 20.9762 13.628 20.7586 13.5166 20.5967C13.4613 20.5163 13.4156 20.4489 13.3818 20.3994C13.3647 20.3743 13.3514 20.3542 13.3408 20.3389C13.3295 20.3225 13.3252 20.3164 13.3252 20.3164L13.3174 20.3066C13.2084 20.155 12.7326 19.5121 12.2852 18.6172C11.8418 17.7304 11.4004 16.5452 11.4004 15.3057C11.4004 12.8503 12.6497 11.6261 13.1221 11.1367C13.644 10.5963 14.4371 10.4004 15.1084 10.4004C15.3147 10.4004 15.5003 10.4105 15.6475 10.418Z" fill="#FFDD66" stroke="#212341" stroke-width="1.2"/>
</svg>
