<svg width="40" height="40" viewBox="0 0 40 40" fill="none" xmlns="http://www.w3.org/2000/svg">
<rect width="40" height="40" rx="12" fill="white" fill-opacity="0.1"/>
<path d="M8 13.3385C8 11.8658 9.19391 10.6719 10.6667 10.6719H29.3333C30.8061 10.6719 32 11.8658 32 13.3385V25.3385C32 26.8113 30.8061 28.0052 29.3333 28.0052H20H10.6667C9.19391 28.0052 8 26.8113 8 25.3385V13.3385Z" fill="#FFDD66"/>
<path fill-rule="evenodd" clip-rule="evenodd" d="M16 32.0052H20H24" fill="#FFDD66"/>
<path d="M16 32.0052H20M24 32.0052H20M20 32.0052V28.0052M20 28.0052H29.3333C30.8061 28.0052 32 26.8113 32 25.3385V13.3385C32 11.8658 30.8061 10.6719 29.3333 10.6719H10.6667C9.19391 10.6719 8 11.8658 8 13.3385V25.3385C8 26.8113 9.19391 28.0052 10.6667 28.0052H20Z" stroke="#212341" stroke-width="1.2" stroke-linecap="round" stroke-linejoin="round"/>
</svg>
