<svg width="40" height="40" viewBox="0 0 40 40" fill="none" xmlns="http://www.w3.org/2000/svg">
<rect width="40" height="40" rx="12" fill="white" fill-opacity="0.1"/>
<path d="M8 20.0039C8 26.6313 13.3726 32.0039 20 32.0039C26.6274 32.0039 32 26.6313 32 20.0039C32 13.3765 26.6274 8.00391 20 8.00391C13.3726 8.00391 8 13.3765 8 20.0039Z" fill="#FFDD66"/>
<path d="M26.9555 29.7803C25.2466 27.8717 22.7635 26.6706 20 26.6706C17.2365 26.6706 14.7532 27.8717 13.0443 29.7803M20 32.0039C13.3726 32.0039 8 26.6313 8 20.0039C8 13.3765 13.3726 8.00391 20 8.00391C26.6274 8.00391 32 13.3765 32 20.0039C32 26.6313 26.6274 32.0039 20 32.0039ZM20 22.6706C17.7909 22.6706 16 20.8797 16 18.6706C16 16.4614 17.7909 14.6706 20 14.6706C22.2091 14.6706 24 16.4614 24 18.6706C24 20.8797 22.2091 22.6706 20 22.6706Z" stroke="#212341" stroke-width="1.2" stroke-linecap="round" stroke-linejoin="round"/>
</svg>
