<svg width="20" height="20" viewBox="0 0 20 20" fill="none" xmlns="http://www.w3.org/2000/svg">
<rect width="20" height="20" rx="10" fill="#7171DE"/>
<path d="M9.348 9.2C10.104 9.2 10.8 8.576 10.8 7.904C10.8 7.16 10.152 6.608 9.336 6.608C8.436 6.608 7.836 7.268 7.8 8.168H6.768C6.804 6.632 7.872 5.624 9.36 5.624C10.8 5.624 11.844 6.56 11.844 7.808C11.844 8.588 11.424 9.26 10.692 9.608C11.604 9.908 12.192 10.688 12.192 11.636C12.192 13.1 10.992 14.132 9.384 14.132C7.692 14.132 6.6 13.064 6.564 11.432H7.608C7.668 12.428 8.364 13.136 9.384 13.136C10.38 13.136 11.124 12.536 11.124 11.624C11.124 10.748 10.344 10.136 9.348 10.136H8.892V9.2H9.348Z" fill="white"/>
</svg>
