<svg width="45" height="32" viewBox="0 0 45 32" fill="none" xmlns="http://www.w3.org/2000/svg">
<g clip-path="url(#clip0_91055_27664)">
<path d="M11.9803 7.14062V21.7336H9.41443V21.0672C8.66187 21.6584 7.72759 21.9703 6.77082 21.9497C6.12336 21.9474 5.48308 21.814 4.88862 21.5574C4.29416 21.3009 3.75783 20.9265 3.312 20.457C2.86617 19.9875 2.52008 19.4326 2.29462 18.8256C2.06915 18.2187 1.96899 17.5724 2.00016 16.9257C1.9626 16.2758 2.05803 15.6251 2.28062 15.0133C2.5032 14.4016 2.84826 13.8417 3.29468 13.3679C3.7411 12.8942 4.27949 12.5164 4.87691 12.2579C5.47434 11.9994 6.11823 11.8654 6.7692 11.8643C7.70609 11.8465 8.62196 12.143 9.37071 12.7064V7.14062H11.9803ZM9.45249 16.9248C9.4694 16.5946 9.41799 16.2645 9.30148 15.9551C9.18497 15.6457 9.00586 15.3636 8.77536 15.1266C8.54486 14.8895 8.26792 14.7026 7.96188 14.5775C7.65583 14.4524 7.32726 14.3918 6.99672 14.3994C6.67078 14.3987 6.34813 14.4646 6.04855 14.593C5.74896 14.7214 5.47877 14.9096 5.25451 15.1461C5.03026 15.3827 4.85669 15.6625 4.74443 15.9685C4.63217 16.2745 4.58359 16.6002 4.60167 16.9257C4.5874 17.2481 4.63884 17.5701 4.75288 17.872C4.86691 18.174 5.04116 18.4496 5.26503 18.6821C5.4889 18.9146 5.75771 19.0991 6.05513 19.2245C6.35254 19.3499 6.67235 19.4135 6.9951 19.4114C7.3225 19.42 7.64821 19.3614 7.95206 19.2392C8.25591 19.1169 8.53145 18.9337 8.76163 18.7007C8.99181 18.4677 9.17174 18.1899 9.2903 17.8846C9.40885 17.5793 9.4635 17.2529 9.45087 16.9257M14.5924 12.0781H17.1971V21.7327H14.5924V12.0781ZM28.7885 12.0781V21.4485C28.7979 22.0675 28.6792 22.6818 28.44 23.2527C28.2007 23.8237 27.8461 24.339 27.3983 24.7665C26.9506 25.194 26.4193 25.5243 25.8379 25.7368C25.2565 25.9493 24.6374 26.0394 24.0195 26.0014C23.0368 26.0478 22.066 25.7708 21.2558 25.2127C20.4456 24.6547 19.8407 23.8463 19.5339 22.9116L21.9273 22.0161C22.0507 22.4656 22.3259 22.8585 22.706 23.1282C23.0862 23.3978 23.548 23.5276 24.013 23.4954C24.2983 23.5164 24.5847 23.4766 24.8534 23.3785C25.1221 23.2804 25.3668 23.1264 25.5715 22.9266C25.7761 22.7268 25.9359 22.4857 26.0404 22.2195C26.1448 21.9532 26.1915 21.6678 26.1773 21.3822V20.5951C25.4753 21.1506 24.6011 21.4428 23.7062 21.421C23.0905 21.4211 22.4811 21.2967 21.9146 21.0554C21.3482 20.8141 20.8364 20.4608 20.4098 20.0168C19.9833 19.5727 19.651 19.0471 19.4327 18.4714C19.2144 17.8956 19.1147 17.2818 19.1395 16.6666C19.1118 16.051 19.2083 15.4361 19.4234 14.8587C19.6385 14.2813 19.9678 13.7531 20.3915 13.3057C20.8152 12.8583 21.3248 12.5009 21.8897 12.2548C22.4546 12.0087 23.0633 11.8789 23.6794 11.8732C24.5999 11.8561 25.4961 12.1692 26.2057 12.7558V12.0862H28.7869V12.0781H28.7885ZM26.255 16.6714C26.2632 16.3708 26.211 16.0717 26.1016 15.7916C25.9922 15.5116 25.8278 15.2563 25.6181 15.0408C25.4084 14.8253 25.1576 14.654 24.8806 14.537C24.6036 14.4201 24.306 14.3598 24.0054 14.3597C23.7047 14.3597 23.407 14.4199 23.13 14.5367C22.853 14.6536 22.6022 14.8248 22.3924 15.0402C22.1826 15.2556 22.0181 15.5109 21.9086 15.7909C21.7991 16.0709 21.7468 16.37 21.7548 16.6706C21.7706 17.2569 22.0145 17.8139 22.4348 18.2231C22.855 18.6322 23.4184 18.8612 24.0049 18.8612C24.5915 18.8612 25.1548 18.6322 25.5751 18.2231C25.9954 17.8139 26.2393 17.2569 26.255 16.6706M31.3933 12.0781H33.9989V21.7327H31.3933V12.0781ZM39.5387 12.0781H42.5856V14.5492H39.5371V18.1264C39.5257 18.2788 39.5474 18.4319 39.6006 18.5752C39.6538 18.7184 39.7372 18.8486 39.8453 18.9566C39.9534 19.0647 40.0835 19.1482 40.2268 19.2014C40.37 19.2546 40.5231 19.2762 40.6755 19.2648H42.5848V21.736H40.129C39.709 21.7633 39.288 21.7015 38.8936 21.5549C38.4992 21.4082 38.1401 21.1798 37.84 20.8848C37.54 20.5897 37.3056 20.2346 37.1522 19.8427C36.9989 19.4508 36.93 19.031 36.9502 18.6106V14.546H35.5713V13.2084L38.0967 10.083H39.5379L39.5387 12.0781ZM15.8887 7.15844H28.7877V9.1956H15.8895L15.8887 7.15844Z" fill="white"/>
<path d="M34.0001 8.17238L32.0318 6H31.3945V10.3593H32.0253L34.0001 8.17238Z" fill="#FFBB00"/>
</g>
<defs>
<clipPath id="clip0_91055_27664">
<rect width="40.5854" height="20" fill="white" transform="translate(2 6)"/>
</clipPath>
</defs>
</svg>
